STARTFONT 2.1
FONT -gbdfed-sqreep3-Regular-R-Normal--12-120-96-96-M-5-ISO10646-1
SIZE 12 96 96
FONTBOUNDINGBOX 7 12 -1 -3
STARTPROPERTIES 24
POINT_SIZE 120
PIXEL_SIZE 12
RESOLUTION_X 96
RESOLUTION_Y 96
FONT_ASCENT 9
FONT_DESCENT 2
AVERAGE_WIDTH 5
SPACING "M"
FOUNDRY "gbdfed"
FAMILY_NAME "sqreep3"
CHARSET_REGISTRY "ISO10646"
CHARSET_ENCODING "1"
WEIGHT_NAME "Regular"
SLANT "R"
SETWIDTH_NAME "Normal"
COPYRIGHT "Copyright romeovs 2013"
_TTF_PSNAME "sqreep"
_OTF_FONTFILE "creep2.ttf"
_GBDFED_INFO "Edited with gbdfed 1.6."
CAP_HEIGHT 7
DEFAULT_CHAR 0
FACE_NAME "sqreep3"
AVG_LOWERCASE_WIDTH 5
ADD_STYLE_NAME ""
ENDPROPERTIES
CHARS 1317
STARTCHAR char10254
ENCODING -1
SWIDTH 375 0
DWIDTH 6 0
BBX 3 5 0 0
BITMAP
20
00
80
00
80
ENDCHAR
STARTCHAR spacehackarabic
ENCODING 32
SWIDTH 375 0
DWIDTH 6 0
BBX 0 0 0 0
BITMAP
ENDCHAR
STARTCHAR exclam
ENCODING 33
SWIDTH 375 0
DWIDTH 6 0
BBX 1 7 2 0
BITMAP
80
80
80
80
80
00
80
ENDCHAR
STARTCHAR quotedbl
ENCODING 34
SWIDTH 375 0
DWIDTH 6 0
BBX 3 3 1 4
BITMAP
A0
A0
A0
ENDCHAR
STARTCHAR numbersign
ENCODING 35
SWIDTH 375 0
DWIDTH 6 0
BBX 5 5 0 0
BITMAP
50
F8
50
F8
50
ENDCHAR
STARTCHAR dollar
ENCODING 36
SWIDTH 375 0
DWIDTH 6 0
BBX 5 9 0 -1
BITMAP
20
F8
A0
A0
F8
28
28
F8
20
ENDCHAR
STARTCHAR percent
ENCODING 37
SWIDTH 375 0
DWIDTH 6 0
BBX 5 5 0 0
BITMAP
48
08
F8
80
90
ENDCHAR
STARTCHAR ampersand
ENCODING 38
SWIDTH 375 0
DWIDTH 6 0
BBX 5 7 0 0
BITMAP
E0
A0
F8
90
90
80
E0
ENDCHAR
STARTCHAR quotesingle
ENCODING 39
SWIDTH 375 0
DWIDTH 6 0
BBX 1 3 2 4
BITMAP
80
80
80
ENDCHAR
STARTCHAR parenleft
ENCODING 40
SWIDTH 375 0
DWIDTH 6 0
BBX 3 9 2 -2
BITMAP
60
40
C0
80
80
80
C0
40
60
ENDCHAR
STARTCHAR parenright
ENCODING 41
SWIDTH 375 0
DWIDTH 6 0
BBX 3 9 0 -2
BITMAP
C0
40
60
20
20
20
60
40
C0
ENDCHAR
STARTCHAR asterisk
ENCODING 42
SWIDTH 375 0
DWIDTH 6 0
BBX 5 5 0 0
BITMAP
20
A8
F8
A8
20
ENDCHAR
STARTCHAR plus
ENCODING 43
SWIDTH 375 0
DWIDTH 6 0
BBX 5 5 0 0
BITMAP
20
20
F8
20
20
ENDCHAR
STARTCHAR comma
ENCODING 44
SWIDTH 375 0
DWIDTH 6 0
BBX 2 2 1 -1
BITMAP
40
C0
ENDCHAR
STARTCHAR hyphen
ENCODING 45
SWIDTH 375 0
DWIDTH 6 0
BBX 5 1 0 2
BITMAP
F8
ENDCHAR
STARTCHAR period
ENCODING 46
SWIDTH 375 0
DWIDTH 6 0
BBX 1 1 2 0
BITMAP
80
ENDCHAR
STARTCHAR slash
ENCODING 47
SWIDTH 375 0
DWIDTH 6 0
BBX 3 7 1 0
BITMAP
20
20
20
E0
80
80
80
ENDCHAR
STARTCHAR zero
ENCODING 48
SWIDTH 375 0
DWIDTH 6 0
BBX 4 7 0 0
BITMAP
F0
90
90
90
90
90
F0
ENDCHAR
STARTCHAR one
ENCODING 49
SWIDTH 375 0
DWIDTH 6 0
BBX 2 7 1 0
BITMAP
40
C0
40
40
40
40
40
ENDCHAR
STARTCHAR two
ENCODING 50
SWIDTH 375 0
DWIDTH 6 0
BBX 4 7 0 0
BITMAP
F0
10
10
F0
80
80
F0
ENDCHAR
STARTCHAR three
ENCODING 51
SWIDTH 375 0
DWIDTH 6 0
BBX 4 7 0 0
BITMAP
F0
10
10
F0
10
10
F0
ENDCHAR
STARTCHAR four
ENCODING 52
SWIDTH 375 0
DWIDTH 6 0
BBX 4 7 0 0
BITMAP
A0
A0
A0
F0
20
20
20
ENDCHAR
STARTCHAR five
ENCODING 53
SWIDTH 375 0
DWIDTH 6 0
BBX 4 7 0 0
BITMAP
F0
80
80
F0
10
10
F0
ENDCHAR
STARTCHAR six
ENCODING 54
SWIDTH 375 0
DWIDTH 6 0
BBX 4 7 0 0
BITMAP
F0
80
80
F0
90
90
F0
ENDCHAR
STARTCHAR seven
ENCODING 55
SWIDTH 375 0
DWIDTH 6 0
BBX 4 7 0 0
BITMAP
F0
10
10
30
20
20
20
ENDCHAR
STARTCHAR eight
ENCODING 56
SWIDTH 375 0
DWIDTH 6 0
BBX 4 7 0 0
BITMAP
F0
90
90
F0
90
90
F0
ENDCHAR
STARTCHAR nine
ENCODING 57
SWIDTH 375 0
DWIDTH 6 0
BBX 4 7 0 0
BITMAP
F0
90
90
F0
10
10
F0
ENDCHAR
STARTCHAR colon
ENCODING 58
SWIDTH 375 0
DWIDTH 6 0
BBX 1 4 2 0
BITMAP
80
00
00
80
ENDCHAR
STARTCHAR semicolon
ENCODING 59
SWIDTH 375 0
DWIDTH 6 0
BBX 2 5 1 -1
BITMAP
40
00
00
40
C0
ENDCHAR
STARTCHAR less
ENCODING 60
SWIDTH 375 0
DWIDTH 6 0
BBX 5 5 0 0
BITMAP
38
E0
80
E0
38
ENDCHAR
STARTCHAR equal
ENCODING 61
SWIDTH 375 0
DWIDTH 6 0
BBX 5 3 0 1
BITMAP
F8
00
F8
ENDCHAR
STARTCHAR greater
ENCODING 62
SWIDTH 375 0
DWIDTH 6 0
BBX 5 5 0 0
BITMAP
E0
38
08
38
E0
ENDCHAR
STARTCHAR question
ENCODING 63
SWIDTH 375 0
DWIDTH 6 0
BBX 5 7 0 0
BITMAP
F8
08
08
38
20
00
20
ENDCHAR
STARTCHAR at
ENCODING 64
SWIDTH 375 0
DWIDTH 6 0
BBX 5 7 0 0
BITMAP
F8
88
B8
A8
B8
80
F8
ENDCHAR
STARTCHAR A
ENCODING 65
SWIDTH 375 0
DWIDTH 6 0
BBX 5 7 0 0
BITMAP
F8
88
88
88
F8
88
88
ENDCHAR
STARTCHAR B
ENCODING 66
SWIDTH 375 0
DWIDTH 6 0
BBX 5 7 0 0
BITMAP
E0
A0
F8
88
88
88
F8
ENDCHAR
STARTCHAR C
ENCODING 67
SWIDTH 375 0
DWIDTH 6 0
BBX 5 7 0 0
BITMAP
F8
80
80
80
80
80
F8
ENDCHAR
STARTCHAR D
ENCODING 68
SWIDTH 375 0
DWIDTH 6 0
BBX 5 7 0 0
BITMAP
E0
B8
88
88
88
B8
E0
ENDCHAR
STARTCHAR E
ENCODING 69
SWIDTH 375 0
DWIDTH 6 0
BBX 5 7 0 0
BITMAP
F8
80
80
F8
80
80
F8
ENDCHAR
STARTCHAR F
ENCODING 70
SWIDTH 375 0
DWIDTH 6 0
BBX 5 7 0 0
BITMAP
F8
80
80
F8
80
80
80
ENDCHAR
STARTCHAR G
ENCODING 71
SWIDTH 375 0
DWIDTH 6 0
BBX 5 7 0 0
BITMAP
F8
80
80
B8
88
88
F8
ENDCHAR
STARTCHAR H
ENCODING 72
SWIDTH 375 0
DWIDTH 6 0
BBX 5 7 0 0
BITMAP
88
88
88
F8
88
88
88
ENDCHAR
STARTCHAR I
ENCODING 73
SWIDTH 375 0
DWIDTH 6 0
BBX 3 7 1 0
BITMAP
E0
40
40
40
40
40
E0
ENDCHAR
STARTCHAR J
ENCODING 74
SWIDTH 375 0
DWIDTH 6 0
BBX 5 7 0 0
BITMAP
08
08
08
08
88
88
F8
ENDCHAR
STARTCHAR K
ENCODING 75
SWIDTH 375 0
DWIDTH 6 0
BBX 5 7 0 0
BITMAP
90
90
90
F8
88
88
88
ENDCHAR
STARTCHAR L
ENCODING 76
SWIDTH 375 0
DWIDTH 6 0
BBX 5 7 0 0
BITMAP
80
80
80
80
80
80
F8
ENDCHAR
STARTCHAR M
ENCODING 77
SWIDTH 375 0
DWIDTH 6 0
BBX 5 7 0 0
BITMAP
F8
A8
A8
A8
88
88
88
ENDCHAR
STARTCHAR N
ENCODING 78
SWIDTH 375 0
DWIDTH 6 0
BBX 5 7 0 0
BITMAP
E8
A8
A8
A8
A8
A8
B8
ENDCHAR
STARTCHAR O
ENCODING 79
SWIDTH 375 0
DWIDTH 6 0
BBX 5 7 0 0
BITMAP
F8
88
88
88
88
88
F8
ENDCHAR
STARTCHAR P
ENCODING 80
SWIDTH 375 0
DWIDTH 6 0
BBX 5 7 0 0
BITMAP
F8
88
88
88
F8
80
80
ENDCHAR
STARTCHAR Q
ENCODING 81
SWIDTH 375 0
DWIDTH 6 0
BBX 5 8 0 -1
BITMAP
F8
88
88
88
A8
A8
F8
20
ENDCHAR
STARTCHAR R
ENCODING 82
SWIDTH 375 0
DWIDTH 6 0
BBX 5 7 0 0
BITMAP
F8
88
88
88
F8
A0
B0
ENDCHAR
STARTCHAR S
ENCODING 83
SWIDTH 375 0
DWIDTH 6 0
BBX 5 7 0 0
BITMAP
F8
80
80
F8
08
08
F8
ENDCHAR
STARTCHAR T
ENCODING 84
SWIDTH 375 0
DWIDTH 6 0
BBX 5 7 0 0
BITMAP
F8
20
20
20
20
20
20
ENDCHAR
STARTCHAR U
ENCODING 85
SWIDTH 375 0
DWIDTH 6 0
BBX 5 7 0 0
BITMAP
88
88
88
88
88
88
F8
ENDCHAR
STARTCHAR V
ENCODING 86
SWIDTH 375 0
DWIDTH 6 0
BBX 5 7 0 0
BITMAP
88
88
88
D8
50
50
70
ENDCHAR
STARTCHAR W
ENCODING 87
SWIDTH 375 0
DWIDTH 6 0
BBX 5 7 0 0
BITMAP
88
88
88
A8
A8
A8
F8
ENDCHAR
STARTCHAR X
ENCODING 88
SWIDTH 375 0
DWIDTH 6 0
BBX 5 7 0 0
BITMAP
88
88
F8
20
F8
88
88
ENDCHAR
STARTCHAR Y
ENCODING 89
SWIDTH 375 0
DWIDTH 6 0
BBX 5 7 0 0
BITMAP
88
88
88
F8
20
20
20
ENDCHAR
STARTCHAR Z
ENCODING 90
SWIDTH 375 0
DWIDTH 6 0
BBX 5 7 0 0
BITMAP
F8
08
28
F8
A0
80
F8
ENDCHAR
STARTCHAR bracketleft
ENCODING 91
SWIDTH 375 0
DWIDTH 6 0
BBX 3 9 1 -2
BITMAP
E0
80
80
80
80
80
80
80
E0
ENDCHAR
STARTCHAR backslash
ENCODING 92
SWIDTH 375 0
DWIDTH 6 0
BBX 3 7 1 0
BITMAP
80
80
80
E0
20
20
20
ENDCHAR
STARTCHAR bracketright
ENCODING 93
SWIDTH 375 0
DWIDTH 6 0
BBX 3 9 2 -2
BITMAP
E0
20
20
20
20
20
20
20
E0
ENDCHAR
STARTCHAR asciicircum
ENCODING 94
SWIDTH 375 0
DWIDTH 6 0
BBX 3 2 1 5
BITMAP
E0
A0
ENDCHAR
STARTCHAR underscore
ENCODING 95
SWIDTH 375 0
DWIDTH 6 0
BBX 5 1 0 -1
BITMAP
F8
ENDCHAR
STARTCHAR grave
ENCODING 96
SWIDTH 375 0
DWIDTH 6 0
BBX 3 2 1 6
BITMAP
E0
20
ENDCHAR
STARTCHAR a
ENCODING 97
SWIDTH 375 0
DWIDTH 6 0
BBX 5 5 0 0
BITMAP
F8
08
F8
88
F8
ENDCHAR
STARTCHAR b
ENCODING 98
SWIDTH 375 0
DWIDTH 6 0
BBX 5 7 0 0
BITMAP
80
80
F8
88
88
88
F8
ENDCHAR
STARTCHAR c
ENCODING 99
SWIDTH 375 0
DWIDTH 6 0
BBX 5 5 0 0
BITMAP
F8
80
80
80
F8
ENDCHAR
STARTCHAR d
ENCODING 100
SWIDTH 375 0
DWIDTH 6 0
BBX 5 7 0 0
BITMAP
08
08
F8
88
88
88
F8
ENDCHAR
STARTCHAR e
ENCODING 101
SWIDTH 375 0
DWIDTH 6 0
BBX 5 5 0 0
BITMAP
F8
88
F8
80
F8
ENDCHAR
STARTCHAR f
ENCODING 102
SWIDTH 375 0
DWIDTH 6 0
BBX 5 7 0 0
BITMAP
78
40
40
E0
40
40
40
ENDCHAR
STARTCHAR g
ENCODING 103
SWIDTH 375 0
DWIDTH 6 0
BBX 5 7 0 -2
BITMAP
F8
88
88
88
F8
08
F8
ENDCHAR
STARTCHAR h
ENCODING 104
SWIDTH 375 0
DWIDTH 6 0
BBX 5 7 0 0
BITMAP
80
80
F8
88
88
88
88
ENDCHAR
STARTCHAR i
ENCODING 105
SWIDTH 375 0
DWIDTH 6 0
BBX 3 7 1 0
BITMAP
40
00
40
40
40
40
E0
ENDCHAR
STARTCHAR j
ENCODING 106
SWIDTH 375 0
DWIDTH 6 0
BBX 3 9 0 -2
BITMAP
20
00
20
20
20
20
A0
A0
E0
ENDCHAR
STARTCHAR k
ENCODING 107
SWIDTH 375 0
DWIDTH 6 0
BBX 5 7 0 0
BITMAP
80
80
98
90
F8
88
88
ENDCHAR
STARTCHAR l
ENCODING 108
SWIDTH 375 0
DWIDTH 6 0
BBX 1 7 2 0
BITMAP
80
80
80
80
80
80
80
ENDCHAR
STARTCHAR m
ENCODING 109
SWIDTH 375 0
DWIDTH 6 0
BBX 5 5 0 0
BITMAP
F8
A8
A8
A8
88
ENDCHAR
STARTCHAR n
ENCODING 110
SWIDTH 375 0
DWIDTH 6 0
BBX 5 5 0 0
BITMAP
F8
88
88
88
88
ENDCHAR
STARTCHAR o
ENCODING 111
SWIDTH 375 0
DWIDTH 6 0
BBX 5 5 0 0
BITMAP
F8
88
88
88
F8
ENDCHAR
STARTCHAR p
ENCODING 112
SWIDTH 375 0
DWIDTH 6 0
BBX 5 7 0 -2
BITMAP
F8
88
88
88
F8
80
80
ENDCHAR
STARTCHAR q
ENCODING 113
SWIDTH 375 0
DWIDTH 6 0
BBX 5 7 0 -2
BITMAP
F8
88
88
88
F8
08
08
ENDCHAR
STARTCHAR r
ENCODING 114
SWIDTH 375 0
DWIDTH 6 0
BBX 5 5 0 0
BITMAP
F8
80
80
80
80
ENDCHAR
STARTCHAR s
ENCODING 115
SWIDTH 375 0
DWIDTH 6 0
BBX 5 5 0 0
BITMAP
F8
80
F8
08
F8
ENDCHAR
STARTCHAR t
ENCODING 116
SWIDTH 375 0
DWIDTH 6 0
BBX 5 7 0 0
BITMAP
20
20
F8
20
20
20
38
ENDCHAR
STARTCHAR u
ENCODING 117
SWIDTH 375 0
DWIDTH 6 0
BBX 5 5 0 0
BITMAP
88
88
88
88
F8
ENDCHAR
STARTCHAR v
ENCODING 118
SWIDTH 375 0
DWIDTH 6 0
BBX 5 5 0 0
BITMAP
88
88
D8
50
70
ENDCHAR
STARTCHAR w
ENCODING 119
SWIDTH 375 0
DWIDTH 6 0
BBX 5 5 0 0
BITMAP
88
A8
A8
A8
F8
ENDCHAR
STARTCHAR x
ENCODING 120
SWIDTH 375 0
DWIDTH 6 0
BBX 5 5 0 0
BITMAP
88
F8
20
F8
88
ENDCHAR
STARTCHAR y
ENCODING 121
SWIDTH 375 0
DWIDTH 6 0
BBX 5 7 0 -2
BITMAP
88
88
88
88
F8
08
F8
ENDCHAR
STARTCHAR z
ENCODING 122
SWIDTH 375 0
DWIDTH 6 0
BBX 5 5 0 0
BITMAP
F8
08
F8
80
F8
ENDCHAR
STARTCHAR braceleft
ENCODING 123
SWIDTH 375 0
DWIDTH 6 0
BBX 3 9 1 -2
BITMAP
E0
80
C0
40
C0
40
C0
80
E0
ENDCHAR
STARTCHAR verticalbar
ENCODING 124
SWIDTH 375 0
DWIDTH 6 0
BBX 1 9 2 -1
BITMAP
80
80
80
80
80
80
80
80
80
ENDCHAR
STARTCHAR braceright
ENCODING 125
SWIDTH 375 0
DWIDTH 6 0
BBX 3 9 1 -2
BITMAP
E0
20
60
40
60
40
60
20
E0
ENDCHAR
STARTCHAR asciitilde
ENCODING 126
SWIDTH 375 0
DWIDTH 6 0
BBX 5 2 0 1
BITMAP
E8
B8
ENDCHAR
STARTCHAR exclamdown
ENCODING 161
SWIDTH 375 0
DWIDTH 6 0
BBX 1 7 2 -2
BITMAP
80
00
80
80
80
80
80
ENDCHAR
STARTCHAR cent
ENCODING 162
SWIDTH 375 0
DWIDTH 6 0
BBX 5 7 0 -1
BITMAP
20
F8
A0
A0
A0
F8
20
ENDCHAR
STARTCHAR sterling
ENCODING 163
SWIDTH 375 0
DWIDTH 6 0
BBX 5 7 0 0
BITMAP
78
48
48
E0
40
40
F8
ENDCHAR
STARTCHAR currency
ENCODING 164
SWIDTH 375 0
DWIDTH 6 0
BBX 5 5 0 0
BITMAP
88
70
50
70
88
ENDCHAR
STARTCHAR yen
ENCODING 165
SWIDTH 375 0
DWIDTH 6 0
BBX 5 7 0 0
BITMAP
50
50
F8
50
F8
20
20
ENDCHAR
STARTCHAR brokenbar
ENCODING 166
SWIDTH 375 0
DWIDTH 6 0
BBX 1 9 2 -1
BITMAP
80
80
80
80
00
80
80
80
80
ENDCHAR
STARTCHAR section
ENCODING 167
SWIDTH 375 0
DWIDTH 6 0
BBX 5 7 0 0
BITMAP
F8
80
F8
88
F8
08
F8
ENDCHAR
STARTCHAR dieresis
ENCODING 168
SWIDTH 375 0
DWIDTH 6 0
BBX 3 1 1 6
BITMAP
A0
ENDCHAR
STARTCHAR copyright
ENCODING 169
SWIDTH 375 0
DWIDTH 6 0
BBX 6 7 -1 0
BITMAP
FC
84
B4
A4
B4
84
FC
ENDCHAR
STARTCHAR ordfeminine
ENCODING 170
SWIDTH 375 0
DWIDTH 6 0
BBX 3 5 1 1
BITMAP
E0
20
E0
A0
E0
ENDCHAR
STARTCHAR guillemotleft
ENCODING 171
SWIDTH 375 0
DWIDTH 6 0
BBX 5 5 0 0
BITMAP
18
D0
90
D0
18
ENDCHAR
STARTCHAR logicalnot
ENCODING 172
SWIDTH 375 0
DWIDTH 6 0
BBX 5 3 0 2
BITMAP
F8
08
08
ENDCHAR
STARTCHAR registered
ENCODING 174
SWIDTH 375 0
DWIDTH 6 0
BBX 6 7 -1 0
BITMAP
FC
84
B4
A4
A4
84
FC
ENDCHAR
STARTCHAR macron
ENCODING 175
SWIDTH 375 0
DWIDTH 6 0
BBX 3 1 1 6
BITMAP
E0
ENDCHAR
STARTCHAR degree
ENCODING 176
SWIDTH 375 0
DWIDTH 6 0
BBX 3 3 1 3
BITMAP
E0
A0
E0
ENDCHAR
STARTCHAR plusminus
ENCODING 177
SWIDTH 375 0
DWIDTH 6 0
BBX 5 5 0 0
BITMAP
20
20
F8
20
F8
ENDCHAR
STARTCHAR twosuperior
ENCODING 178
SWIDTH 375 0
DWIDTH 6 0
BBX 3 5 1 3
BITMAP
E0
20
E0
80
E0
ENDCHAR
STARTCHAR threesuperior
ENCODING 179
SWIDTH 375 0
DWIDTH 6 0
BBX 3 5 1 3
BITMAP
E0
20
E0
20
E0
ENDCHAR
STARTCHAR acute
ENCODING 180
SWIDTH 375 0
DWIDTH 6 0
BBX 3 2 1 5
BITMAP
E0
80
ENDCHAR
STARTCHAR mu1
ENCODING 181
SWIDTH 375 0
DWIDTH 6 0
BBX 4 7 0 -2
BITMAP
90
90
90
90
F0
80
80
ENDCHAR
STARTCHAR paragraph
ENCODING 182
SWIDTH 375 0
DWIDTH 6 0
BBX 5 8 0 -2
BITMAP
F8
E8
E8
E8
28
28
28
38
ENDCHAR
STARTCHAR middot
ENCODING 183
SWIDTH 375 0
DWIDTH 6 0
BBX 1 1 2 2
BITMAP
80
ENDCHAR
STARTCHAR cedilla
ENCODING 184
SWIDTH 375 0
DWIDTH 6 0
BBX 2 3 2 -3
BITMAP
80
C0
C0
ENDCHAR
STARTCHAR onesuperior
ENCODING 185
SWIDTH 375 0
DWIDTH 6 0
BBX 2 4 1 3
BITMAP
C0
40
40
40
ENDCHAR
STARTCHAR ordmasculine
ENCODING 186
SWIDTH 375 0
DWIDTH 6 0
BBX 3 5 1 1
BITMAP
E0
A0
E0
00
E0
ENDCHAR
STARTCHAR guillemotright
ENCODING 187
SWIDTH 375 0
DWIDTH 6 0
BBX 5 5 0 0
BITMAP
C0
58
48
58
C0
ENDCHAR
STARTCHAR onequarter
ENCODING 188
SWIDTH 375 0
DWIDTH 6 0
BBX 5 10 0 -2
BITMAP
20
20
20
00
F8
00
50
50
70
10
ENDCHAR
STARTCHAR onehalf
ENCODING 189
SWIDTH 375 0
DWIDTH 6 0
BBX 5 11 0 -3
BITMAP
20
20
20
00
F8
00
70
10
70
40
70
ENDCHAR
STARTCHAR questiondown
ENCODING 191
SWIDTH 375 0
DWIDTH 6 0
BBX 5 7 0 -2
BITMAP
20
00
20
E0
80
80
F8
ENDCHAR
STARTCHAR Agrave
ENCODING 192
SWIDTH 375 0
DWIDTH 6 0
BBX 5 9 0 0
BITMAP
70
10
00
F8
88
88
88
F8
88
ENDCHAR
STARTCHAR Aacute
ENCODING 193
SWIDTH 375 0
DWIDTH 6 0
BBX 5 9 0 0
BITMAP
70
40
00
F8
88
88
88
F8
88
ENDCHAR
STARTCHAR Acircumflex
ENCODING 194
SWIDTH 375 0
DWIDTH 6 0
BBX 5 9 0 0
BITMAP
70
50
00
F8
88
88
88
F8
88
ENDCHAR
STARTCHAR Atilde
ENCODING 195
SWIDTH 375 0
DWIDTH 6 0
BBX 5 9 0 0
BITMAP
E8
B8
00
F8
88
88
88
F8
88
ENDCHAR
STARTCHAR Adieresis
ENCODING 196
SWIDTH 375 0
DWIDTH 6 0
BBX 5 9 0 0
BITMAP
50
00
F8
88
88
88
F8
88
88
ENDCHAR
STARTCHAR Aring
ENCODING 197
SWIDTH 375 0
DWIDTH 6 0
BBX 5 9 0 0
BITMAP
20
00
F8
88
88
88
F8
88
88
ENDCHAR
STARTCHAR AE
ENCODING 198
SWIDTH 375 0
DWIDTH 6 0
BBX 5 7 0 0
BITMAP
F8
A0
A0
F8
A0
A0
B8
ENDCHAR
STARTCHAR Ccedilla
ENCODING 199
SWIDTH 375 0
DWIDTH 6 0
BBX 5 9 0 -2
BITMAP
F8
80
80
80
80
80
F8
20
60
ENDCHAR
STARTCHAR Egrave
ENCODING 200
SWIDTH 375 0
DWIDTH 6 0
BBX 5 9 0 0
BITMAP
70
10
00
F8
80
F8
80
80
F8
ENDCHAR
STARTCHAR Eacute
ENCODING 201
SWIDTH 375 0
DWIDTH 6 0
BBX 5 9 0 0
BITMAP
70
40
00
F8
80
F8
80
80
F8
ENDCHAR
STARTCHAR Ecircumflex
ENCODING 202
SWIDTH 375 0
DWIDTH 6 0
BBX 5 9 0 0
BITMAP
70
50
00
F8
80
F8
80
80
F8
ENDCHAR
STARTCHAR Edieresis
ENCODING 203
SWIDTH 375 0
DWIDTH 6 0
BBX 5 9 0 0
BITMAP
50
00
F8
80
80
F8
80
80
F8
ENDCHAR
STARTCHAR Igrave
ENCODING 204
SWIDTH 375 0
DWIDTH 6 0
BBX 4 9 0 0
BITMAP
E0
20
00
70
20
20
20
20
70
ENDCHAR
STARTCHAR Iacute
ENCODING 205
SWIDTH 375 0
DWIDTH 6 0
BBX 4 9 1 0
BITMAP
70
40
00
E0
40
40
40
40
E0
ENDCHAR
STARTCHAR Icircumflex
ENCODING 206
SWIDTH 375 0
DWIDTH 6 0
BBX 3 9 1 0
BITMAP
E0
A0
00
E0
40
40
40
40
E0
ENDCHAR
STARTCHAR Idieresis
ENCODING 207
SWIDTH 375 0
DWIDTH 6 0
BBX 3 9 1 0
BITMAP
A0
00
E0
40
40
40
40
40
E0
ENDCHAR
STARTCHAR Eth
ENCODING 208
SWIDTH 375 0
DWIDTH 6 0
BBX 6 7 -1 0
BITMAP
70
5C
44
E4
44
5C
70
ENDCHAR
STARTCHAR Ntilde
ENCODING 209
SWIDTH 375 0
DWIDTH 6 0
BBX 5 9 0 0
BITMAP
E8
B8
00
E8
A8
A8
A8
A8
B8
ENDCHAR
STARTCHAR Ograve
ENCODING 210
SWIDTH 375 0
DWIDTH 6 0
BBX 5 9 0 0
BITMAP
70
10
00
F8
88
88
88
88
F8
ENDCHAR
STARTCHAR Oacute
ENCODING 211
SWIDTH 375 0
DWIDTH 6 0
BBX 5 9 0 0
BITMAP
70
40
00
F8
88
88
88
88
F8
ENDCHAR
STARTCHAR Ocircumflex
ENCODING 212
SWIDTH 375 0
DWIDTH 6 0
BBX 5 9 0 0
BITMAP
70
50
00
F8
88
88
88
88
F8
ENDCHAR
STARTCHAR Otilde
ENCODING 213
SWIDTH 375 0
DWIDTH 6 0
BBX 5 9 0 0
BITMAP
E8
B8
00
F8
88
88
88
88
F8
ENDCHAR
STARTCHAR Odieresis
ENCODING 214
SWIDTH 375 0
DWIDTH 6 0
BBX 5 9 0 0
BITMAP
50
00
F8
88
88
88
88
88
F8
ENDCHAR
STARTCHAR multiply
ENCODING 215
SWIDTH 375 0
DWIDTH 6 0
BBX 5 5 0 0
BITMAP
88
D8
70
D8
88
ENDCHAR
STARTCHAR Oslash
ENCODING 216
SWIDTH 375 0
DWIDTH 6 0
BBX 7 7 -1 0
BITMAP
7C
44
5E
54
F4
44
7C
ENDCHAR
STARTCHAR Ugrave
ENCODING 217
SWIDTH 375 0
DWIDTH 6 0
BBX 5 9 0 0
BITMAP
70
10
00
88
88
88
88
88
F8
ENDCHAR
STARTCHAR Uacute
ENCODING 218
SWIDTH 375 0
DWIDTH 6 0
BBX 5 9 0 0
BITMAP
70
40
00
88
88
88
88
88
F8
ENDCHAR
STARTCHAR Ucircumflex
ENCODING 219
SWIDTH 375 0
DWIDTH 6 0
BBX 5 9 0 0
BITMAP
70
50
00
88
88
88
88
88
F8
ENDCHAR
STARTCHAR Udieresis
ENCODING 220
SWIDTH 375 0
DWIDTH 6 0
BBX 5 9 0 0
BITMAP
50
00
88
88
88
88
88
88
F8
ENDCHAR
STARTCHAR Yacute
ENCODING 221
SWIDTH 375 0
DWIDTH 6 0
BBX 5 9 0 0
BITMAP
70
40
00
88
88
88
F8
20
20
ENDCHAR
STARTCHAR Thorn
ENCODING 222
SWIDTH 375 0
DWIDTH 6 0
BBX 5 9 0 -2
BITMAP
80
80
F8
88
88
88
F8
80
80
ENDCHAR
STARTCHAR germandbls
ENCODING 223
SWIDTH 375 0
DWIDTH 6 0
BBX 5 8 0 -1
BITMAP
E0
A0
B8
88
88
88
B8
80
ENDCHAR
STARTCHAR agrave
ENCODING 224
SWIDTH 375 0
DWIDTH 6 0
BBX 5 8 0 0
BITMAP
70
10
00
F8
08
F8
88
F8
ENDCHAR
STARTCHAR aacute
ENCODING 225
SWIDTH 375 0
DWIDTH 6 0
BBX 5 8 0 0
BITMAP
70
40
00
F8
08
F8
88
F8
ENDCHAR
STARTCHAR acircumflex
ENCODING 226
SWIDTH 375 0
DWIDTH 6 0
BBX 5 8 0 0
BITMAP
70
50
00
F8
08
F8
88
F8
ENDCHAR
STARTCHAR atilde
ENCODING 227
SWIDTH 375 0
DWIDTH 6 0
BBX 5 8 0 0
BITMAP
E8
B8
00
F8
08
F8
88
F8
ENDCHAR
STARTCHAR adieresis
ENCODING 228
SWIDTH 375 0
DWIDTH 6 0
BBX 5 7 0 0
BITMAP
50
00
F8
08
F8
88
F8
ENDCHAR
STARTCHAR aring
ENCODING 229
SWIDTH 375 0
DWIDTH 6 0
BBX 5 7 0 0
BITMAP
20
00
F8
08
F8
88
F8
ENDCHAR
STARTCHAR ae
ENCODING 230
SWIDTH 375 0
DWIDTH 6 0
BBX 5 5 0 0
BITMAP
F8
28
F8
A0
F8
ENDCHAR
STARTCHAR ccedilla
ENCODING 231
SWIDTH 375 0
DWIDTH 6 0
BBX 5 7 0 -2
BITMAP
F8
80
80
80
F8
20
60
ENDCHAR
STARTCHAR egrave
ENCODING 232
SWIDTH 375 0
DWIDTH 6 0
BBX 5 8 0 0
BITMAP
70
10
00
F8
88
F8
80
F8
ENDCHAR
STARTCHAR eacute
ENCODING 233
SWIDTH 375 0
DWIDTH 6 0
BBX 5 8 0 0
BITMAP
70
40
00
F8
88
F8
80
F8
ENDCHAR
STARTCHAR ecircumflex
ENCODING 234
SWIDTH 375 0
DWIDTH 6 0
BBX 5 8 0 0
BITMAP
70
50
00
F8
88
F8
80
F8
ENDCHAR
STARTCHAR edieresis
ENCODING 235
SWIDTH 375 0
DWIDTH 6 0
BBX 5 7 0 0
BITMAP
50
00
F8
88
F8
80
F8
ENDCHAR
STARTCHAR igrave
ENCODING 236
SWIDTH 375 0
DWIDTH 6 0
BBX 4 8 0 0
BITMAP
E0
20
00
20
20
20
20
70
ENDCHAR
STARTCHAR iacute
ENCODING 237
SWIDTH 375 0
DWIDTH 6 0
BBX 4 8 1 0
BITMAP
70
40
00
40
40
40
40
E0
ENDCHAR
STARTCHAR icircumflex
ENCODING 238
SWIDTH 375 0
DWIDTH 6 0
BBX 3 8 1 0
BITMAP
E0
A0
00
40
40
40
40
E0
ENDCHAR
STARTCHAR idieresis
ENCODING 239
SWIDTH 375 0
DWIDTH 6 0
BBX 3 7 1 0
BITMAP
A0
00
40
40
40
40
E0
ENDCHAR
STARTCHAR eth
ENCODING 240
SWIDTH 375 0
DWIDTH 6 0
BBX 5 7 0 0
BITMAP
78
08
F8
88
88
88
F8
ENDCHAR
STARTCHAR ntilde
ENCODING 241
SWIDTH 375 0
DWIDTH 6 0
BBX 5 8 0 0
BITMAP
E8
B8
00
F8
88
88
88
88
ENDCHAR
STARTCHAR ograve
ENCODING 242
SWIDTH 375 0
DWIDTH 6 0
BBX 5 8 0 0
BITMAP
70
10
00
F8
88
88
88
F8
ENDCHAR
STARTCHAR oacute
ENCODING 243
SWIDTH 375 0
DWIDTH 6 0
BBX 5 8 0 0
BITMAP
70
10
00
F8
88
88
88
F8
ENDCHAR
STARTCHAR ocircumflex
ENCODING 244
SWIDTH 375 0
DWIDTH 6 0
BBX 5 8 0 0
BITMAP
70
50
00
F8
88
88
88
F8
ENDCHAR
STARTCHAR otilde
ENCODING 245
SWIDTH 375 0
DWIDTH 6 0
BBX 5 8 0 0
BITMAP
E8
B8
00
F8
88
88
88
F8
ENDCHAR
STARTCHAR odieresis
ENCODING 246
SWIDTH 375 0
DWIDTH 6 0
BBX 5 7 0 0
BITMAP
50
00
F8
88
88
88
F8
ENDCHAR
STARTCHAR divide
ENCODING 247
SWIDTH 375 0
DWIDTH 6 0
BBX 5 5 0 0
BITMAP
20
00
F8
00
20
ENDCHAR
STARTCHAR oslash
ENCODING 248
SWIDTH 375 0
DWIDTH 6 0
BBX 5 9 0 -2
BITMAP
10
10
F8
A8
A8
A8
F8
40
40
ENDCHAR
STARTCHAR ugrave
ENCODING 249
SWIDTH 375 0
DWIDTH 6 0
BBX 5 8 0 0
BITMAP
70
10
00
88
88
88
88
F8
ENDCHAR
STARTCHAR uacute
ENCODING 250
SWIDTH 375 0
DWIDTH 6 0
BBX 5 8 0 0
BITMAP
70
40
00
88
88
88
88
F8
ENDCHAR
STARTCHAR ucircumflex
ENCODING 251
SWIDTH 375 0
DWIDTH 6 0
BBX 5 8 0 0
BITMAP
70
50
00
88
88
88
88
F8
ENDCHAR
STARTCHAR udieresis
ENCODING 252
SWIDTH 375 0
DWIDTH 6 0
BBX 5 7 0 0
BITMAP
50
00
88
88
88
88
F8
ENDCHAR
STARTCHAR yacute
ENCODING 253
SWIDTH 375 0
DWIDTH 6 0
BBX 5 10 0 -2
BITMAP
70
40
00
88
88
88
88
F8
08
F8
ENDCHAR
STARTCHAR thorn
ENCODING 254
SWIDTH 375 0
DWIDTH 6 0
BBX 4 8 0 -2
BITMAP
80
80
F0
90
90
F0
80
80
ENDCHAR
STARTCHAR ydieresis
ENCODING 255
SWIDTH 375 0
DWIDTH 6 0
BBX 5 9 0 -2
BITMAP
50
00
88
88
88
88
F8
08
F8
ENDCHAR
STARTCHAR char256
ENCODING 256
SWIDTH 375 0
DWIDTH 6 0
BBX 5 9 0 0
BITMAP
70
00
F8
88
88
88
F8
88
88
ENDCHAR
STARTCHAR char257
ENCODING 257
SWIDTH 375 0
DWIDTH 6 0
BBX 5 7 0 0
BITMAP
70
00
F8
08
F8
88
F8
ENDCHAR
STARTCHAR char258
ENCODING 258
SWIDTH 375 0
DWIDTH 6 0
BBX 5 9 0 0
BITMAP
50
70
00
F8
88
88
88
F8
88
ENDCHAR
STARTCHAR char259
ENCODING 259
SWIDTH 375 0
DWIDTH 6 0
BBX 5 8 0 0
BITMAP
50
70
00
F8
08
F8
88
F8
ENDCHAR
STARTCHAR char260
ENCODING 260
SWIDTH 375 0
DWIDTH 6 0
BBX 5 9 0 -2
BITMAP
F8
88
88
88
F8
88
98
10
18
ENDCHAR
STARTCHAR char261
ENCODING 261
SWIDTH 375 0
DWIDTH 6 0
BBX 5 7 0 -2
BITMAP
F8
08
F8
88
F8
10
18
ENDCHAR
STARTCHAR char262
ENCODING 262
SWIDTH 375 0
DWIDTH 6 0
BBX 5 9 0 0
BITMAP
70
40
00
F8
80
80
80
80
F8
ENDCHAR
STARTCHAR char263
ENCODING 263
SWIDTH 375 0
DWIDTH 6 0
BBX 5 8 0 0
BITMAP
70
40
00
F8
80
80
80
F8
ENDCHAR
STARTCHAR char264
ENCODING 264
SWIDTH 375 0
DWIDTH 6 0
BBX 5 9 0 0
BITMAP
70
50
00
F8
80
80
80
80
F8
ENDCHAR
STARTCHAR char265
ENCODING 265
SWIDTH 375 0
DWIDTH 6 0
BBX 5 8 0 0
BITMAP
70
50
00
F8
80
80
80
F8
ENDCHAR
STARTCHAR char266
ENCODING 266
SWIDTH 375 0
DWIDTH 6 0
BBX 5 9 0 0
BITMAP
70
10
00
F8
80
80
80
80
F8
ENDCHAR
STARTCHAR char267
ENCODING 267
SWIDTH 375 0
DWIDTH 6 0
BBX 5 8 0 0
BITMAP
70
10
00
F8
80
80
80
F8
ENDCHAR
STARTCHAR char268
ENCODING 268
SWIDTH 375 0
DWIDTH 6 0
BBX 5 9 0 0
BITMAP
50
70
00
F8
80
80
80
80
F8
ENDCHAR
STARTCHAR char269
ENCODING 269
SWIDTH 375 0
DWIDTH 6 0
BBX 5 8 0 0
BITMAP
50
70
00
F8
80
80
80
F8
ENDCHAR
STARTCHAR char270
ENCODING 270
SWIDTH 375 0
DWIDTH 6 0
BBX 5 9 0 0
BITMAP
50
70
00
E0
B8
88
88
B8
E0
ENDCHAR
STARTCHAR char271
ENCODING 271
SWIDTH 375 0
DWIDTH 6 0
BBX 5 8 0 0
BITMAP
28
28
20
E0
A0
A0
A0
E0
ENDCHAR
STARTCHAR char272
ENCODING 272
SWIDTH 375 0
DWIDTH 6 0
BBX 6 7 -1 0
BITMAP
78
4C
44
F4
44
4C
78
ENDCHAR
STARTCHAR char273
ENCODING 273
SWIDTH 375 0
DWIDTH 6 0
BBX 5 7 0 0
BITMAP
10
38
10
F0
90
90
F0
ENDCHAR
STARTCHAR char274
ENCODING 274
SWIDTH 375 0
DWIDTH 6 0
BBX 5 9 0 0
BITMAP
70
00
F8
80
80
F8
80
80
F8
ENDCHAR
STARTCHAR char275
ENCODING 275
SWIDTH 375 0
DWIDTH 6 0
BBX 5 7 0 0
BITMAP
70
00
F8
88
F8
80
F8
ENDCHAR
STARTCHAR char276
ENCODING 276
SWIDTH 375 0
DWIDTH 6 0
BBX 5 9 0 0
BITMAP
50
70
00
F8
80
F8
80
80
F8
ENDCHAR
STARTCHAR char277
ENCODING 277
SWIDTH 375 0
DWIDTH 6 0
BBX 5 8 0 0
BITMAP
50
70
00
F8
88
F8
80
F8
ENDCHAR
STARTCHAR char278
ENCODING 278
SWIDTH 375 0
DWIDTH 6 0
BBX 5 9 0 0
BITMAP
20
00
F8
80
80
F8
80
80
F8
ENDCHAR
STARTCHAR char279
ENCODING 279
SWIDTH 375 0
DWIDTH 6 0
BBX 5 7 0 0
BITMAP
20
00
F8
88
F8
80
F8
ENDCHAR
STARTCHAR char280
ENCODING 280
SWIDTH 375 0
DWIDTH 6 0
BBX 5 9 0 -2
BITMAP
F8
80
80
F8
80
80
F8
20
30
ENDCHAR
STARTCHAR char281
ENCODING 281
SWIDTH 375 0
DWIDTH 6 0
BBX 5 7 0 -2
BITMAP
F8
88
F8
80
F8
20
30
ENDCHAR
STARTCHAR char282
ENCODING 282
SWIDTH 375 0
DWIDTH 6 0
BBX 5 9 0 0
BITMAP
D8
70
00
F8
80
F8
80
80
F8
ENDCHAR
STARTCHAR char283
ENCODING 283
SWIDTH 375 0
DWIDTH 6 0
BBX 5 8 0 0
BITMAP
D8
70
00
F8
88
F8
80
F8
ENDCHAR
STARTCHAR char284
ENCODING 284
SWIDTH 375 0
DWIDTH 6 0
BBX 5 9 0 0
BITMAP
70
50
00
F8
80
80
B8
88
F8
ENDCHAR
STARTCHAR char285
ENCODING 285
SWIDTH 375 0
DWIDTH 6 0
BBX 5 10 0 -2
BITMAP
70
50
00
F8
88
88
88
F8
08
F8
ENDCHAR
STARTCHAR char286
ENCODING 286
SWIDTH 375 0
DWIDTH 6 0
BBX 5 9 0 0
BITMAP
50
70
00
F8
80
80
B8
88
F8
ENDCHAR
STARTCHAR char287
ENCODING 287
SWIDTH 375 0
DWIDTH 6 0
BBX 5 10 0 -2
BITMAP
50
70
00
F8
88
88
88
F8
08
F8
ENDCHAR
STARTCHAR char288
ENCODING 288
SWIDTH 375 0
DWIDTH 6 0
BBX 5 9 0 0
BITMAP
20
00
F8
80
80
B8
88
88
F8
ENDCHAR
STARTCHAR char289
ENCODING 289
SWIDTH 375 0
DWIDTH 6 0
BBX 5 9 0 -2
BITMAP
20
00
F8
88
88
88
F8
08
F8
ENDCHAR
STARTCHAR char290
ENCODING 290
SWIDTH 375 0
DWIDTH 6 0
BBX 5 9 0 -2
BITMAP
F8
80
80
B8
88
88
F8
00
60
ENDCHAR
STARTCHAR char291
ENCODING 291
SWIDTH 375 0
DWIDTH 6 0
BBX 5 10 0 -2
BITMAP
30
20
00
F8
88
88
88
F8
08
F8
ENDCHAR
STARTCHAR char292
ENCODING 292
SWIDTH 375 0
DWIDTH 6 0
BBX 5 9 0 0
BITMAP
70
50
00
88
88
F8
88
88
88
ENDCHAR
STARTCHAR char293
ENCODING 293
SWIDTH 375 0
DWIDTH 6 0
BBX 5 9 0 0
BITMAP
70
50
00
80
80
F8
88
88
88
ENDCHAR
STARTCHAR char294
ENCODING 294
SWIDTH 375 0
DWIDTH 6 0
BBX 6 7 -1 0
BITMAP
48
48
FC
48
78
48
48
ENDCHAR
STARTCHAR char295
ENCODING 295
SWIDTH 375 0
DWIDTH 6 0
BBX 5 7 0 0
BITMAP
40
E0
40
78
48
48
48
ENDCHAR
STARTCHAR char296
ENCODING 296
SWIDTH 375 0
DWIDTH 6 0
BBX 5 9 0 0
BITMAP
E8
B8
00
70
20
20
20
20
70
ENDCHAR
STARTCHAR char297
ENCODING 297
SWIDTH 375 0
DWIDTH 6 0
BBX 5 8 0 0
BITMAP
E8
B8
00
20
20
20
20
70
ENDCHAR
STARTCHAR char298
ENCODING 298
SWIDTH 375 0
DWIDTH 6 0
BBX 4 9 0 0
BITMAP
70
00
70
20
20
20
20
20
70
ENDCHAR
STARTCHAR char299
ENCODING 299
SWIDTH 375 0
DWIDTH 6 0
BBX 3 7 1 0
BITMAP
E0
00
40
40
40
40
E0
ENDCHAR
STARTCHAR char300
ENCODING 300
SWIDTH 375 0
DWIDTH 6 0
BBX 3 9 1 0
BITMAP
A0
E0
00
E0
40
40
40
40
E0
ENDCHAR
STARTCHAR char301
ENCODING 301
SWIDTH 375 0
DWIDTH 6 0
BBX 3 8 1 0
BITMAP
A0
E0
00
40
40
40
40
E0
ENDCHAR
STARTCHAR char302
ENCODING 302
SWIDTH 375 0
DWIDTH 6 0
BBX 4 9 0 -2
BITMAP
70
20
20
20
20
20
70
20
30
ENDCHAR
STARTCHAR char303
ENCODING 303
SWIDTH 375 0
DWIDTH 6 0
BBX 4 9 0 -2
BITMAP
20
00
20
20
20
20
70
20
30
ENDCHAR
STARTCHAR char304
ENCODING 304
SWIDTH 375 0
DWIDTH 6 0
BBX 4 8 1 0
BITMAP
40
00
E0
40
40
40
40
E0
ENDCHAR
STARTCHAR char305
ENCODING 305
SWIDTH 375 0
DWIDTH 6 0
BBX 4 5 0 0
BITMAP
20
20
20
20
70
ENDCHAR
STARTCHAR char306
ENCODING 306
SWIDTH 375 0
DWIDTH 6 0
BBX 5 8 0 -2
BITMAP
28
28
28
28
28
A8
88
F8
ENDCHAR
STARTCHAR char307
ENCODING 307
SWIDTH 375 0
DWIDTH 6 0
BBX 5 8 0 -2
BITMAP
28
00
28
28
28
A8
88
F8
ENDCHAR
STARTCHAR char308
ENCODING 308
SWIDTH 375 0
DWIDTH 6 0
BBX 5 9 0 0
BITMAP
38
28
00
10
10
10
10
90
F0
ENDCHAR
STARTCHAR char309
ENCODING 309
SWIDTH 375 0
DWIDTH 6 0
BBX 4 10 0 -2
BITMAP
70
50
00
20
20
20
20
20
A0
E0
ENDCHAR
STARTCHAR char310
ENCODING 310
SWIDTH 375 0
DWIDTH 6 0
BBX 5 9 0 -2
BITMAP
90
90
90
F8
88
88
88
20
60
ENDCHAR
STARTCHAR char311
ENCODING 311
SWIDTH 375 0
DWIDTH 6 0
BBX 5 9 0 -2
BITMAP
80
80
98
90
F8
88
88
20
60
ENDCHAR
STARTCHAR char312
ENCODING 312
SWIDTH 375 0
DWIDTH 6 0
BBX 5 5 0 0
BITMAP
98
90
F8
88
88
ENDCHAR
STARTCHAR char313
ENCODING 313
SWIDTH 375 0
DWIDTH 6 0
BBX 5 9 0 0
BITMAP
70
40
00
80
80
80
80
80
F8
ENDCHAR
STARTCHAR char314
ENCODING 314
SWIDTH 375 0
DWIDTH 6 0
BBX 3 9 2 0
BITMAP
E0
80
00
80
80
80
80
80
80
ENDCHAR
STARTCHAR char315
ENCODING 315
SWIDTH 375 0
DWIDTH 6 0
BBX 5 9 0 -2
BITMAP
80
80
80
80
80
80
F8
20
60
ENDCHAR
STARTCHAR char316
ENCODING 316
SWIDTH 375 0
DWIDTH 6 0
BBX 3 9 0 -2
BITMAP
20
20
20
20
20
20
20
20
60
ENDCHAR
STARTCHAR char317
ENCODING 317
SWIDTH 375 0
DWIDTH 6 0
BBX 5 7 0 0
BITMAP
B8
A0
80
80
80
80
F8
ENDCHAR
STARTCHAR char318
ENCODING 318
SWIDTH 375 0
DWIDTH 6 0
BBX 3 7 2 0
BITMAP
A0
A0
80
80
80
80
80
ENDCHAR
STARTCHAR char319
ENCODING 319
SWIDTH 375 0
DWIDTH 6 0
BBX 5 7 0 0
BITMAP
80
80
80
A0
80
80
F8
ENDCHAR
STARTCHAR char320
ENCODING 320
SWIDTH 375 0
DWIDTH 6 0
BBX 5 7 0 0
BITMAP
20
20
20
28
20
20
20
ENDCHAR
STARTCHAR char321
ENCODING 321
SWIDTH 375 0
DWIDTH 6 0
BBX 5 7 -1 0
BITMAP
40
40
40
70
C0
40
78
ENDCHAR
STARTCHAR char322
ENCODING 322
SWIDTH 375 0
DWIDTH 6 0
BBX 3 7 1 0
BITMAP
40
40
40
60
C0
40
40
ENDCHAR
STARTCHAR char323
ENCODING 323
SWIDTH 375 0
DWIDTH 6 0
BBX 5 9 0 0
BITMAP
70
40
00
E8
A8
A8
A8
A8
B8
ENDCHAR
STARTCHAR char324
ENCODING 324
SWIDTH 375 0
DWIDTH 6 0
BBX 5 8 0 0
BITMAP
70
40
00
F8
88
88
88
88
ENDCHAR
STARTCHAR char325
ENCODING 325
SWIDTH 375 0
DWIDTH 6 0
BBX 5 10 0 -2
BITMAP
E8
A8
A8
A8
A8
A8
A8
B8
20
60
ENDCHAR
STARTCHAR char326
ENCODING 326
SWIDTH 375 0
DWIDTH 6 0
BBX 5 7 0 -2
BITMAP
F8
88
88
88
88
20
60
ENDCHAR
STARTCHAR char327
ENCODING 327
SWIDTH 375 0
DWIDTH 6 0
BBX 5 9 0 0
BITMAP
50
70
00
E8
A8
A8
A8
A8
B8
ENDCHAR
STARTCHAR char328
ENCODING 328
SWIDTH 375 0
DWIDTH 6 0
BBX 5 8 0 0
BITMAP
50
70
00
F8
88
88
88
88
ENDCHAR
STARTCHAR char329
ENCODING 329
SWIDTH 375 0
DWIDTH 6 0
BBX 6 9 -1 0
BITMAP
80
80
80
00
7C
44
44
44
44
ENDCHAR
STARTCHAR char330
ENCODING 330
SWIDTH 375 0
DWIDTH 6 0
BBX 5 9 0 -2
BITMAP
E8
A8
A8
A8
A8
A8
B8
08
38
ENDCHAR
STARTCHAR char331
ENCODING 331
SWIDTH 375 0
DWIDTH 6 0
BBX 5 7 0 -2
BITMAP
F8
88
88
88
88
08
38
ENDCHAR
STARTCHAR char332
ENCODING 332
SWIDTH 375 0
DWIDTH 6 0
BBX 5 9 0 0
BITMAP
70
00
F8
88
88
88
88
88
F8
ENDCHAR
STARTCHAR char333
ENCODING 333
SWIDTH 375 0
DWIDTH 6 0
BBX 5 7 0 0
BITMAP
70
00
F8
88
88
88
F8
ENDCHAR
STARTCHAR char334
ENCODING 334
SWIDTH 375 0
DWIDTH 6 0
BBX 5 9 0 0
BITMAP
50
70
00
F8
88
88
88
88
F8
ENDCHAR
STARTCHAR char335
ENCODING 335
SWIDTH 375 0
DWIDTH 6 0
BBX 5 8 0 0
BITMAP
50
70
00
F8
88
88
88
F8
ENDCHAR
STARTCHAR char336
ENCODING 336
SWIDTH 375 0
DWIDTH 6 0
BBX 5 9 0 0
BITMAP
E8
B8
00
F8
88
88
88
88
F8
ENDCHAR
STARTCHAR char337
ENCODING 337
SWIDTH 375 0
DWIDTH 6 0
BBX 5 8 0 0
BITMAP
E8
B8
00
F8
88
88
88
F8
ENDCHAR
STARTCHAR char338
ENCODING 338
SWIDTH 375 0
DWIDTH 6 0
BBX 5 7 0 0
BITMAP
F8
A0
A0
B8
A0
A0
F8
ENDCHAR
STARTCHAR char339
ENCODING 339
SWIDTH 375 0
DWIDTH 6 0
BBX 5 5 0 0
BITMAP
F8
A8
B8
A0
F8
ENDCHAR
STARTCHAR char340
ENCODING 340
SWIDTH 375 0
DWIDTH 6 0
BBX 5 9 0 0
BITMAP
70
40
00
F8
88
88
F8
A0
B0
ENDCHAR
STARTCHAR char341
ENCODING 341
SWIDTH 375 0
DWIDTH 6 0
BBX 5 8 0 0
BITMAP
70
40
00
F8
80
80
80
80
ENDCHAR
STARTCHAR char342
ENCODING 342
SWIDTH 375 0
DWIDTH 6 0
BBX 5 9 0 -2
BITMAP
F8
88
88
88
F8
A0
B0
00
60
ENDCHAR
STARTCHAR char343
ENCODING 343
SWIDTH 375 0
DWIDTH 6 0
BBX 5 7 0 -2
BITMAP
F8
80
80
80
80
20
60
ENDCHAR
STARTCHAR char344
ENCODING 344
SWIDTH 375 0
DWIDTH 6 0
BBX 5 9 0 0
BITMAP
50
70
00
F8
88
88
F8
A0
B0
ENDCHAR
STARTCHAR char345
ENCODING 345
SWIDTH 375 0
DWIDTH 6 0
BBX 5 8 0 0
BITMAP
50
70
00
F8
80
80
80
80
ENDCHAR
STARTCHAR char346
ENCODING 346
SWIDTH 375 0
DWIDTH 6 0
BBX 5 9 0 0
BITMAP
70
40
00
F8
80
F8
08
08
F8
ENDCHAR
STARTCHAR char347
ENCODING 347
SWIDTH 375 0
DWIDTH 6 0
BBX 5 8 0 0
BITMAP
70
40
00
F8
80
F8
08
F8
ENDCHAR
STARTCHAR char348
ENCODING 348
SWIDTH 375 0
DWIDTH 6 0
BBX 5 9 0 0
BITMAP
70
50
00
F8
80
F8
08
08
F8
ENDCHAR
STARTCHAR char349
ENCODING 349
SWIDTH 375 0
DWIDTH 6 0
BBX 5 8 0 0
BITMAP
70
50
00
F8
80
F8
08
F8
ENDCHAR
STARTCHAR char350
ENCODING 350
SWIDTH 375 0
DWIDTH 6 0
BBX 5 9 0 -2
BITMAP
F8
80
80
F8
08
08
F8
20
60
ENDCHAR
STARTCHAR char351
ENCODING 351
SWIDTH 375 0
DWIDTH 6 0
BBX 5 7 0 -2
BITMAP
F8
80
F8
08
F8
20
60
ENDCHAR
STARTCHAR char352
ENCODING 352
SWIDTH 375 0
DWIDTH 6 0
BBX 5 9 0 0
BITMAP
50
70
00
F8
80
F8
08
08
F8
ENDCHAR
STARTCHAR char353
ENCODING 353
SWIDTH 375 0
DWIDTH 6 0
BBX 5 8 0 0
BITMAP
50
70
00
F8
80
F8
08
F8
ENDCHAR
STARTCHAR char354
ENCODING 354
SWIDTH 375 0
DWIDTH 6 0
BBX 5 9 0 -2
BITMAP
F8
20
20
20
20
20
20
20
60
ENDCHAR
STARTCHAR char355
ENCODING 355
SWIDTH 375 0
DWIDTH 6 0
BBX 5 9 0 -2
BITMAP
20
20
F8
20
20
20
38
10
30
ENDCHAR
STARTCHAR char356
ENCODING 356
SWIDTH 375 0
DWIDTH 6 0
BBX 5 9 0 0
BITMAP
50
70
00
F8
20
20
20
20
20
ENDCHAR
STARTCHAR char357
ENCODING 357
SWIDTH 375 0
DWIDTH 6 0
BBX 5 9 0 0
BITMAP
08
08
20
20
F8
20
20
20
38
ENDCHAR
STARTCHAR char358
ENCODING 358
SWIDTH 375 0
DWIDTH 6 0
BBX 5 7 0 0
BITMAP
F8
20
20
70
20
20
20
ENDCHAR
STARTCHAR char359
ENCODING 359
SWIDTH 375 0
DWIDTH 6 0
BBX 5 7 0 0
BITMAP
20
20
F8
20
70
20
38
ENDCHAR
STARTCHAR char360
ENCODING 360
SWIDTH 375 0
DWIDTH 6 0
BBX 5 9 0 0
BITMAP
E8
B8
00
88
88
88
88
88
F8
ENDCHAR
STARTCHAR char361
ENCODING 361
SWIDTH 375 0
DWIDTH 6 0
BBX 5 8 0 0
BITMAP
E8
B8
00
88
88
88
88
F8
ENDCHAR
STARTCHAR char362
ENCODING 362
SWIDTH 375 0
DWIDTH 6 0
BBX 5 9 0 0
BITMAP
70
00
88
88
88
88
88
88
F8
ENDCHAR
STARTCHAR char363
ENCODING 363
SWIDTH 375 0
DWIDTH 6 0
BBX 5 7 0 0
BITMAP
70
00
88
88
88
88
F8
ENDCHAR
STARTCHAR char364
ENCODING 364
SWIDTH 375 0
DWIDTH 6 0
BBX 5 9 0 0
BITMAP
50
70
00
88
88
88
88
88
F8
ENDCHAR
STARTCHAR char365
ENCODING 365
SWIDTH 375 0
DWIDTH 6 0
BBX 5 8 0 0
BITMAP
50
70
00
88
88
88
88
F8
ENDCHAR
STARTCHAR char366
ENCODING 366
SWIDTH 375 0
DWIDTH 6 0
BBX 5 9 0 0
BITMAP
70
50
70
88
88
88
88
88
F8
ENDCHAR
STARTCHAR char367
ENCODING 367
SWIDTH 375 0
DWIDTH 6 0
BBX 5 9 0 0
BITMAP
70
50
70
00
88
88
88
88
F8
ENDCHAR
STARTCHAR char368
ENCODING 368
SWIDTH 375 0
DWIDTH 6 0
BBX 5 9 0 0
BITMAP
E8
B8
00
88
88
88
88
88
F8
ENDCHAR
STARTCHAR char369
ENCODING 369
SWIDTH 375 0
DWIDTH 6 0
BBX 5 9 0 0
BITMAP
E8
B8
00
00
88
88
88
88
F8
ENDCHAR
STARTCHAR char370
ENCODING 370
SWIDTH 375 0
DWIDTH 6 0
BBX 5 9 0 -2
BITMAP
88
88
88
88
88
88
F8
20
30
ENDCHAR
STARTCHAR char371
ENCODING 371
SWIDTH 375 0
DWIDTH 6 0
BBX 5 7 0 -2
BITMAP
88
88
88
88
F8
10
18
ENDCHAR
STARTCHAR char372
ENCODING 372
SWIDTH 375 0
DWIDTH 6 0
BBX 5 9 0 0
BITMAP
70
50
00
88
88
A8
A8
A8
F8
ENDCHAR
STARTCHAR char373
ENCODING 373
SWIDTH 375 0
DWIDTH 6 0
BBX 5 8 0 0
BITMAP
70
50
00
88
A8
A8
A8
F8
ENDCHAR
STARTCHAR char374
ENCODING 374
SWIDTH 375 0
DWIDTH 6 0
BBX 5 9 0 0
BITMAP
70
50
00
88
88
88
F8
20
20
ENDCHAR
STARTCHAR char375
ENCODING 375
SWIDTH 375 0
DWIDTH 6 0
BBX 5 10 0 -2
BITMAP
70
50
00
88
88
88
88
F8
08
F8
ENDCHAR
STARTCHAR char376
ENCODING 376
SWIDTH 375 0
DWIDTH 6 0
BBX 5 9 0 0
BITMAP
50
00
88
88
88
F8
20
20
20
ENDCHAR
STARTCHAR char377
ENCODING 377
SWIDTH 375 0
DWIDTH 6 0
BBX 5 9 0 0
BITMAP
18
30
00
F8
08
F8
A0
80
F8
ENDCHAR
STARTCHAR char378
ENCODING 378
SWIDTH 375 0
DWIDTH 6 0
BBX 5 8 0 0
BITMAP
30
60
00
F8
08
F8
80
F8
ENDCHAR
STARTCHAR char379
ENCODING 379
SWIDTH 375 0
DWIDTH 6 0
BBX 5 9 0 0
BITMAP
20
00
F8
08
28
F8
A0
80
F8
ENDCHAR
STARTCHAR char380
ENCODING 380
SWIDTH 375 0
DWIDTH 6 0
BBX 5 7 0 0
BITMAP
20
00
F8
08
F8
80
F8
ENDCHAR
STARTCHAR char381
ENCODING 381
SWIDTH 375 0
DWIDTH 6 0
BBX 5 9 0 0
BITMAP
50
70
00
F8
08
F8
A0
80
F8
ENDCHAR
STARTCHAR char382
ENCODING 382
SWIDTH 375 0
DWIDTH 6 0
BBX 5 8 0 0
BITMAP
50
70
00
F8
08
F8
80
F8
ENDCHAR
STARTCHAR char383
ENCODING 383
SWIDTH 375 0
DWIDTH 6 0
BBX 5 7 0 0
BITMAP
38
20
20
20
20
20
20
ENDCHAR
STARTCHAR Alpha
ENCODING 913
SWIDTH 375 0
DWIDTH 6 0
BBX 5 7 0 0
BITMAP
70
50
50
F8
88
88
88
ENDCHAR
STARTCHAR Beta
ENCODING 914
SWIDTH 375 0
DWIDTH 6 0
BBX 5 7 0 0
BITMAP
F8
88
98
F0
98
88
F8
ENDCHAR
STARTCHAR Gamma
ENCODING 915
SWIDTH 375 0
DWIDTH 6 0
BBX 5 7 0 0
BITMAP
F8
88
88
80
80
80
80
ENDCHAR
STARTCHAR Deltagreek
ENCODING 916
SWIDTH 375 0
DWIDTH 6 0
BBX 5 7 0 0
BITMAP
20
70
50
D8
88
88
F8
ENDCHAR
STARTCHAR Epsilon
ENCODING 917
SWIDTH 375 0
DWIDTH 6 0
BBX 5 7 0 0
BITMAP
F8
80
80
F8
80
80
F8
ENDCHAR
STARTCHAR Zeta
ENCODING 918
SWIDTH 375 0
DWIDTH 6 0
BBX 4 7 0 0
BITMAP
F0
10
10
F0
80
80
F0
ENDCHAR
STARTCHAR Eta
ENCODING 919
SWIDTH 375 0
DWIDTH 6 0
BBX 5 7 0 0
BITMAP
88
88
88
F8
88
88
88
ENDCHAR
STARTCHAR Theta
ENCODING 920
SWIDTH 375 0
DWIDTH 6 0
BBX 5 7 0 0
BITMAP
F8
88
88
F8
88
88
F8
ENDCHAR
STARTCHAR Iota
ENCODING 921
SWIDTH 375 0
DWIDTH 6 0
BBX 1 7 2 0
BITMAP
80
80
80
80
80
80
80
ENDCHAR
STARTCHAR Kappa
ENCODING 922
SWIDTH 375 0
DWIDTH 6 0
BBX 5 7 0 0
BITMAP
B8
A0
A0
F8
88
88
88
ENDCHAR
STARTCHAR Lambda
ENCODING 923
SWIDTH 375 0
DWIDTH 6 0
BBX 5 7 0 0
BITMAP
20
20
70
50
D8
88
88
ENDCHAR
STARTCHAR Mu
ENCODING 924
SWIDTH 375 0
DWIDTH 6 0
BBX 5 7 0 0
BITMAP
F8
A8
A8
A8
88
88
88
ENDCHAR
STARTCHAR Nu
ENCODING 925
SWIDTH 375 0
DWIDTH 6 0
BBX 5 7 0 0
BITMAP
E8
A8
A8
A8
A8
A8
B8
ENDCHAR
STARTCHAR Xi
ENCODING 926
SWIDTH 375 0
DWIDTH 6 0
BBX 5 7 0 0
BITMAP
F8
00
00
70
00
00
F8
ENDCHAR
STARTCHAR Omicron
ENCODING 927
SWIDTH 375 0
DWIDTH 6 0
BBX 5 7 0 0
BITMAP
F8
88
88
88
88
88
F8
ENDCHAR
STARTCHAR Pi
ENCODING 928
SWIDTH 375 0
DWIDTH 6 0
BBX 5 7 0 0
BITMAP
F8
88
88
88
88
88
88
ENDCHAR
STARTCHAR Rho
ENCODING 929
SWIDTH 375 0
DWIDTH 6 0
BBX 5 7 0 0
BITMAP
F8
88
88
88
F8
80
80
ENDCHAR
STARTCHAR uni03A2
ENCODING 930
SWIDTH 375 0
DWIDTH 6 0
BBX 4 7 0 0
BITMAP
F0
80
E0
20
E0
80
F0
ENDCHAR
STARTCHAR Sigma
ENCODING 931
SWIDTH 375 0
DWIDTH 6 0
BBX 5 7 0 0
BITMAP
F8
20
20
20
20
20
20
ENDCHAR
STARTCHAR Tau
ENCODING 932
SWIDTH 375 0
DWIDTH 6 0
BBX 5 7 0 0
BITMAP
88
88
88
F8
20
20
20
ENDCHAR
STARTCHAR Upsilon
ENCODING 933
SWIDTH 375 0
DWIDTH 6 0
BBX 5 8 0 -1
BITMAP
20
F8
A8
A8
A8
A8
F8
20
ENDCHAR
STARTCHAR Phi
ENCODING 934
SWIDTH 375 0
DWIDTH 6 0
BBX 5 7 0 0
BITMAP
88
88
F8
20
F8
88
88
ENDCHAR
STARTCHAR Chi
ENCODING 935
SWIDTH 375 0
DWIDTH 6 0
BBX 5 8 0 -1
BITMAP
A8
A8
A8
A8
F8
20
20
20
ENDCHAR
STARTCHAR Psi
ENCODING 936
SWIDTH 375 0
DWIDTH 6 0
BBX 5 7 0 0
BITMAP
F8
88
88
88
D8
50
D8
ENDCHAR
STARTCHAR Omegagreek
ENCODING 937
SWIDTH 375 0
DWIDTH 6 0
BBX 3 7 1 0
BITMAP
A0
00
E0
40
40
40
E0
ENDCHAR
STARTCHAR alpha
ENCODING 945
SWIDTH 375 0
DWIDTH 6 0
BBX 5 5 0 0
BITMAP
F8
90
90
90
F8
ENDCHAR
STARTCHAR beta
ENCODING 946
SWIDTH 375 0
DWIDTH 6 0
BBX 6 9 -1 -2
BITMAP
70
50
7C
44
44
44
7C
40
C0
ENDCHAR
STARTCHAR gamma
ENCODING 947
SWIDTH 375 0
DWIDTH 6 0
BBX 3 7 1 0
BITMAP
A0
E0
40
E0
A0
A0
E0
ENDCHAR
STARTCHAR delta
ENCODING 948
SWIDTH 375 0
DWIDTH 6 0
BBX 5 8 0 0
BITMAP
70
40
40
F8
88
88
88
F8
ENDCHAR
STARTCHAR epsilon
ENCODING 949
SWIDTH 375 0
DWIDTH 6 0
BBX 5 5 0 0
BITMAP
F8
88
E0
88
F8
ENDCHAR
STARTCHAR zeta
ENCODING 950
SWIDTH 375 0
DWIDTH 6 0
BBX 5 8 0 -2
BITMAP
F8
08
F8
80
80
F8
08
18
ENDCHAR
STARTCHAR eta
ENCODING 951
SWIDTH 375 0
DWIDTH 6 0
BBX 5 7 0 -2
BITMAP
F8
88
88
88
88
08
08
ENDCHAR
STARTCHAR theta
ENCODING 952
SWIDTH 375 0
DWIDTH 6 0
BBX 5 5 0 0
BITMAP
F8
88
F8
88
F8
ENDCHAR
STARTCHAR iota
ENCODING 953
SWIDTH 375 0
DWIDTH 6 0
BBX 2 4 2 0
BITMAP
80
80
80
C0
ENDCHAR
STARTCHAR kappa
ENCODING 954
SWIDTH 375 0
DWIDTH 6 0
BBX 5 5 0 0
BITMAP
B8
A0
F8
88
88
ENDCHAR
STARTCHAR lambda
ENCODING 955
SWIDTH 375 0
DWIDTH 6 0
BBX 5 6 0 0
BITMAP
70
10
10
F0
90
98
ENDCHAR
STARTCHAR mugreek
ENCODING 956
SWIDTH 375 0
DWIDTH 6 0
BBX 5 7 0 -2
BITMAP
88
88
88
88
F8
80
80
ENDCHAR
STARTCHAR nu
ENCODING 957
SWIDTH 375 0
DWIDTH 6 0
BBX 5 6 0 0
BITMAP
18
C8
48
58
50
70
ENDCHAR
STARTCHAR xi
ENCODING 958
SWIDTH 375 0
DWIDTH 6 0
BBX 5 8 0 -2
BITMAP
F8
80
E0
80
80
F8
08
18
ENDCHAR
STARTCHAR omicron
ENCODING 959
SWIDTH 375 0
DWIDTH 6 0
BBX 5 5 0 0
BITMAP
F8
88
88
88
F8
ENDCHAR
STARTCHAR pi
ENCODING 960
SWIDTH 375 0
DWIDTH 6 0
BBX 5 5 0 0
BITMAP
F8
50
50
50
58
ENDCHAR
STARTCHAR rho
ENCODING 961
SWIDTH 375 0
DWIDTH 6 0
BBX 5 7 0 -2
BITMAP
70
D8
88
98
F0
80
80
ENDCHAR
STARTCHAR sigmafinal
ENCODING 962
SWIDTH 375 0
DWIDTH 6 0
BBX 5 7 0 -2
BITMAP
F8
80
80
80
F8
08
18
ENDCHAR
STARTCHAR sigma
ENCODING 963
SWIDTH 375 0
DWIDTH 6 0
BBX 5 5 0 0
BITMAP
F8
90
90
90
F0
ENDCHAR
STARTCHAR tau
ENCODING 964
SWIDTH 375 0
DWIDTH 6 0
BBX 5 5 0 0
BITMAP
F8
20
20
20
30
ENDCHAR
STARTCHAR upsilon
ENCODING 965
SWIDTH 375 0
DWIDTH 6 0
BBX 5 5 0 0
BITMAP
98
88
98
90
F0
ENDCHAR
STARTCHAR phi
ENCODING 966
SWIDTH 375 0
DWIDTH 6 0
BBX 5 7 0 -2
BITMAP
F8
A8
A8
A8
F8
20
20
ENDCHAR
STARTCHAR chi
ENCODING 967
SWIDTH 375 0
DWIDTH 6 0
BBX 5 9 0 -2
BITMAP
E0
A0
28
28
F8
A0
A0
20
30
ENDCHAR
STARTCHAR psi
ENCODING 968
SWIDTH 375 0
DWIDTH 6 0
BBX 5 7 0 -2
BITMAP
A8
A8
A8
A8
F8
20
20
ENDCHAR
STARTCHAR omega
ENCODING 969
SWIDTH 375 0
DWIDTH 6 0
BBX 5 5 0 0
BITMAP
D8
88
A8
A8
F8
ENDCHAR
STARTCHAR uni1E9E
ENCODING 7838
SWIDTH 375 0
DWIDTH 6 0
BBX 5 8 -1 -2
BITMAP
70
50
58
48
48
58
40
C0
ENDCHAR
STARTCHAR hyphentwo
ENCODING 8208
SWIDTH 375 0
DWIDTH 6 0
BBX 3 1 0 2
BITMAP
E0
ENDCHAR
STARTCHAR uni2011
ENCODING 8209
SWIDTH 375 0
DWIDTH 6 0
BBX 3 1 0 2
BITMAP
E0
ENDCHAR
STARTCHAR figuredash
ENCODING 8210
SWIDTH 375 0
DWIDTH 6 0
BBX 4 1 0 2
BITMAP
F0
ENDCHAR
STARTCHAR endash
ENCODING 8211
SWIDTH 375 0
DWIDTH 6 0
BBX 5 1 0 2
BITMAP
F8
ENDCHAR
STARTCHAR emdash
ENCODING 8212
SWIDTH 375 0
DWIDTH 6 0
BBX 6 1 -1 2
BITMAP
FC
ENDCHAR
STARTCHAR horizontalbar
ENCODING 8213
SWIDTH 375 0
DWIDTH 6 0
BBX 6 1 -1 2
BITMAP
FC
ENDCHAR
STARTCHAR dblverticalbar
ENCODING 8214
SWIDTH 375 0
DWIDTH 6 0
BBX 4 7 0 0
BITMAP
50
50
50
50
50
50
50
ENDCHAR
STARTCHAR underscoredbl
ENCODING 8215
SWIDTH 375 0
DWIDTH 6 0
BBX 5 3 0 -1
BITMAP
F8
00
F8
ENDCHAR
STARTCHAR quoteleft
ENCODING 8216
SWIDTH 375 0
DWIDTH 6 0
BBX 2 3 1 4
BITMAP
80
80
C0
ENDCHAR
STARTCHAR quoteright
ENCODING 8217
SWIDTH 375 0
DWIDTH 6 0
BBX 2 3 1 4
BITMAP
40
40
C0
ENDCHAR
STARTCHAR quotesinglbase
ENCODING 8218
SWIDTH 375 0
DWIDTH 6 0
BBX 2 3 2 -2
BITMAP
40
40
C0
ENDCHAR
STARTCHAR quoteleftreversed
ENCODING 8219
SWIDTH 375 0
DWIDTH 6 0
BBX 2 3 1 3
BITMAP
80
80
C0
ENDCHAR
STARTCHAR quotedblleft
ENCODING 8220
SWIDTH 375 0
DWIDTH 6 0
BBX 5 3 0 4
BITMAP
90
90
D8
ENDCHAR
STARTCHAR quotedblright
ENCODING 8221
SWIDTH 375 0
DWIDTH 6 0
BBX 5 3 0 4
BITMAP
48
48
D8
ENDCHAR
STARTCHAR quotedblbase
ENCODING 8222
SWIDTH 375 0
DWIDTH 6 0
BBX 5 3 0 -2
BITMAP
48
48
D8
ENDCHAR
STARTCHAR uni201F
ENCODING 8223
SWIDTH 375 0
DWIDTH 6 0
BBX 5 3 0 4
BITMAP
D8
90
90
ENDCHAR
STARTCHAR dagger
ENCODING 8224
SWIDTH 375 0
DWIDTH 6 0
BBX 3 5 1 0
BITMAP
40
E0
40
40
40
ENDCHAR
STARTCHAR daggerdbl
ENCODING 8225
SWIDTH 375 0
DWIDTH 6 0
BBX 3 5 1 0
BITMAP
40
E0
40
E0
40
ENDCHAR
STARTCHAR bullet
ENCODING 8226
SWIDTH 375 0
DWIDTH 6 0
BBX 3 3 1 1
BITMAP
E0
A0
E0
ENDCHAR
STARTCHAR uni2023
ENCODING 8227
SWIDTH 375 0
DWIDTH 6 0
BBX 2 3 0 1
BITMAP
80
C0
80
ENDCHAR
STARTCHAR onedotenleader
ENCODING 8228
SWIDTH 375 0
DWIDTH 6 0
BBX 2 1 1 0
BITMAP
40
ENDCHAR
STARTCHAR twodotleader
ENCODING 8229
SWIDTH 375 0
DWIDTH 6 0
BBX 4 1 0 0
BITMAP
50
ENDCHAR
STARTCHAR ellipsis
ENCODING 8230
SWIDTH 375 0
DWIDTH 6 0
BBX 5 1 0 0
BITMAP
A8
ENDCHAR
STARTCHAR uni2027
ENCODING 8231
SWIDTH 375 0
DWIDTH 6 0
BBX 1 1 2 2
BITMAP
80
ENDCHAR
STARTCHAR minute
ENCODING 8242
SWIDTH 375 0
DWIDTH 6 0
BBX 1 2 2 5
BITMAP
80
80
ENDCHAR
STARTCHAR second
ENCODING 8243
SWIDTH 375 0
DWIDTH 6 0
BBX 3 2 1 5
BITMAP
A0
A0
ENDCHAR
STARTCHAR uni2034
ENCODING 8244
SWIDTH 375 0
DWIDTH 6 0
BBX 5 2 0 5
BITMAP
A8
A8
ENDCHAR
STARTCHAR primereversed
ENCODING 8245
SWIDTH 375 0
DWIDTH 6 0
BBX 1 2 2 5
BITMAP
80
80
ENDCHAR
STARTCHAR uni2036
ENCODING 8246
SWIDTH 375 0
DWIDTH 6 0
BBX 3 2 1 5
BITMAP
A0
A0
ENDCHAR
STARTCHAR uni2037
ENCODING 8247
SWIDTH 375 0
DWIDTH 6 0
BBX 5 2 0 5
BITMAP
A8
A8
ENDCHAR
STARTCHAR uni2038
ENCODING 8248
SWIDTH 375 0
DWIDTH 6 0
BBX 3 2 1 0
BITMAP
E0
A0
ENDCHAR
STARTCHAR guilsinglleft
ENCODING 8249
SWIDTH 375 0
DWIDTH 6 0
BBX 4 7 0 -1
BITMAP
10
20
40
80
40
20
10
ENDCHAR
STARTCHAR guilsinglright
ENCODING 8250
SWIDTH 375 0
DWIDTH 6 0
BBX 4 7 0 -1
BITMAP
80
40
20
10
20
40
80
ENDCHAR
STARTCHAR exclamdbl
ENCODING 8252
SWIDTH 375 0
DWIDTH 6 0
BBX 3 7 0 0
BITMAP
A0
A0
A0
A0
A0
00
A0
ENDCHAR
STARTCHAR char8253
ENCODING 8253
SWIDTH 375 0
DWIDTH 6 0
BBX 5 7 0 0
BITMAP
F8
28
28
38
20
00
20
ENDCHAR
STARTCHAR overline
ENCODING 8254
SWIDTH 375 0
DWIDTH 6 0
BBX 5 1 0 6
BITMAP
F8
ENDCHAR
STARTCHAR uni203F
ENCODING 8255
SWIDTH 375 0
DWIDTH 6 0
BBX 3 2 1 5
BITMAP
A0
E0
ENDCHAR
STARTCHAR uni2040
ENCODING 8256
SWIDTH 375 0
DWIDTH 6 0
BBX 3 2 1 5
BITMAP
E0
A0
ENDCHAR
STARTCHAR uni2041
ENCODING 8257
SWIDTH 375 0
DWIDTH 6 0
BBX 4 4 0 0
BITMAP
10
20
40
A0
ENDCHAR
STARTCHAR asterism
ENCODING 8258
SWIDTH 375 0
DWIDTH 6 0
BBX 3 3 0 2
BITMAP
40
00
A0
ENDCHAR
STARTCHAR char8259
ENCODING 8259
SWIDTH 375 0
DWIDTH 6 0
BBX 5 1 0 2
BITMAP
F8
ENDCHAR
STARTCHAR char8260
ENCODING 8260
SWIDTH 375 0
DWIDTH 6 0
BBX 4 8 0 -1
BITMAP
10
10
20
20
40
40
80
80
ENDCHAR
STARTCHAR char8261
ENCODING 8261
SWIDTH 375 0
DWIDTH 6 0
BBX 2 8 1 -1
BITMAP
C0
80
80
C0
C0
80
80
C0
ENDCHAR
STARTCHAR char8262
ENCODING 8262
SWIDTH 375 0
DWIDTH 6 0
BBX 3 8 0 -1
BITMAP
60
20
20
60
60
20
20
60
ENDCHAR
STARTCHAR uni204F
ENCODING 8271
SWIDTH 375 0
DWIDTH 6 0
BBX 2 4 2 -1
BITMAP
80
00
80
C0
ENDCHAR
STARTCHAR uni2050
ENCODING 8272
SWIDTH 375 0
DWIDTH 6 0
BBX 3 6 1 0
BITMAP
E0
A0
00
00
A0
E0
ENDCHAR
STARTCHAR uni2051
ENCODING 8273
SWIDTH 375 0
DWIDTH 6 0
BBX 3 7 0 0
BITMAP
A0
40
A0
00
A0
40
A0
ENDCHAR
STARTCHAR Euro
ENCODING 8364
SWIDTH 375 0
DWIDTH 6 0
BBX 6 7 -1 0
BITMAP
7C
40
F8
40
F8
40
7C
ENDCHAR
STARTCHAR arrowleft
ENCODING 8592
SWIDTH 375 0
DWIDTH 6 0
BBX 5 3 0 1
BITMAP
40
F8
40
ENDCHAR
STARTCHAR arrowup
ENCODING 8593
SWIDTH 375 0
DWIDTH 6 0
BBX 3 5 1 0
BITMAP
40
E0
40
40
40
ENDCHAR
STARTCHAR arrowright
ENCODING 8594
SWIDTH 375 0
DWIDTH 6 0
BBX 5 3 0 1
BITMAP
10
F8
10
ENDCHAR
STARTCHAR arrowdown
ENCODING 8595
SWIDTH 375 0
DWIDTH 6 0
BBX 3 5 1 0
BITMAP
40
40
40
E0
40
ENDCHAR
STARTCHAR arrowboth
ENCODING 8596
SWIDTH 375 0
DWIDTH 6 0
BBX 6 3 -1 1
BITMAP
48
FC
48
ENDCHAR
STARTCHAR arrowupdn
ENCODING 8597
SWIDTH 375 0
DWIDTH 6 0
BBX 3 6 1 -1
BITMAP
40
E0
40
40
E0
40
ENDCHAR
STARTCHAR arrowupleft
ENCODING 8598
SWIDTH 375 0
DWIDTH 6 0
BBX 4 4 0 0
BITMAP
C0
C0
20
10
ENDCHAR
STARTCHAR arrowupright
ENCODING 8599
SWIDTH 375 0
DWIDTH 6 0
BBX 4 4 0 0
BITMAP
30
30
40
80
ENDCHAR
STARTCHAR arrowdownright
ENCODING 8600
SWIDTH 375 0
DWIDTH 6 0
BBX 4 4 0 0
BITMAP
80
40
30
30
ENDCHAR
STARTCHAR arrowdownleft
ENCODING 8601
SWIDTH 375 0
DWIDTH 6 0
BBX 4 4 0 0
BITMAP
10
20
C0
C0
ENDCHAR
STARTCHAR arrowdblleft
ENCODING 8656
SWIDTH 375 0
DWIDTH 6 0
BBX 6 5 -1 0
BITMAP
20
7C
C0
7C
20
ENDCHAR
STARTCHAR arrowdblup
ENCODING 8657
SWIDTH 375 0
DWIDTH 6 0
BBX 0 0 0 0
BITMAP
ENDCHAR
STARTCHAR dblarrowright
ENCODING 8658
SWIDTH 375 0
DWIDTH 6 0
BBX 5 5 -1 0
BITMAP
20
F0
18
F0
20
ENDCHAR
STARTCHAR char8682
ENCODING 8682
SWIDTH 375 0
DWIDTH 6 0
BBX 5 8 0 -1
BITMAP
20
50
88
50
50
70
00
70
ENDCHAR
STARTCHAR forall
ENCODING 8704
SWIDTH 375 0
DWIDTH 6 0
BBX 5 7 0 0
BITMAP
88
88
88
F8
88
88
F8
ENDCHAR
STARTCHAR uni2201
ENCODING 8705
SWIDTH 375 0
DWIDTH 6 0
BBX 4 7 0 0
BITMAP
F0
90
B0
80
90
90
F0
ENDCHAR
STARTCHAR partialdiff
ENCODING 8706
SWIDTH 375 0
DWIDTH 6 0
BBX 4 7 0 0
BITMAP
F0
90
10
F0
90
90
F0
ENDCHAR
STARTCHAR thereexists
ENCODING 8707
SWIDTH 375 0
DWIDTH 6 0
BBX 5 7 0 0
BITMAP
F8
08
08
F8
08
08
F8
ENDCHAR
STARTCHAR uni2204
ENCODING 8708
SWIDTH 375 0
DWIDTH 6 0
BBX 5 9 0 -1
BITMAP
20
F8
28
28
F8
48
48
F8
40
ENDCHAR
STARTCHAR emptyset
ENCODING 8709
SWIDTH 375 0
DWIDTH 6 0
BBX 4 8 0 -1
BITMAP
20
20
F0
B0
D0
F0
40
40
ENDCHAR
STARTCHAR increment
ENCODING 8710
SWIDTH 375 0
DWIDTH 6 0
BBX 5 4 0 1
BITMAP
20
50
88
F8
ENDCHAR
STARTCHAR gradient
ENCODING 8711
SWIDTH 375 0
DWIDTH 6 0
BBX 5 4 0 2
BITMAP
F8
88
50
20
ENDCHAR
STARTCHAR element
ENCODING 8712
SWIDTH 375 0
DWIDTH 6 0
BBX 5 5 0 0
BITMAP
F8
80
F0
80
F8
ENDCHAR
STARTCHAR notelement
ENCODING 8713
SWIDTH 375 0
DWIDTH 6 0
BBX 5 9 0 -2
BITMAP
10
10
F8
A0
F0
A0
F8
40
40
ENDCHAR
STARTCHAR uni220A
ENCODING 8714
SWIDTH 375 0
DWIDTH 6 0
BBX 5 5 0 0
BITMAP
F8
80
F0
80
F8
ENDCHAR
STARTCHAR suchthat
ENCODING 8715
SWIDTH 375 0
DWIDTH 6 0
BBX 5 5 0 0
BITMAP
F8
08
78
08
F8
ENDCHAR
STARTCHAR notcontains
ENCODING 8716
SWIDTH 375 0
DWIDTH 6 0
BBX 5 9 0 -2
BITMAP
10
10
F8
28
78
28
F8
40
40
ENDCHAR
STARTCHAR uni220D
ENCODING 8717
SWIDTH 375 0
DWIDTH 6 0
BBX 5 5 0 0
BITMAP
F8
08
78
08
F8
ENDCHAR
STARTCHAR uni220E
ENCODING 8718
SWIDTH 375 0
DWIDTH 6 0
BBX 3 3 1 1
BITMAP
E0
E0
E0
ENDCHAR
STARTCHAR product
ENCODING 8719
SWIDTH 375 0
DWIDTH 6 0
BBX 6 6 -1 0
BITMAP
FC
48
48
48
48
48
ENDCHAR
STARTCHAR uni2210
ENCODING 8720
SWIDTH 375 0
DWIDTH 6 0
BBX 6 6 -1 0
BITMAP
48
48
48
48
48
FC
ENDCHAR
STARTCHAR summation
ENCODING 8721
SWIDTH 375 0
DWIDTH 6 0
BBX 4 7 0 0
BITMAP
F0
90
C0
40
C0
90
F0
ENDCHAR
STARTCHAR minus
ENCODING 8722
SWIDTH 375 0
DWIDTH 6 0
BBX 5 1 0 2
BITMAP
F8
ENDCHAR
STARTCHAR minusplus
ENCODING 8723
SWIDTH 375 0
DWIDTH 6 0
BBX 3 5 1 0
BITMAP
E0
00
40
E0
40
ENDCHAR
STARTCHAR char8724
ENCODING 8724
SWIDTH 375 0
DWIDTH 6 0
BBX 3 5 1 1
BITMAP
40
00
40
E0
40
ENDCHAR
STARTCHAR char8725
ENCODING 8725
SWIDTH 375 0
DWIDTH 6 0
BBX 5 7 0 -1
BITMAP
08
08
08
F8
80
80
80
ENDCHAR
STARTCHAR char8726
ENCODING 8726
SWIDTH 375 0
DWIDTH 6 0
BBX 5 5 0 0
BITMAP
80
80
F8
08
08
ENDCHAR
STARTCHAR char8727
ENCODING 8727
SWIDTH 375 0
DWIDTH 6 0
BBX 5 6 0 0
BITMAP
20
A8
70
70
A8
20
ENDCHAR
STARTCHAR char8728
ENCODING 8728
SWIDTH 375 0
DWIDTH 6 0
BBX 3 3 1 2
BITMAP
E0
A0
E0
ENDCHAR
STARTCHAR char8729
ENCODING 8729
SWIDTH 375 0
DWIDTH 6 0
BBX 2 2 1 2
BITMAP
C0
C0
ENDCHAR
STARTCHAR char8730
ENCODING 8730
SWIDTH 375 0
DWIDTH 6 0
BBX 5 7 0 0
BITMAP
18
10
10
10
D0
50
70
ENDCHAR
STARTCHAR char8730
ENCODING 8731
SWIDTH 375 0
DWIDTH 6 0
BBX 5 9 0 0
BITMAP
C0
40
D8
50
D0
10
D0
50
70
ENDCHAR
STARTCHAR char8730
ENCODING 8732
SWIDTH 375 0
DWIDTH 6 0
BBX 6 8 -1 0
BITMAP
A0
EC
28
08
08
68
28
38
ENDCHAR
STARTCHAR char8734
ENCODING 8733
SWIDTH 375 0
DWIDTH 6 0
BBX 4 3 0 1
BITMAP
F0
A0
F0
ENDCHAR
STARTCHAR char8734
ENCODING 8734
SWIDTH 375 0
DWIDTH 6 0
BBX 5 3 0 1
BITMAP
F8
A8
F8
ENDCHAR
STARTCHAR char8735
ENCODING 8735
SWIDTH 375 0
DWIDTH 6 0
BBX 5 5 0 0
BITMAP
80
80
80
80
F8
ENDCHAR
STARTCHAR char8736
ENCODING 8736
SWIDTH 375 0
DWIDTH 6 0
BBX 5 5 0 0
BITMAP
08
10
20
40
F8
ENDCHAR
STARTCHAR char8737
ENCODING 8737
SWIDTH 375 0
DWIDTH 6 0
BBX 6 7 -1 -1
BITMAP
04
08
50
20
50
FC
10
ENDCHAR
STARTCHAR char8738
ENCODING 8738
SWIDTH 375 0
DWIDTH 6 0
BBX 6 9 -1 -2
BITMAP
40
20
2C
30
D0
30
2C
20
40
ENDCHAR
STARTCHAR char8739
ENCODING 8739
SWIDTH 375 0
DWIDTH 6 0
BBX 3 7 0 0
BITMAP
20
20
20
20
20
20
20
ENDCHAR
STARTCHAR char8739
ENCODING 8740
SWIDTH 375 0
DWIDTH 6 0
BBX 3 7 1 0
BITMAP
40
40
40
60
C0
40
40
ENDCHAR
STARTCHAR char8739
ENCODING 8741
SWIDTH 375 0
DWIDTH 6 0
BBX 3 7 1 0
BITMAP
A0
A0
A0
A0
A0
A0
A0
ENDCHAR
STARTCHAR char8739
ENCODING 8742
SWIDTH 375 0
DWIDTH 6 0
BBX 5 7 0 0
BITMAP
50
50
58
70
D0
50
50
ENDCHAR
STARTCHAR char8742
ENCODING 8743
SWIDTH 375 0
DWIDTH 6 0
BBX 5 7 0 0
BITMAP
20
20
70
50
D8
88
88
ENDCHAR
STARTCHAR char8742
ENCODING 8744
SWIDTH 375 0
DWIDTH 6 0
BBX 5 7 0 0
BITMAP
88
88
D8
50
70
20
20
ENDCHAR
STARTCHAR char8744
ENCODING 8745
SWIDTH 375 0
DWIDTH 6 0
BBX 5 6 0 0
BITMAP
70
D8
88
88
88
88
ENDCHAR
STARTCHAR char8744
ENCODING 8746
SWIDTH 375 0
DWIDTH 6 0
BBX 5 6 0 0
BITMAP
88
88
88
88
D8
70
ENDCHAR
STARTCHAR char8746
ENCODING 8747
SWIDTH 375 0
DWIDTH 6 0
BBX 3 9 1 -2
BITMAP
60
40
40
40
40
40
40
40
C0
ENDCHAR
STARTCHAR char8746
ENCODING 8748
SWIDTH 375 0
DWIDTH 6 0
BBX 6 9 -1 -2
BITMAP
6C
48
48
48
48
48
48
48
D8
ENDCHAR
STARTCHAR char8746
ENCODING 8749
SWIDTH 375 0
DWIDTH 6 0
BBX 7 9 -1 -2
BITMAP
7E
54
54
54
54
54
54
54
FC
ENDCHAR
STARTCHAR char8746
ENCODING 8750
SWIDTH 375 0
DWIDTH 6 0
BBX 5 9 0 -2
BITMAP
30
20
F8
A8
A8
A8
F8
20
60
ENDCHAR
STARTCHAR char8746
ENCODING 8751
SWIDTH 375 0
DWIDTH 6 0
BBX 6 9 -1 -2
BITMAP
6C
48
48
FC
CC
FC
48
48
D8
ENDCHAR
STARTCHAR char8746
ENCODING 8752
SWIDTH 375 0
DWIDTH 6 0
BBX 7 9 -1 -2
BITMAP
7E
54
54
FE
D6
FE
54
54
FC
ENDCHAR
STARTCHAR char8755
ENCODING 8755
SWIDTH 375 0
DWIDTH 6 0
BBX 5 4 0 0
BITMAP
20
00
00
88
ENDCHAR
STARTCHAR char8755
ENCODING 8756
SWIDTH 375 0
DWIDTH 6 0
BBX 5 4 0 0
BITMAP
88
00
00
20
ENDCHAR
STARTCHAR char8755
ENCODING 8757
SWIDTH 375 0
DWIDTH 6 0
BBX 1 4 2 0
BITMAP
80
00
00
80
ENDCHAR
STARTCHAR char8755
ENCODING 8758
SWIDTH 375 0
DWIDTH 6 0
BBX 5 4 0 0
BITMAP
88
00
00
88
ENDCHAR
STARTCHAR char8770
ENCODING 8770
SWIDTH 375 0
DWIDTH 6 0
BBX 5 4 0 0
BITMAP
F8
00
E8
B8
ENDCHAR
STARTCHAR char8770
ENCODING 8771
SWIDTH 375 0
DWIDTH 6 0
BBX 5 4 0 1
BITMAP
E8
B8
00
F8
ENDCHAR
STARTCHAR char8770
ENCODING 8772
SWIDTH 375 0
DWIDTH 6 0
BBX 5 6 0 0
BITMAP
10
F8
B8
20
F8
40
ENDCHAR
STARTCHAR char8770
ENCODING 8773
SWIDTH 375 0
DWIDTH 6 0
BBX 5 8 0 0
BITMAP
E8
B8
00
10
F8
20
F8
40
ENDCHAR
STARTCHAR char8770
ENCODING 8774
SWIDTH 375 0
DWIDTH 6 0
BBX 5 8 0 0
BITMAP
10
F8
B8
20
F8
20
F8
40
ENDCHAR
STARTCHAR char8775
ENCODING 8775
SWIDTH 375 0
DWIDTH 6 0
BBX 5 5 0 1
BITMAP
E8
B8
00
E8
B8
ENDCHAR
STARTCHAR char8775
ENCODING 8776
SWIDTH 375 0
DWIDTH 6 0
BBX 5 9 0 -1
BITMAP
10
10
E8
B8
20
E8
B8
40
40
ENDCHAR
STARTCHAR char8775
ENCODING 8777
SWIDTH 375 0
DWIDTH 6 0
BBX 5 7 0 1
BITMAP
E8
B8
00
E8
B8
00
F8
ENDCHAR
STARTCHAR char8775
ENCODING 8778
SWIDTH 375 0
DWIDTH 6 0
BBX 5 8 0 0
BITMAP
E8
B8
00
E8
B8
00
E8
B8
ENDCHAR
STARTCHAR char8788
ENCODING 8788
SWIDTH 375 0
DWIDTH 6 0
BBX 5 3 0 1
BITMAP
B8
00
B8
ENDCHAR
STARTCHAR char8789
ENCODING 8789
SWIDTH 375 0
DWIDTH 6 0
BBX 5 3 0 1
BITMAP
E8
00
E8
ENDCHAR
STARTCHAR char8799
ENCODING 8799
SWIDTH 375 0
DWIDTH 6 0
BBX 5 9 0 0
BITMAP
70
10
30
00
20
00
F8
00
F8
ENDCHAR
STARTCHAR notequal
ENCODING 8800
SWIDTH 375 0
DWIDTH 6 0
BBX 5 7 0 -1
BITMAP
10
10
F8
20
F8
40
40
ENDCHAR
STARTCHAR char8801
ENCODING 8801
SWIDTH 375 0
DWIDTH 6 0
BBX 5 5 0 0
BITMAP
F8
00
F8
00
F8
ENDCHAR
STARTCHAR char8802
ENCODING 8802
SWIDTH 375 0
DWIDTH 6 0
BBX 5 7 0 -1
BITMAP
10
F8
20
F8
20
F8
40
ENDCHAR
STARTCHAR char8803
ENCODING 8803
SWIDTH 375 0
DWIDTH 6 0
BBX 5 7 0 0
BITMAP
F8
00
F8
00
F8
00
F8
ENDCHAR
STARTCHAR char8804
ENCODING 8804
SWIDTH 375 0
DWIDTH 6 0
BBX 5 7 0 1
BITMAP
38
E0
80
E0
38
00
F8
ENDCHAR
STARTCHAR char8804
ENCODING 8805
SWIDTH 375 0
DWIDTH 6 0
BBX 5 7 0 1
BITMAP
E0
38
08
38
E0
00
F8
ENDCHAR
STARTCHAR char8804
ENCODING 8806
SWIDTH 375 0
DWIDTH 6 0
BBX 5 9 0 -1
BITMAP
38
E0
80
E0
38
00
F8
00
F8
ENDCHAR
STARTCHAR char8804
ENCODING 8807
SWIDTH 375 0
DWIDTH 6 0
BBX 5 9 0 -1
BITMAP
E0
38
08
38
E0
00
F8
00
F8
ENDCHAR
STARTCHAR char8804
ENCODING 8808
SWIDTH 375 0
DWIDTH 6 0
BBX 5 10 0 -2
BITMAP
38
E0
80
E0
38
10
F8
20
F8
40
ENDCHAR
STARTCHAR char8804
ENCODING 8809
SWIDTH 375 0
DWIDTH 6 0
BBX 5 10 0 -2
BITMAP
E0
38
08
38
E0
10
F8
20
F8
40
ENDCHAR
STARTCHAR char8814
ENCODING 8814
SWIDTH 375 0
DWIDTH 6 0
BBX 5 9 0 -2
BITMAP
10
10
38
E0
A0
E0
78
40
40
ENDCHAR
STARTCHAR char8814
ENCODING 8815
SWIDTH 375 0
DWIDTH 6 0
BBX 5 9 0 -2
BITMAP
10
10
F0
38
28
38
E0
40
40
ENDCHAR
STARTCHAR char8814
ENCODING 8816
SWIDTH 375 0
DWIDTH 6 0
BBX 5 9 0 -1
BITMAP
10
38
E0
A0
E0
78
40
F8
40
ENDCHAR
STARTCHAR char8814
ENCODING 8817
SWIDTH 375 0
DWIDTH 6 0
BBX 5 9 0 -1
BITMAP
10
F0
38
28
38
E0
40
F8
40
ENDCHAR
STARTCHAR char8804
ENCODING 8818
SWIDTH 375 0
DWIDTH 6 0
BBX 5 8 0 0
BITMAP
38
E0
80
E0
38
00
E8
B8
ENDCHAR
STARTCHAR char8804
ENCODING 8819
SWIDTH 375 0
DWIDTH 6 0
BBX 5 8 0 0
BITMAP
E0
38
08
38
E0
00
E8
B8
ENDCHAR
STARTCHAR char8804
ENCODING 8820
SWIDTH 375 0
DWIDTH 6 0
BBX 5 11 0 -2
BITMAP
10
38
E0
A0
E0
38
20
E8
B8
40
40
ENDCHAR
STARTCHAR char8804
ENCODING 8821
SWIDTH 375 0
DWIDTH 6 0
BBX 5 11 0 -2
BITMAP
10
F0
38
28
38
E0
20
E8
B8
40
40
ENDCHAR
STARTCHAR uni229E
ENCODING 8862
SWIDTH 375 0
DWIDTH 6 0
BBX 5 5 0 0
BITMAP
F8
A8
F8
A8
F8
ENDCHAR
STARTCHAR uni229F
ENCODING 8863
SWIDTH 375 0
DWIDTH 6 0
BBX 5 5 0 0
BITMAP
F8
88
F8
88
F8
ENDCHAR
STARTCHAR SF100000
ENCODING 9472
SWIDTH 375 0
DWIDTH 6 0
BBX 6 1 0 3
BITMAP
FC
ENDCHAR
STARTCHAR uni2501
ENCODING 9473
SWIDTH 375 0
DWIDTH 6 0
BBX 6 2 0 3
BITMAP
FC
FC
ENDCHAR
STARTCHAR SF110000
ENCODING 9474
SWIDTH 375 0
DWIDTH 6 0
BBX 1 12 2 -3
BITMAP
80
80
80
80
80
80
80
80
80
80
80
80
ENDCHAR
STARTCHAR uni2503
ENCODING 9475
SWIDTH 375 0
DWIDTH 6 0
BBX 2 12 1 -3
BITMAP
C0
C0
C0
C0
C0
C0
C0
C0
C0
C0
C0
C0
ENDCHAR
STARTCHAR uni2504
ENCODING 9476
SWIDTH 375 0
DWIDTH 6 0
BBX 5 1 0 3
BITMAP
A8
ENDCHAR
STARTCHAR uni2505
ENCODING 9477
SWIDTH 375 0
DWIDTH 6 0
BBX 5 2 0 3
BITMAP
A8
A8
ENDCHAR
STARTCHAR uni2506
ENCODING 9478
SWIDTH 375 0
DWIDTH 6 0
BBX 3 11 0 -3
BITMAP
20
20
00
20
20
00
20
20
00
20
20
ENDCHAR
STARTCHAR uni2507
ENCODING 9479
SWIDTH 375 0
DWIDTH 6 0
BBX 2 11 1 -3
BITMAP
C0
C0
00
C0
C0
00
C0
C0
00
C0
C0
ENDCHAR
STARTCHAR uni2508
ENCODING 9480
SWIDTH 375 0
DWIDTH 6 0
BBX 5 1 0 3
BITMAP
A8
ENDCHAR
STARTCHAR uni2509
ENCODING 9481
SWIDTH 375 0
DWIDTH 6 0
BBX 5 2 0 3
BITMAP
A8
A8
ENDCHAR
STARTCHAR uni250A
ENCODING 9482
SWIDTH 375 0
DWIDTH 6 0
BBX 3 11 0 -3
BITMAP
20
00
20
00
20
00
20
00
20
00
20
ENDCHAR
STARTCHAR uni250B
ENCODING 9483
SWIDTH 375 0
DWIDTH 6 0
BBX 3 11 0 -3
BITMAP
60
00
60
00
60
00
60
00
60
00
60
ENDCHAR
STARTCHAR SF010000
ENCODING 9484
SWIDTH 375 0
DWIDTH 6 0
BBX 4 7 2 -3
BITMAP
F0
80
80
80
80
80
80
ENDCHAR
STARTCHAR uni250D
ENCODING 9485
SWIDTH 375 0
DWIDTH 6 0
BBX 6 8 0 -3
BITMAP
3C
3C
20
20
20
20
20
20
ENDCHAR
STARTCHAR uni250E
ENCODING 9486
SWIDTH 375 0
DWIDTH 6 0
BBX 5 7 1 -3
BITMAP
F8
C0
C0
C0
C0
C0
C0
ENDCHAR
STARTCHAR uni250F
ENCODING 9487
SWIDTH 375 0
DWIDTH 6 0
BBX 6 8 0 -3
BITMAP
7C
7C
60
60
60
60
60
60
ENDCHAR
STARTCHAR SF030000
ENCODING 9488
SWIDTH 375 0
DWIDTH 6 0
BBX 4 7 -1 -3
BITMAP
F0
10
10
10
10
10
10
ENDCHAR
STARTCHAR uni2511
ENCODING 9489
SWIDTH 375 0
DWIDTH 6 0
BBX 4 8 -1 -3
BITMAP
F0
F0
10
10
10
10
10
10
ENDCHAR
STARTCHAR uni2512
ENCODING 9490
SWIDTH 375 0
DWIDTH 6 0
BBX 4 7 -1 -3
BITMAP
F0
30
30
30
30
30
30
ENDCHAR
STARTCHAR uni2513
ENCODING 9491
SWIDTH 375 0
DWIDTH 6 0
BBX 4 8 -1 -3
BITMAP
F0
F0
30
30
30
30
30
30
ENDCHAR
STARTCHAR SF020000
ENCODING 9492
SWIDTH 375 0
DWIDTH 6 0
BBX 4 6 2 3
BITMAP
80
80
80
80
80
F0
ENDCHAR
STARTCHAR uni2515
ENCODING 9493
SWIDTH 375 0
DWIDTH 6 0
BBX 4 6 2 3
BITMAP
80
80
80
80
F0
F0
ENDCHAR
STARTCHAR uni2516
ENCODING 9494
SWIDTH 375 0
DWIDTH 6 0
BBX 5 6 1 3
BITMAP
C0
C0
C0
C0
C0
F8
ENDCHAR
STARTCHAR uni2517
ENCODING 9495
SWIDTH 375 0
DWIDTH 6 0
BBX 5 6 1 3
BITMAP
C0
C0
C0
C0
F8
F8
ENDCHAR
STARTCHAR SF040000
ENCODING 9496
SWIDTH 375 0
DWIDTH 6 0
BBX 4 6 -1 3
BITMAP
10
10
10
10
10
F0
ENDCHAR
STARTCHAR uni2519
ENCODING 9497
SWIDTH 375 0
DWIDTH 6 0
BBX 4 6 -1 3
BITMAP
10
10
10
10
F0
F0
ENDCHAR
STARTCHAR uni251A
ENCODING 9498
SWIDTH 375 0
DWIDTH 6 0
BBX 4 6 -1 3
BITMAP
30
30
30
30
30
F0
ENDCHAR
STARTCHAR uni251B
ENCODING 9499
SWIDTH 375 0
DWIDTH 6 0
BBX 4 6 -1 3
BITMAP
30
30
30
30
F0
F0
ENDCHAR
STARTCHAR SF080000
ENCODING 9500
SWIDTH 375 0
DWIDTH 6 0
BBX 4 12 2 -3
BITMAP
80
80
80
80
80
F0
80
80
80
80
80
80
ENDCHAR
STARTCHAR uni251D
ENCODING 9501
SWIDTH 375 0
DWIDTH 6 0
BBX 4 12 2 -3
BITMAP
80
80
80
80
F0
F0
80
80
80
80
80
80
ENDCHAR
STARTCHAR uni251E
ENCODING 9502
SWIDTH 375 0
DWIDTH 6 0
BBX 5 12 1 -3
BITMAP
C0
C0
C0
C0
C0
F8
40
40
40
40
40
40
ENDCHAR
STARTCHAR uni251F
ENCODING 9503
SWIDTH 375 0
DWIDTH 6 0
BBX 5 12 1 -3
BITMAP
40
40
40
40
40
F8
C0
C0
C0
C0
C0
C0
ENDCHAR
STARTCHAR uni2520
ENCODING 9504
SWIDTH 375 0
DWIDTH 6 0
BBX 6 12 0 -3
BITMAP
60
60
60
60
60
7C
60
60
60
60
60
60
ENDCHAR
STARTCHAR uni2521
ENCODING 9505
SWIDTH 375 0
DWIDTH 6 0
BBX 5 12 1 -3
BITMAP
C0
C0
C0
C0
F8
F8
40
40
40
40
40
40
ENDCHAR
STARTCHAR uni2522
ENCODING 9506
SWIDTH 375 0
DWIDTH 6 0
BBX 5 12 1 -3
BITMAP
40
40
40
40
F8
F8
C0
C0
C0
C0
C0
C0
ENDCHAR
STARTCHAR uni2523
ENCODING 9507
SWIDTH 375 0
DWIDTH 6 0
BBX 6 12 0 -3
BITMAP
60
60
60
60
7C
7C
60
60
60
60
60
60
ENDCHAR
STARTCHAR SF090000
ENCODING 9508
SWIDTH 375 0
DWIDTH 6 0
BBX 4 12 -1 -3
BITMAP
10
10
10
10
10
F0
10
10
10
10
10
10
ENDCHAR
STARTCHAR uni2525
ENCODING 9509
SWIDTH 375 0
DWIDTH 6 0
BBX 4 12 -1 -3
BITMAP
10
10
10
10
F0
F0
10
10
10
10
10
10
ENDCHAR
STARTCHAR uni2526
ENCODING 9510
SWIDTH 375 0
DWIDTH 6 0
BBX 4 12 -1 -3
BITMAP
30
30
30
30
30
F0
10
10
10
10
10
10
ENDCHAR
STARTCHAR uni2527
ENCODING 9511
SWIDTH 375 0
DWIDTH 6 0
BBX 4 12 -1 -3
BITMAP
10
10
10
10
10
F0
30
30
30
30
30
30
ENDCHAR
STARTCHAR uni2528
ENCODING 9512
SWIDTH 375 0
DWIDTH 6 0
BBX 4 12 -1 -3
BITMAP
30
30
30
30
30
F0
30
30
30
30
30
30
ENDCHAR
STARTCHAR uni2529
ENCODING 9513
SWIDTH 375 0
DWIDTH 6 0
BBX 4 12 -1 -3
BITMAP
30
30
30
30
F0
F0
10
10
10
10
10
10
ENDCHAR
STARTCHAR uni252A
ENCODING 9514
SWIDTH 375 0
DWIDTH 6 0
BBX 4 12 -1 -3
BITMAP
10
10
10
10
F0
F0
30
30
30
30
30
30
ENDCHAR
STARTCHAR uni252B
ENCODING 9515
SWIDTH 375 0
DWIDTH 6 0
BBX 4 12 -1 -3
BITMAP
30
30
30
30
F0
F0
30
30
30
30
30
30
ENDCHAR
STARTCHAR SF060000
ENCODING 9516
SWIDTH 375 0
DWIDTH 6 0
BBX 7 7 -1 -3
BITMAP
FE
10
10
10
10
10
10
ENDCHAR
STARTCHAR uni252D
ENCODING 9517
SWIDTH 375 0
DWIDTH 6 0
BBX 7 8 -1 -3
BITMAP
F0
FE
10
10
10
10
10
10
ENDCHAR
STARTCHAR uni252E
ENCODING 9518
SWIDTH 375 0
DWIDTH 6 0
BBX 7 8 -1 -3
BITMAP
1E
FE
10
10
10
10
10
10
ENDCHAR
STARTCHAR uni252F
ENCODING 9519
SWIDTH 375 0
DWIDTH 6 0
BBX 7 8 -1 -3
BITMAP
FE
FE
10
10
10
10
10
10
ENDCHAR
STARTCHAR uni2530
ENCODING 9520
SWIDTH 375 0
DWIDTH 6 0
BBX 7 7 -1 -3
BITMAP
FE
30
30
30
30
30
30
ENDCHAR
STARTCHAR uni2531
ENCODING 9521
SWIDTH 375 0
DWIDTH 6 0
BBX 7 8 -1 -3
BITMAP
F0
FE
30
30
30
30
30
30
ENDCHAR
STARTCHAR uni2532
ENCODING 9522
SWIDTH 375 0
DWIDTH 6 0
BBX 7 8 -1 -3
BITMAP
3E
FE
30
30
30
30
30
30
ENDCHAR
STARTCHAR uni2533
ENCODING 9523
SWIDTH 375 0
DWIDTH 6 0
BBX 7 8 -1 -3
BITMAP
FE
FE
30
30
30
30
30
30
ENDCHAR
STARTCHAR SF070000
ENCODING 9524
SWIDTH 375 0
DWIDTH 6 0
BBX 7 6 -1 3
BITMAP
10
10
10
10
10
FE
ENDCHAR
STARTCHAR uni2535
ENCODING 9525
SWIDTH 375 0
DWIDTH 6 0
BBX 7 6 -1 3
BITMAP
10
10
10
10
F0
FE
ENDCHAR
STARTCHAR uni2536
ENCODING 9526
SWIDTH 375 0
DWIDTH 6 0
BBX 7 6 -1 3
BITMAP
10
10
10
10
1E
FE
ENDCHAR
STARTCHAR uni2537
ENCODING 9527
SWIDTH 375 0
DWIDTH 6 0
BBX 7 6 -1 3
BITMAP
10
10
10
10
FE
FE
ENDCHAR
STARTCHAR uni2538
ENCODING 9528
SWIDTH 375 0
DWIDTH 6 0
BBX 7 6 -1 3
BITMAP
30
30
30
30
30
FE
ENDCHAR
STARTCHAR uni2539
ENCODING 9529
SWIDTH 375 0
DWIDTH 6 0
BBX 7 6 -1 3
BITMAP
30
30
30
30
F0
FE
ENDCHAR
STARTCHAR uni253A
ENCODING 9530
SWIDTH 375 0
DWIDTH 6 0
BBX 7 6 -1 3
BITMAP
30
30
30
30
3E
FE
ENDCHAR
STARTCHAR uni253B
ENCODING 9531
SWIDTH 375 0
DWIDTH 6 0
BBX 7 6 -1 3
BITMAP
30
30
30
30
FE
FE
ENDCHAR
STARTCHAR SF050000
ENCODING 9532
SWIDTH 375 0
DWIDTH 6 0
BBX 7 12 -1 -3
BITMAP
10
10
10
10
10
FE
10
10
10
10
10
10
ENDCHAR
STARTCHAR uni253D
ENCODING 9533
SWIDTH 375 0
DWIDTH 6 0
BBX 7 12 -1 -3
BITMAP
10
10
10
10
F0
FE
10
10
10
10
10
10
ENDCHAR
STARTCHAR uni253E
ENCODING 9534
SWIDTH 375 0
DWIDTH 6 0
BBX 7 12 -1 -3
BITMAP
10
10
10
10
1E
FE
10
10
10
10
10
10
ENDCHAR
STARTCHAR uni253F
ENCODING 9535
SWIDTH 375 0
DWIDTH 6 0
BBX 7 12 -1 -3
BITMAP
10
10
10
10
FE
FE
10
10
10
10
10
10
ENDCHAR
STARTCHAR uni2540
ENCODING 9536
SWIDTH 375 0
DWIDTH 6 0
BBX 7 12 -1 -3
BITMAP
30
30
30
30
30
FE
10
10
10
10
10
10
ENDCHAR
STARTCHAR uni2541
ENCODING 9537
SWIDTH 375 0
DWIDTH 6 0
BBX 7 12 -1 -3
BITMAP
10
10
10
10
10
FE
30
30
30
30
30
30
ENDCHAR
STARTCHAR uni2542
ENCODING 9538
SWIDTH 375 0
DWIDTH 6 0
BBX 7 12 -1 -3
BITMAP
30
30
30
30
30
FE
30
30
30
30
30
30
ENDCHAR
STARTCHAR uni2543
ENCODING 9539
SWIDTH 375 0
DWIDTH 6 0
BBX 7 12 -1 -3
BITMAP
30
30
30
30
F0
FE
10
10
10
10
10
10
ENDCHAR
STARTCHAR uni2544
ENCODING 9540
SWIDTH 375 0
DWIDTH 6 0
BBX 7 12 -1 -3
BITMAP
30
30
30
30
3E
FE
10
10
10
10
10
10
ENDCHAR
STARTCHAR uni2545
ENCODING 9541
SWIDTH 375 0
DWIDTH 6 0
BBX 7 12 -1 -3
BITMAP
10
10
10
10
F0
FE
30
30
30
30
30
30
ENDCHAR
STARTCHAR uni2546
ENCODING 9542
SWIDTH 375 0
DWIDTH 6 0
BBX 7 12 -1 -3
BITMAP
10
10
10
10
3E
FE
30
30
30
30
30
30
ENDCHAR
STARTCHAR uni2547
ENCODING 9543
SWIDTH 375 0
DWIDTH 6 0
BBX 7 12 -1 -3
BITMAP
30
30
30
30
FE
FE
10
10
10
10
10
10
ENDCHAR
STARTCHAR uni2548
ENCODING 9544
SWIDTH 375 0
DWIDTH 6 0
BBX 7 12 -1 -3
BITMAP
10
10
10
10
FE
FE
30
30
30
30
30
30
ENDCHAR
STARTCHAR uni2549
ENCODING 9545
SWIDTH 375 0
DWIDTH 6 0
BBX 7 12 -1 -3
BITMAP
30
30
30
30
F0
FE
30
30
30
30
30
30
ENDCHAR
STARTCHAR uni254A
ENCODING 9546
SWIDTH 375 0
DWIDTH 6 0
BBX 7 12 -1 -3
BITMAP
30
30
30
30
3E
FE
30
30
30
30
30
30
ENDCHAR
STARTCHAR uni254B
ENCODING 9547
SWIDTH 375 0
DWIDTH 6 0
BBX 7 12 -1 -3
BITMAP
30
30
30
30
FE
FE
30
30
30
30
30
30
ENDCHAR
STARTCHAR uni254C
ENCODING 9548
SWIDTH 375 0
DWIDTH 6 0
BBX 6 1 0 3
BITMAP
DC
ENDCHAR
STARTCHAR uni254D
ENCODING 9549
SWIDTH 375 0
DWIDTH 6 0
BBX 6 2 0 3
BITMAP
DC
DC
ENDCHAR
STARTCHAR uni254E
ENCODING 9550
SWIDTH 375 0
DWIDTH 6 0
BBX 1 12 2 -3
BITMAP
80
80
80
80
80
00
80
80
80
80
80
80
ENDCHAR
STARTCHAR uni254F
ENCODING 9551
SWIDTH 375 0
DWIDTH 6 0
BBX 2 12 1 -3
BITMAP
C0
C0
C0
C0
C0
00
C0
C0
C0
C0
C0
C0
ENDCHAR
STARTCHAR SF430000
ENCODING 9552
SWIDTH 375 0
DWIDTH 6 0
BBX 6 3 0 2
BITMAP
FC
00
FC
ENDCHAR
STARTCHAR SF240000
ENCODING 9553
SWIDTH 375 0
DWIDTH 6 0
BBX 4 12 0 -3
BITMAP
50
50
50
50
50
50
50
50
50
50
50
50
ENDCHAR
STARTCHAR SF510000
ENCODING 9554
SWIDTH 375 0
DWIDTH 6 0
BBX 4 8 2 -3
BITMAP
F0
80
F0
80
80
80
80
80
ENDCHAR
STARTCHAR SF520000
ENCODING 9555
SWIDTH 375 0
DWIDTH 6 0
BBX 6 7 0 -3
BITMAP
7C
50
50
50
50
50
50
ENDCHAR
STARTCHAR SF390000
ENCODING 9556
SWIDTH 375 0
DWIDTH 6 0
BBX 5 8 1 -3
BITMAP
F8
80
B8
A0
A0
A0
A0
A0
ENDCHAR
STARTCHAR SF220000
ENCODING 9557
SWIDTH 375 0
DWIDTH 6 0
BBX 4 8 -1 -3
BITMAP
F0
10
F0
10
10
10
10
10
ENDCHAR
STARTCHAR SF210000
ENCODING 9558
SWIDTH 375 0
DWIDTH 6 0
BBX 5 7 -1 -3
BITMAP
F8
28
28
28
28
28
28
ENDCHAR
STARTCHAR SF250000
ENCODING 9559
SWIDTH 375 0
DWIDTH 6 0
BBX 5 8 -1 -3
BITMAP
F8
08
E8
28
28
28
28
28
ENDCHAR
STARTCHAR SF500000
ENCODING 9560
SWIDTH 375 0
DWIDTH 6 0
BBX 4 7 2 2
BITMAP
80
80
80
80
F0
80
F0
ENDCHAR
STARTCHAR SF490000
ENCODING 9561
SWIDTH 375 0
DWIDTH 6 0
BBX 5 6 1 3
BITMAP
A0
A0
A0
A0
A0
F8
ENDCHAR
STARTCHAR SF380000
ENCODING 9562
SWIDTH 375 0
DWIDTH 6 0
BBX 5 7 1 2
BITMAP
A0
A0
A0
A0
B8
80
F8
ENDCHAR
STARTCHAR SF280000
ENCODING 9563
SWIDTH 375 0
DWIDTH 6 0
BBX 4 7 -1 2
BITMAP
10
10
10
10
F0
10
F0
ENDCHAR
STARTCHAR SF270000
ENCODING 9564
SWIDTH 375 0
DWIDTH 6 0
BBX 5 6 -1 3
BITMAP
28
28
28
28
28
F8
ENDCHAR
STARTCHAR SF260000
ENCODING 9565
SWIDTH 375 0
DWIDTH 6 0
BBX 5 7 -1 2
BITMAP
28
28
28
28
E8
08
F8
ENDCHAR
STARTCHAR SF360000
ENCODING 9566
SWIDTH 375 0
DWIDTH 6 0
BBX 4 12 2 -3
BITMAP
80
80
80
80
F0
80
F0
80
80
80
80
80
ENDCHAR
STARTCHAR SF370000
ENCODING 9567
SWIDTH 375 0
DWIDTH 6 0
BBX 5 12 1 -3
BITMAP
A0
A0
A0
A0
A0
B8
A0
A0
A0
A0
A0
A0
ENDCHAR
STARTCHAR SF420000
ENCODING 9568
SWIDTH 375 0
DWIDTH 6 0
BBX 6 12 0 -3
BITMAP
50
50
50
50
5C
40
5C
50
50
50
50
50
ENDCHAR
STARTCHAR SF190000
ENCODING 9569
SWIDTH 375 0
DWIDTH 6 0
BBX 4 12 -1 -3
BITMAP
10
10
10
10
F0
10
F0
10
10
10
10
10
ENDCHAR
STARTCHAR SF200000
ENCODING 9570
SWIDTH 375 0
DWIDTH 6 0
BBX 5 12 -1 -3
BITMAP
28
28
28
28
28
E8
28
28
28
28
28
28
ENDCHAR
STARTCHAR SF230000
ENCODING 9571
SWIDTH 375 0
DWIDTH 6 0
BBX 5 12 -1 -3
BITMAP
28
28
28
28
E8
08
E8
28
28
28
28
28
ENDCHAR
STARTCHAR SF470000
ENCODING 9572
SWIDTH 375 0
DWIDTH 6 0
BBX 7 8 -1 -3
BITMAP
FE
00
FE
10
10
10
10
10
ENDCHAR
STARTCHAR SF480000
ENCODING 9573
SWIDTH 375 0
DWIDTH 6 0
BBX 7 7 -1 -3
BITMAP
FE
28
28
28
28
28
28
ENDCHAR
STARTCHAR SF410000
ENCODING 9574
SWIDTH 375 0
DWIDTH 6 0
BBX 7 8 -1 -3
BITMAP
FE
00
EE
28
28
28
28
28
ENDCHAR
STARTCHAR SF450000
ENCODING 9575
SWIDTH 375 0
DWIDTH 6 0
BBX 7 7 -1 2
BITMAP
10
10
10
10
FE
00
FE
ENDCHAR
STARTCHAR SF460000
ENCODING 9576
SWIDTH 375 0
DWIDTH 6 0
BBX 7 6 -1 3
BITMAP
28
28
28
28
28
FE
ENDCHAR
STARTCHAR SF400000
ENCODING 9577
SWIDTH 375 0
DWIDTH 6 0
BBX 7 7 -1 2
BITMAP
28
28
28
28
EE
00
FE
ENDCHAR
STARTCHAR SF540000
ENCODING 9578
SWIDTH 375 0
DWIDTH 6 0
BBX 7 12 -1 -3
BITMAP
10
10
10
10
FE
00
FE
10
10
10
10
10
ENDCHAR
STARTCHAR SF530000
ENCODING 9579
SWIDTH 375 0
DWIDTH 6 0
BBX 7 12 -1 -3
BITMAP
28
28
28
28
28
EE
28
28
28
28
28
28
ENDCHAR
STARTCHAR SF440000
ENCODING 9580
SWIDTH 375 0
DWIDTH 6 0
BBX 7 12 -1 -3
BITMAP
28
28
28
28
EE
00
EE
28
28
28
28
28
ENDCHAR
STARTCHAR uni256D
ENCODING 9581
SWIDTH 375 0
DWIDTH 6 0
BBX 4 7 2 -3
BITMAP
70
C0
80
80
80
80
80
ENDCHAR
STARTCHAR uni256E
ENCODING 9582
SWIDTH 375 0
DWIDTH 6 0
BBX 4 7 -1 -3
BITMAP
E0
30
10
10
10
10
10
ENDCHAR
STARTCHAR uni256F
ENCODING 9583
SWIDTH 375 0
DWIDTH 6 0
BBX 4 6 -1 3
BITMAP
10
10
10
10
30
E0
ENDCHAR
STARTCHAR uni2570
ENCODING 9584
SWIDTH 375 0
DWIDTH 6 0
BBX 4 6 2 3
BITMAP
80
80
80
80
C0
70
ENDCHAR
STARTCHAR uni2571
ENCODING 9585
SWIDTH 375 0
DWIDTH 6 0
BBX 7 7 -1 0
BITMAP
02
02
1E
10
F0
80
80
ENDCHAR
STARTCHAR uni2572
ENCODING 9586
SWIDTH 375 0
DWIDTH 6 0
BBX 7 7 -1 0
BITMAP
80
80
F0
10
1E
02
02
ENDCHAR
STARTCHAR uni2573
ENCODING 9587
SWIDTH 375 0
DWIDTH 6 0
BBX 7 7 -1 0
BITMAP
82
82
FE
10
FE
82
82
ENDCHAR
STARTCHAR uni2574
ENCODING 9588
SWIDTH 375 0
DWIDTH 6 0
BBX 3 1 0 3
BITMAP
E0
ENDCHAR
STARTCHAR uni2575
ENCODING 9589
SWIDTH 375 0
DWIDTH 6 0
BBX 1 6 2 3
BITMAP
80
80
80
80
80
80
ENDCHAR
STARTCHAR uni2576
ENCODING 9590
SWIDTH 375 0
DWIDTH 6 0
BBX 4 1 2 3
BITMAP
F0
ENDCHAR
STARTCHAR uni2577
ENCODING 9591
SWIDTH 375 0
DWIDTH 6 0
BBX 1 7 2 -3
BITMAP
80
80
80
80
80
80
80
ENDCHAR
STARTCHAR uni2578
ENCODING 9592
SWIDTH 375 0
DWIDTH 6 0
BBX 3 2 0 3
BITMAP
E0
E0
ENDCHAR
STARTCHAR uni2579
ENCODING 9593
SWIDTH 375 0
DWIDTH 6 0
BBX 2 6 1 3
BITMAP
C0
C0
C0
C0
C0
C0
ENDCHAR
STARTCHAR uni257A
ENCODING 9594
SWIDTH 375 0
DWIDTH 6 0
BBX 4 2 2 3
BITMAP
F0
F0
ENDCHAR
STARTCHAR uni257B
ENCODING 9595
SWIDTH 375 0
DWIDTH 6 0
BBX 2 7 1 -3
BITMAP
C0
C0
C0
C0
C0
C0
C0
ENDCHAR
STARTCHAR uni257C
ENCODING 9596
SWIDTH 375 0
DWIDTH 6 0
BBX 6 2 0 3
BITMAP
1C
FC
ENDCHAR
STARTCHAR uni257D
ENCODING 9597
SWIDTH 375 0
DWIDTH 6 0
BBX 2 12 1 -3
BITMAP
40
40
40
40
40
40
C0
C0
C0
C0
C0
C0
ENDCHAR
STARTCHAR uni257E
ENCODING 9598
SWIDTH 375 0
DWIDTH 6 0
BBX 6 2 0 3
BITMAP
E0
FC
ENDCHAR
STARTCHAR uni257F
ENCODING 9599
SWIDTH 375 0
DWIDTH 6 0
BBX 2 12 1 -3
BITMAP
C0
C0
C0
C0
C0
C0
40
40
40
40
40
40
ENDCHAR
STARTCHAR uni2581
ENCODING 9601
SWIDTH 375 0
DWIDTH 6 0
BBX 4 1 0 0
BITMAP
F0
ENDCHAR
STARTCHAR uni2582
ENCODING 9602
SWIDTH 375 0
DWIDTH 6 0
BBX 4 2 0 0
BITMAP
F0
F0
ENDCHAR
STARTCHAR uni2583
ENCODING 9603
SWIDTH 375 0
DWIDTH 6 0
BBX 4 3 0 0
BITMAP
F0
F0
F0
ENDCHAR
STARTCHAR dnblock
ENCODING 9604
SWIDTH 375 0
DWIDTH 6 0
BBX 4 4 0 0
BITMAP
F0
F0
F0
F0
ENDCHAR
STARTCHAR uni2585
ENCODING 9605
SWIDTH 375 0
DWIDTH 6 0
BBX 4 5 0 0
BITMAP
F0
F0
F0
F0
F0
ENDCHAR
STARTCHAR uni2586
ENCODING 9606
SWIDTH 375 0
DWIDTH 6 0
BBX 4 6 0 0
BITMAP
F0
F0
F0
F0
F0
F0
ENDCHAR
STARTCHAR uni2587
ENCODING 9607
SWIDTH 375 0
DWIDTH 6 0
BBX 4 7 0 0
BITMAP
F0
F0
F0
F0
F0
F0
F0
ENDCHAR
STARTCHAR block
ENCODING 9608
SWIDTH 375 0
DWIDTH 6 0
BBX 4 8 0 0
BITMAP
F0
F0
F0
F0
F0
F0
F0
F0
ENDCHAR
STARTCHAR uni2589
ENCODING 9609
SWIDTH 375 0
DWIDTH 6 0
BBX 4 8 0 0
BITMAP
F0
F0
F0
F0
F0
F0
F0
F0
ENDCHAR
STARTCHAR uni258A
ENCODING 9610
SWIDTH 375 0
DWIDTH 6 0
BBX 3 8 0 0
BITMAP
E0
E0
E0
E0
E0
E0
E0
E0
ENDCHAR
STARTCHAR uni258B
ENCODING 9611
SWIDTH 375 0
DWIDTH 6 0
BBX 3 8 0 0
BITMAP
E0
E0
E0
E0
E0
E0
E0
E0
ENDCHAR
STARTCHAR lfblock
ENCODING 9612
SWIDTH 375 0
DWIDTH 6 0
BBX 2 8 0 0
BITMAP
C0
C0
C0
C0
C0
C0
C0
C0
ENDCHAR
STARTCHAR uni258D
ENCODING 9613
SWIDTH 375 0
DWIDTH 6 0
BBX 2 8 0 0
BITMAP
C0
C0
C0
C0
C0
C0
C0
C0
ENDCHAR
STARTCHAR uni258E
ENCODING 9614
SWIDTH 375 0
DWIDTH 6 0
BBX 1 8 0 0
BITMAP
80
80
80
80
80
80
80
80
ENDCHAR
STARTCHAR uni258F
ENCODING 9615
SWIDTH 375 0
DWIDTH 6 0
BBX 1 8 0 0
BITMAP
80
80
80
80
80
80
80
80
ENDCHAR
STARTCHAR rtblock
ENCODING 9616
SWIDTH 375 0
DWIDTH 6 0
BBX 4 8 0 0
BITMAP
30
30
30
30
30
30
30
30
ENDCHAR
STARTCHAR shadelight
ENCODING 9617
SWIDTH 375 0
DWIDTH 6 0
BBX 5 10 0 -2
BITMAP
48
00
00
90
00
00
48
00
00
90
ENDCHAR
STARTCHAR shademedium
ENCODING 9618
SWIDTH 375 0
DWIDTH 6 0
BBX 6 11 0 -2
BITMAP
54
00
A8
00
54
00
A8
00
54
00
A8
ENDCHAR
STARTCHAR shadedark
ENCODING 9619
SWIDTH 375 0
DWIDTH 6 0
BBX 6 11 0 -2
BITMAP
A8
54
A8
54
A8
54
A8
54
A8
54
A8
ENDCHAR
STARTCHAR uni2594
ENCODING 9620
SWIDTH 375 0
DWIDTH 6 0
BBX 4 1 0 7
BITMAP
F0
ENDCHAR
STARTCHAR uni2595
ENCODING 9621
SWIDTH 375 0
DWIDTH 6 0
BBX 4 8 0 0
BITMAP
10
10
10
10
10
10
10
10
ENDCHAR
STARTCHAR uni2596
ENCODING 9622
SWIDTH 375 0
DWIDTH 6 0
BBX 2 4 0 0
BITMAP
C0
C0
C0
C0
ENDCHAR
STARTCHAR uni2597
ENCODING 9623
SWIDTH 375 0
DWIDTH 6 0
BBX 4 4 0 0
BITMAP
30
30
30
30
ENDCHAR
STARTCHAR uni2598
ENCODING 9624
SWIDTH 375 0
DWIDTH 6 0
BBX 2 4 0 4
BITMAP
C0
C0
C0
C0
ENDCHAR
STARTCHAR uni2599
ENCODING 9625
SWIDTH 375 0
DWIDTH 6 0
BBX 4 8 0 0
BITMAP
C0
C0
C0
C0
F0
F0
F0
F0
ENDCHAR
STARTCHAR uni259A
ENCODING 9626
SWIDTH 375 0
DWIDTH 6 0
BBX 4 8 0 0
BITMAP
C0
C0
C0
C0
30
30
30
30
ENDCHAR
STARTCHAR uni259B
ENCODING 9627
SWIDTH 375 0
DWIDTH 6 0
BBX 4 8 0 0
BITMAP
F0
F0
F0
F0
F0
C0
C0
C0
ENDCHAR
STARTCHAR uni259C
ENCODING 9628
SWIDTH 375 0
DWIDTH 6 0
BBX 4 8 0 0
BITMAP
F0
F0
F0
F0
30
30
30
30
ENDCHAR
STARTCHAR uni259D
ENCODING 9629
SWIDTH 375 0
DWIDTH 6 0
BBX 2 4 2 4
BITMAP
C0
C0
C0
C0
ENDCHAR
STARTCHAR uni259E
ENCODING 9630
SWIDTH 375 0
DWIDTH 6 0
BBX 4 8 0 0
BITMAP
30
30
30
30
C0
C0
C0
C0
ENDCHAR
STARTCHAR uni259F
ENCODING 9631
SWIDTH 375 0
DWIDTH 6 0
BBX 4 8 0 0
BITMAP
30
30
30
30
F0
F0
F0
F0
ENDCHAR
STARTCHAR filledbox
ENCODING 9632
SWIDTH 375 0
DWIDTH 6 0
BBX 5 5 0 1
BITMAP
F8
F8
F8
F8
F8
ENDCHAR
STARTCHAR whitesquare
ENCODING 9633
SWIDTH 375 0
DWIDTH 6 0
BBX 5 5 0 1
BITMAP
F8
88
88
88
F8
ENDCHAR
STARTCHAR uni25A2
ENCODING 9634
SWIDTH 375 0
DWIDTH 6 0
BBX 5 5 0 1
BITMAP
70
D8
88
D8
70
ENDCHAR
STARTCHAR H18543
ENCODING 9642
SWIDTH 375 0
DWIDTH 6 0
BBX 3 3 1 1
BITMAP
E0
E0
E0
ENDCHAR
STARTCHAR char9643
ENCODING 9643
SWIDTH 375 0
DWIDTH 6 0
BBX 3 3 1 1
BITMAP
E0
A0
E0
ENDCHAR
STARTCHAR triagup
ENCODING 9650
SWIDTH 375 0
DWIDTH 6 0
BBX 5 5 0 0
BITMAP
20
70
D8
88
F8
ENDCHAR
STARTCHAR whiteuppointingtriangle
ENCODING 9651
SWIDTH 375 0
DWIDTH 6 0
BBX 5 4 0 0
BITMAP
20
70
F8
F8
ENDCHAR
STARTCHAR blackuppointingsmalltriangle
ENCODING 9652
SWIDTH 375 0
DWIDTH 6 0
BBX 3 3 1 0
BITMAP
40
E0
E0
ENDCHAR
STARTCHAR uni2600
ENCODING 9728
SWIDTH 375 0
DWIDTH 6 0
BBX 7 7 -1 -1
BITMAP
10
54
38
FE
38
54
10
ENDCHAR
STARTCHAR uni2601
ENCODING 9729
SWIDTH 375 0
DWIDTH 6 0
BBX 6 4 0 1
BITMAP
18
78
FC
FC
ENDCHAR
STARTCHAR uni2602
ENCODING 9730
SWIDTH 375 0
DWIDTH 6 0
BBX 5 7 0 -1
BITMAP
70
F8
F8
20
20
A0
E0
ENDCHAR
STARTCHAR char9731
ENCODING 9731
SWIDTH 375 0
DWIDTH 6 0
BBX 5 10 0 -1
BITMAP
28
80
28
F0
50
F8
88
A8
88
F8
ENDCHAR
STARTCHAR char9732
ENCODING 9732
SWIDTH 375 0
DWIDTH 6 0
BBX 5 9 0 0
BITMAP
48
00
50
00
50
00
E0
A0
E0
ENDCHAR
STARTCHAR char9733
ENCODING 9733
SWIDTH 375 0
DWIDTH 6 0
BBX 5 6 0 2
BITMAP
20
20
F8
70
70
88
ENDCHAR
STARTCHAR char9733
ENCODING 9734
SWIDTH 375 0
DWIDTH 6 0
BBX 5 6 0 2
BITMAP
20
20
F8
50
70
88
ENDCHAR
STARTCHAR char9735
ENCODING 9735
SWIDTH 375 0
DWIDTH 6 0
BBX 5 8 0 0
BITMAP
10
20
40
80
40
20
18
18
ENDCHAR
STARTCHAR char9736
ENCODING 9736
SWIDTH 375 0
DWIDTH 6 0
BBX 5 7 0 1
BITMAP
F8
88
90
A0
A0
98
98
ENDCHAR
STARTCHAR char9737
ENCODING 9737
SWIDTH 375 0
DWIDTH 6 0
BBX 5 5 0 0
BITMAP
F8
88
A8
88
F8
ENDCHAR
STARTCHAR char9738
ENCODING 9738
SWIDTH 375 0
DWIDTH 6 0
BBX 5 6 0 0
BITMAP
F8
88
D8
50
D8
D8
ENDCHAR
STARTCHAR char9738
ENCODING 9739
SWIDTH 375 0
DWIDTH 6 0
BBX 5 6 0 0
BITMAP
D8
D8
50
D8
88
F8
ENDCHAR
STARTCHAR char9740
ENCODING 9740
SWIDTH 375 0
DWIDTH 6 0
BBX 5 5 0 0
BITMAP
08
10
E0
A0
E0
ENDCHAR
STARTCHAR char9741
ENCODING 9741
SWIDTH 375 0
DWIDTH 6 0
BBX 5 7 0 0
BITMAP
38
28
38
20
E0
A0
E0
ENDCHAR
STARTCHAR char9742
ENCODING 9742
SWIDTH 375 0
DWIDTH 6 0
BBX 5 6 0 0
BITMAP
70
D8
00
70
D8
F8
ENDCHAR
STARTCHAR char9742
ENCODING 9743
SWIDTH 375 0
DWIDTH 6 0
BBX 5 9 0 -1
BITMAP
70
88
A8
F8
D8
88
A8
88
F8
ENDCHAR
STARTCHAR char9744
ENCODING 9744
SWIDTH 375 0
DWIDTH 6 0
BBX 5 5 0 1
BITMAP
F8
88
88
88
F8
ENDCHAR
STARTCHAR char9744
ENCODING 9745
SWIDTH 375 0
DWIDTH 6 0
BBX 5 5 0 1
BITMAP
F8
E8
A8
D8
F8
ENDCHAR
STARTCHAR char9744
ENCODING 9746
SWIDTH 375 0
DWIDTH 6 0
BBX 5 5 0 1
BITMAP
F8
A8
D8
A8
F8
ENDCHAR
STARTCHAR char9747
ENCODING 9747
SWIDTH 375 0
DWIDTH 6 0
BBX 5 9 0 -1
BITMAP
88
88
50
50
20
50
50
88
88
ENDCHAR
STARTCHAR uni2602
ENCODING 9748
SWIDTH 375 0
DWIDTH 6 0
BBX 5 10 0 -1
BITMAP
48
20
88
70
F8
F8
20
20
A0
E0
ENDCHAR
STARTCHAR char9749
ENCODING 9749
SWIDTH 375 0
DWIDTH 6 0
BBX 5 9 0 -1
BITMAP
20
40
20
00
F8
F8
F8
70
F8
ENDCHAR
STARTCHAR char9750
ENCODING 9750
SWIDTH 375 0
DWIDTH 6 0
BBX 5 7 0 0
BITMAP
20
70
D8
88
88
88
F8
ENDCHAR
STARTCHAR char9750
ENCODING 9751
SWIDTH 375 0
DWIDTH 6 0
BBX 5 6 0 0
BITMAP
20
70
F8
F8
F8
F8
ENDCHAR
STARTCHAR char9752
ENCODING 9752
SWIDTH 375 0
DWIDTH 6 0
BBX 5 8 0 0
BITMAP
70
70
20
F8
F8
D8
20
70
ENDCHAR
STARTCHAR char9753
ENCODING 9753
SWIDTH 375 0
DWIDTH 6 0
BBX 6 5 -1 -1
BITMAP
04
18
BC
78
04
ENDCHAR
STARTCHAR char9754
ENCODING 9754
SWIDTH 375 0
DWIDTH 6 0
BBX 6 4 -1 0
BITMAP
FC
3C
3C
1C
ENDCHAR
STARTCHAR char9754
ENCODING 9755
SWIDTH 375 0
DWIDTH 6 0
BBX 6 4 0 0
BITMAP
FC
F0
F0
E0
ENDCHAR
STARTCHAR char9754
ENCODING 9756
SWIDTH 375 0
DWIDTH 6 0
BBX 6 4 -1 0
BITMAP
FC
24
24
1C
ENDCHAR
STARTCHAR char9754
ENCODING 9757
SWIDTH 375 0
DWIDTH 6 0
BBX 4 6 0 0
BITMAP
10
10
70
90
90
F0
ENDCHAR
STARTCHAR char9754
ENCODING 9758
SWIDTH 375 0
DWIDTH 6 0
BBX 6 4 0 0
BITMAP
FC
90
90
E0
ENDCHAR
STARTCHAR char9754
ENCODING 9759
SWIDTH 375 0
DWIDTH 6 0
BBX 4 6 0 -2
BITMAP
F0
90
90
70
10
10
ENDCHAR
STARTCHAR char9760
ENCODING 9760
SWIDTH 375 0
DWIDTH 6 0
BBX 7 7 -1 0
BITMAP
7C
44
6C
D6
28
38
C6
ENDCHAR
STARTCHAR char9761
ENCODING 9761
SWIDTH 375 0
DWIDTH 6 0
BBX 5 7 0 -1
BITMAP
70
90
10
70
40
48
70
ENDCHAR
STARTCHAR char9762
ENCODING 9762
SWIDTH 375 0
DWIDTH 6 0
BBX 5 9 0 -1
BITMAP
F8
88
D8
F8
D8
F8
A8
20
F8
ENDCHAR
STARTCHAR char9763
ENCODING 9763
SWIDTH 375 0
DWIDTH 6 0
BBX 6 7 -1 0
BITMAP
48
48
78
B4
30
48
84
ENDCHAR
STARTCHAR char9764
ENCODING 9764
SWIDTH 375 0
DWIDTH 6 0
BBX 7 11 -1 -2
BITMAP
38
10
7C
BA
10
7C
10
38
10
38
10
ENDCHAR
STARTCHAR char9765
ENCODING 9765
SWIDTH 375 0
DWIDTH 6 0
BBX 5 9 0 -1
BITMAP
70
50
70
20
F8
20
20
20
20
ENDCHAR
STARTCHAR char9766
ENCODING 9766
SWIDTH 375 0
DWIDTH 6 0
BBX 5 8 0 0
BITMAP
20
70
20
F8
20
60
30
20
ENDCHAR
STARTCHAR char9767
ENCODING 9767
SWIDTH 375 0
DWIDTH 6 0
BBX 5 10 0 -1
BITMAP
38
28
38
20
A8
70
20
70
A8
20
ENDCHAR
STARTCHAR char9768
ENCODING 9768
SWIDTH 375 0
DWIDTH 6 0
BBX 5 7 0 0
BITMAP
20
70
20
F8
20
20
20
ENDCHAR
STARTCHAR char9769
ENCODING 9769
SWIDTH 375 0
DWIDTH 6 0
BBX 5 7 0 0
BITMAP
70
20
A8
F8
A8
20
70
ENDCHAR
STARTCHAR char9770
ENCODING 9770
SWIDTH 375 0
DWIDTH 6 0
BBX 6 9 0 -1
BITMAP
F0
F0
C0
D4
C8
D4
C0
F0
F0
ENDCHAR
STARTCHAR char9771
ENCODING 9771
SWIDTH 375 0
DWIDTH 6 0
BBX 5 8 0 -1
BITMAP
20
20
A8
F8
F8
A8
20
70
ENDCHAR
STARTCHAR char9772
ENCODING 9772
SWIDTH 375 0
DWIDTH 6 0
BBX 5 9 0 -1
BITMAP
20
A8
F8
A8
A8
F8
70
A8
70
ENDCHAR
STARTCHAR char9773
ENCODING 9773
SWIDTH 375 0
DWIDTH 6 0
BBX 5 9 0 -2
BITMAP
F0
10
D0
F8
D0
10
F0
60
60
ENDCHAR
STARTCHAR char9774
ENCODING 9774
SWIDTH 375 0
DWIDTH 6 0
BBX 7 7 -1 -2
BITMAP
FE
92
92
BA
D6
92
FE
ENDCHAR
STARTCHAR char9775
ENCODING 9775
SWIDTH 375 0
DWIDTH 6 0
BBX 5 8 0 0
BITMAP
F8
98
D8
98
B8
A8
B8
F8
ENDCHAR
STARTCHAR char9776
ENCODING 9776
SWIDTH 375 0
DWIDTH 6 0
BBX 5 7 0 0
BITMAP
F8
00
00
F8
00
00
F8
ENDCHAR
STARTCHAR char9776
ENCODING 9777
SWIDTH 375 0
DWIDTH 6 0
BBX 5 7 0 0
BITMAP
D8
00
00
F8
00
00
F8
ENDCHAR
STARTCHAR char9776
ENCODING 9778
SWIDTH 375 0
DWIDTH 6 0
BBX 5 7 0 0
BITMAP
F8
00
00
D8
00
00
F8
ENDCHAR
STARTCHAR char9776
ENCODING 9779
SWIDTH 375 0
DWIDTH 6 0
BBX 5 7 0 0
BITMAP
D8
00
00
D8
00
00
F8
ENDCHAR
STARTCHAR char9776
ENCODING 9780
SWIDTH 375 0
DWIDTH 6 0
BBX 5 7 0 0
BITMAP
F8
00
00
F8
00
00
D8
ENDCHAR
STARTCHAR char9776
ENCODING 9781
SWIDTH 375 0
DWIDTH 6 0
BBX 5 7 0 0
BITMAP
D8
00
00
F8
00
00
D8
ENDCHAR
STARTCHAR char9776
ENCODING 9782
SWIDTH 375 0
DWIDTH 6 0
BBX 5 7 0 0
BITMAP
F8
00
00
D8
00
00
D8
ENDCHAR
STARTCHAR char9776
ENCODING 9783
SWIDTH 375 0
DWIDTH 6 0
BBX 5 7 0 0
BITMAP
D8
00
00
D8
00
00
D8
ENDCHAR
STARTCHAR char9784
ENCODING 9784
SWIDTH 375 0
DWIDTH 6 0
BBX 7 9 -1 -2
BITMAP
10
BA
54
7C
EE
7C
54
BA
10
ENDCHAR
STARTCHAR char9785
ENCODING 9785
SWIDTH 375 0
DWIDTH 6 0
BBX 6 8 -1 0
BITMAP
FC
84
CC
84
B4
CC
84
FC
ENDCHAR
STARTCHAR char9785
ENCODING 9786
SWIDTH 375 0
DWIDTH 6 0
BBX 6 8 -1 0
BITMAP
FC
84
CC
84
CC
B4
84
FC
ENDCHAR
STARTCHAR char9785
ENCODING 9787
SWIDTH 375 0
DWIDTH 6 0
BBX 6 8 -1 0
BITMAP
FC
B4
B4
FC
FC
B4
84
FC
ENDCHAR
STARTCHAR char9788
ENCODING 9788
SWIDTH 375 0
DWIDTH 6 0
BBX 5 5 0 0
BITMAP
A8
70
D8
70
A8
ENDCHAR
STARTCHAR char9789
ENCODING 9789
SWIDTH 375 0
DWIDTH 6 0
BBX 5 7 0 -1
BITMAP
F8
88
E8
28
E8
88
F8
ENDCHAR
STARTCHAR char9789
ENCODING 9790
SWIDTH 375 0
DWIDTH 6 0
BBX 5 7 0 -1
BITMAP
F8
88
B8
A0
B8
88
F8
ENDCHAR
STARTCHAR char9791
ENCODING 9791
SWIDTH 375 0
DWIDTH 6 0
BBX 5 8 0 -2
BITMAP
88
D8
70
50
70
20
70
20
ENDCHAR
STARTCHAR char9792
ENCODING 9792
SWIDTH 375 0
DWIDTH 6 0
BBX 3 6 1 -2
BITMAP
E0
A0
E0
40
E0
40
ENDCHAR
STARTCHAR char9792
ENCODING 9793
SWIDTH 375 0
DWIDTH 6 0
BBX 3 6 1 1
BITMAP
40
E0
40
E0
A0
E0
ENDCHAR
STARTCHAR char9794
ENCODING 9794
SWIDTH 375 0
DWIDTH 6 0
BBX 5 5 0 0
BITMAP
38
18
E8
A0
E0
ENDCHAR
STARTCHAR char9795
ENCODING 9795
SWIDTH 375 0
DWIDTH 6 0
BBX 5 7 0 -1
BITMAP
08
08
E8
A8
28
F8
08
ENDCHAR
STARTCHAR char9796
ENCODING 9796
SWIDTH 375 0
DWIDTH 6 0
BBX 5 7 -1 0
BITMAP
40
E0
40
78
48
48
58
ENDCHAR
STARTCHAR char9797
ENCODING 9797
SWIDTH 375 0
DWIDTH 6 0
BBX 7 9 -1 -2
BITMAP
D6
54
7C
54
D6
10
38
28
38
ENDCHAR
STARTCHAR char9798
ENCODING 9798
SWIDTH 375 0
DWIDTH 6 0
BBX 7 11 -1 -2
BITMAP
10
38
10
54
FE
54
54
7C
10
38
10
ENDCHAR
STARTCHAR char9799
ENCODING 9799
SWIDTH 375 0
DWIDTH 6 0
BBX 5 7 0 0
BITMAP
F8
88
88
88
F8
80
F8
ENDCHAR
STARTCHAR char9800
ENCODING 9800
SWIDTH 375 0
DWIDTH 6 0
BBX 7 7 -1 0
BITMAP
EE
AA
28
38
10
10
10
ENDCHAR
STARTCHAR char9801
ENCODING 9801
SWIDTH 375 0
DWIDTH 6 0
BBX 5 8 0 0
BITMAP
88
D8
50
F8
88
88
88
F8
ENDCHAR
STARTCHAR char9802
ENCODING 9802
SWIDTH 375 0
DWIDTH 6 0
BBX 5 9 0 -1
BITMAP
88
F8
50
50
50
50
50
F8
88
ENDCHAR
STARTCHAR char9803
ENCODING 9803
SWIDTH 375 0
DWIDTH 6 0
BBX 5 7 0 0
BITMAP
F8
A8
E0
00
38
A8
F8
ENDCHAR
STARTCHAR char9804
ENCODING 9804
SWIDTH 375 0
DWIDTH 6 0
BBX 6 7 0 0
BITMAP
F8
88
E8
28
E8
A8
EC
ENDCHAR
STARTCHAR char9805
ENCODING 9805
SWIDTH 375 0
DWIDTH 6 0
BBX 6 8 0 -1
BITMAP
F8
A8
AC
AC
AC
88
98
20
ENDCHAR
STARTCHAR char9806
ENCODING 9806
SWIDTH 375 0
DWIDTH 6 0
BBX 5 5 0 0
BITMAP
70
50
D8
00
F8
ENDCHAR
STARTCHAR char9807
ENCODING 9807
SWIDTH 375 0
DWIDTH 6 0
BBX 6 9 0 -2
BITMAP
F8
A8
A8
A8
A8
88
88
0C
0C
ENDCHAR
STARTCHAR char9808
ENCODING 9808
SWIDTH 375 0
DWIDTH 6 0
BBX 5 5 0 0
BITMAP
38
18
A8
40
A0
ENDCHAR
STARTCHAR char9809
ENCODING 9809
SWIDTH 375 0
DWIDTH 6 0
BBX 6 8 -1 -1
BITMAP
D0
70
50
1C
14
1C
10
30
ENDCHAR
STARTCHAR char9810
ENCODING 9810
SWIDTH 375 0
DWIDTH 6 0
BBX 5 5 0 0
BITMAP
50
A8
00
50
A8
ENDCHAR
STARTCHAR char9811
ENCODING 9811
SWIDTH 375 0
DWIDTH 6 0
BBX 5 7 0 0
BITMAP
D8
50
50
F8
50
50
D8
ENDCHAR
STARTCHAR char9812
ENCODING 9812
SWIDTH 375 0
DWIDTH 6 0
BBX 5 8 0 0
BITMAP
20
00
F8
A8
A8
F8
50
70
ENDCHAR
STARTCHAR char9813
ENCODING 9813
SWIDTH 375 0
DWIDTH 6 0
BBX 5 9 0 0
BITMAP
20
88
20
A8
F8
70
D8
88
F8
ENDCHAR
STARTCHAR char9814
ENCODING 9814
SWIDTH 375 0
DWIDTH 6 0
BBX 5 8 0 0
BITMAP
A8
F8
88
D8
50
D8
88
F8
ENDCHAR
STARTCHAR char9815
ENCODING 9815
SWIDTH 375 0
DWIDTH 6 0
BBX 5 9 0 0
BITMAP
20
F8
88
88
F8
50
D8
88
F8
ENDCHAR
STARTCHAR char9816
ENCODING 9816
SWIDTH 375 0
DWIDTH 6 0
BBX 6 9 -1 0
BITMAP
28
38
2C
E4
84
EC
6C
44
7C
ENDCHAR
STARTCHAR char9817
ENCODING 9817
SWIDTH 375 0
DWIDTH 6 0
BBX 5 7 0 0
BITMAP
70
50
70
50
D8
88
F8
ENDCHAR
STARTCHAR char9812
ENCODING 9818
SWIDTH 375 0
DWIDTH 6 0
BBX 5 8 0 0
BITMAP
20
00
F8
D8
D8
F8
70
70
ENDCHAR
STARTCHAR char9813
ENCODING 9819
SWIDTH 375 0
DWIDTH 6 0
BBX 5 9 0 0
BITMAP
20
88
20
A8
F8
70
F8
F8
F8
ENDCHAR
STARTCHAR char9814
ENCODING 9820
SWIDTH 375 0
DWIDTH 6 0
BBX 5 8 0 0
BITMAP
A8
F8
F8
F8
70
F8
D8
F8
ENDCHAR
STARTCHAR char9815
ENCODING 9821
SWIDTH 375 0
DWIDTH 6 0
BBX 5 9 0 0
BITMAP
20
F8
F8
F8
F8
70
F8
F8
F8
ENDCHAR
STARTCHAR char9816
ENCODING 9822
SWIDTH 375 0
DWIDTH 6 0
BBX 6 9 -1 0
BITMAP
28
38
3C
EC
FC
FC
38
7C
7C
ENDCHAR
STARTCHAR char9817
ENCODING 9823
SWIDTH 375 0
DWIDTH 6 0
BBX 5 7 0 0
BITMAP
70
70
70
50
F8
F8
F8
ENDCHAR
STARTCHAR heartsuitblack
ENCODING 9824
SWIDTH 375 0
DWIDTH 6 0
BBX 5 7 0 0
BITMAP
20
70
F8
F8
D8
20
70
ENDCHAR
STARTCHAR heartsuitwhite
ENCODING 9825
SWIDTH 375 0
DWIDTH 6 0
BBX 5 6 0 -1
BITMAP
F8
A8
88
D8
70
20
ENDCHAR
STARTCHAR heartsuitwhite
ENCODING 9826
SWIDTH 375 0
DWIDTH 6 0
BBX 5 8 0 -1
BITMAP
20
70
D8
88
88
D8
70
20
ENDCHAR
STARTCHAR char9827
ENCODING 9827
SWIDTH 375 0
DWIDTH 6 0
BBX 5 6 0 0
BITMAP
70
70
F8
D8
20
70
ENDCHAR
STARTCHAR heartsuitwhite
ENCODING 9828
SWIDTH 375 0
DWIDTH 6 0
BBX 5 8 0 0
BITMAP
20
70
D8
88
A8
F8
20
70
ENDCHAR
STARTCHAR heartsuitblack
ENCODING 9829
SWIDTH 375 0
DWIDTH 6 0
BBX 5 5 0 0
BITMAP
D8
F8
F8
70
20
ENDCHAR
STARTCHAR char9827
ENCODING 9830
SWIDTH 375 0
DWIDTH 6 0
BBX 5 10 0 -2
BITMAP
20
20
70
70
F8
F8
70
70
20
20
ENDCHAR
STARTCHAR char9827
ENCODING 9831
SWIDTH 375 0
DWIDTH 6 0
BBX 5 7 0 0
BITMAP
70
50
F8
A8
F8
20
70
ENDCHAR
STARTCHAR char9831
ENCODING 9832
SWIDTH 375 0
DWIDTH 6 0
BBX 5 7 0 0
BITMAP
20
28
48
50
00
88
F8
ENDCHAR
STARTCHAR char9832
ENCODING 9833
SWIDTH 375 0
DWIDTH 6 0
BBX 3 7 0 0
BITMAP
20
20
20
20
E0
E0
E0
ENDCHAR
STARTCHAR char9833
ENCODING 9834
SWIDTH 375 0
DWIDTH 6 0
BBX 5 7 0 0
BITMAP
20
30
28
28
E8
E0
E0
ENDCHAR
STARTCHAR char9834
ENCODING 9835
SWIDTH 375 0
DWIDTH 6 0
BBX 5 9 0 -1
BITMAP
18
28
58
68
48
48
58
D8
C0
ENDCHAR
STARTCHAR char9835
ENCODING 9836
SWIDTH 375 0
DWIDTH 6 0
BBX 5 7 0 0
BITMAP
78
48
78
48
48
D8
D8
ENDCHAR
STARTCHAR char9836
ENCODING 9837
SWIDTH 375 0
DWIDTH 6 0
BBX 3 6 1 1
BITMAP
80
80
80
E0
A0
E0
ENDCHAR
STARTCHAR char9837
ENCODING 9838
SWIDTH 375 0
DWIDTH 6 0
BBX 5 8 0 0
BITMAP
80
80
B8
C8
98
E8
08
08
ENDCHAR
STARTCHAR char9838
ENCODING 9839
SWIDTH 375 0
DWIDTH 6 0
BBX 5 7 0 0
BITMAP
10
58
70
D8
70
D0
40
ENDCHAR
STARTCHAR char9839
ENCODING 9840
SWIDTH 375 0
DWIDTH 6 0
BBX 7 11 -1 -2
BITMAP
28
38
10
D6
7C
D6
10
10
10
38
28
ENDCHAR
STARTCHAR char9841
ENCODING 9841
SWIDTH 375 0
DWIDTH 6 0
BBX 7 11 -1 -2
BITMAP
38
28
38
FE
BA
FE
10
10
38
28
38
ENDCHAR
STARTCHAR char9842
ENCODING 9842
SWIDTH 375 0
DWIDTH 6 0
BBX 7 8 -1 -2
BITMAP
10
2C
0C
40
E2
4A
5C
08
ENDCHAR
STARTCHAR char9842
ENCODING 9843
SWIDTH 375 0
DWIDTH 6 0
BBX 7 11 -1 -2
BITMAP
10
10
10
00
3C
0C
40
E2
4A
5C
08
ENDCHAR
STARTCHAR char9842
ENCODING 9844
SWIDTH 375 0
DWIDTH 6 0
BBX 7 11 -1 -2
BITMAP
38
18
20
38
00
1C
4C
E0
4A
5C
08
ENDCHAR
STARTCHAR char9842
ENCODING 9845
SWIDTH 375 0
DWIDTH 6 0
BBX 7 11 -1 -2
BITMAP
38
18
08
38
00
1C
4C
E0
4A
5C
08
ENDCHAR
STARTCHAR char9842
ENCODING 9846
SWIDTH 375 0
DWIDTH 6 0
BBX 7 11 -1 -2
BITMAP
28
38
08
00
3C
0C
40
E2
4A
5C
08
ENDCHAR
STARTCHAR char9842
ENCODING 9847
SWIDTH 375 0
DWIDTH 6 0
BBX 7 11 -1 -2
BITMAP
30
20
10
20
00
1C
4C
E0
4A
5C
08
ENDCHAR
STARTCHAR char9842
ENCODING 9848
SWIDTH 375 0
DWIDTH 6 0
BBX 7 11 -1 -2
BITMAP
10
20
30
30
00
1C
4C
E0
4A
5C
08
ENDCHAR
STARTCHAR char9842
ENCODING 9849
SWIDTH 375 0
DWIDTH 6 0
BBX 7 11 -1 -2
BITMAP
38
08
10
00
3C
0C
40
E2
4A
5C
08
ENDCHAR
STARTCHAR char9842
ENCODING 9850
SWIDTH 375 0
DWIDTH 6 0
BBX 7 8 -1 -2
BITMAP
10
2C
0C
40
E2
4A
5C
08
ENDCHAR
STARTCHAR char9842
ENCODING 9851
SWIDTH 375 0
DWIDTH 6 0
BBX 6 9 -1 -2
BITMAP
38
7C
1C
44
E8
EC
DC
5C
18
ENDCHAR
STARTCHAR char9842
ENCODING 9852
SWIDTH 375 0
DWIDTH 6 0
BBX 7 10 -1 -2
BITMAP
7C
EE
D2
F2
BE
1C
B4
A2
F6
7C
ENDCHAR
STARTCHAR char9842
ENCODING 9853
SWIDTH 375 0
DWIDTH 6 0
BBX 7 10 -1 -2
BITMAP
7C
92
2C
0C
40
E2
4A
5C
8A
7C
ENDCHAR
STARTCHAR char9843
ENCODING 9854
SWIDTH 375 0
DWIDTH 6 0
BBX 5 7 0 -1
BITMAP
F8
F8
A8
50
A8
F8
F8
ENDCHAR
STARTCHAR char9844
ENCODING 9855
SWIDTH 375 0
DWIDTH 6 0
BBX 6 9 0 -1
BITMAP
30
30
20
38
E0
BC
8C
88
F8
ENDCHAR
STARTCHAR char9845
ENCODING 9856
SWIDTH 375 0
DWIDTH 6 0
BBX 5 7 0 0
BITMAP
F8
F8
F8
D8
F8
F8
F8
ENDCHAR
STARTCHAR char9845
ENCODING 9857
SWIDTH 375 0
DWIDTH 6 0
BBX 5 7 0 0
BITMAP
F8
F8
E8
F8
B8
F8
F8
ENDCHAR
STARTCHAR char9845
ENCODING 9858
SWIDTH 375 0
DWIDTH 6 0
BBX 5 7 0 0
BITMAP
F8
E8
F8
D8
F8
B8
F8
ENDCHAR
STARTCHAR char9845
ENCODING 9859
SWIDTH 375 0
DWIDTH 6 0
BBX 5 7 0 0
BITMAP
F8
F8
A8
F8
A8
F8
F8
ENDCHAR
STARTCHAR char9845
ENCODING 9860
SWIDTH 375 0
DWIDTH 6 0
BBX 5 7 0 0
BITMAP
F8
A8
F8
D8
F8
A8
F8
ENDCHAR
STARTCHAR char9845
ENCODING 9861
SWIDTH 375 0
DWIDTH 6 0
BBX 5 7 0 0
BITMAP
F8
A8
F8
A8
F8
A8
F8
ENDCHAR
STARTCHAR char9851
ENCODING 9862
SWIDTH 375 0
DWIDTH 6 0
BBX 5 5 0 0
BITMAP
F8
88
98
88
F8
ENDCHAR
STARTCHAR char9852
ENCODING 9863
SWIDTH 375 0
DWIDTH 6 0
BBX 5 5 0 0
BITMAP
F8
88
D8
88
F8
ENDCHAR
STARTCHAR char9853
ENCODING 9864
SWIDTH 375 0
DWIDTH 6 0
BBX 5 5 0 0
BITMAP
F8
F8
E8
F8
F8
ENDCHAR
STARTCHAR char9854
ENCODING 9865
SWIDTH 375 0
DWIDTH 6 0
BBX 5 5 0 0
BITMAP
F8
F8
A8
F8
F8
ENDCHAR
STARTCHAR char9866
ENCODING 9866
SWIDTH 375 0
DWIDTH 6 0
BBX 5 1 0 0
BITMAP
F8
ENDCHAR
STARTCHAR char9867
ENCODING 9867
SWIDTH 375 0
DWIDTH 6 0
BBX 5 1 0 0
BITMAP
D8
ENDCHAR
STARTCHAR char9868
ENCODING 9868
SWIDTH 375 0
DWIDTH 6 0
BBX 5 4 0 0
BITMAP
F8
00
00
F8
ENDCHAR
STARTCHAR char9869
ENCODING 9869
SWIDTH 375 0
DWIDTH 6 0
BBX 5 4 0 0
BITMAP
D8
00
00
F8
ENDCHAR
STARTCHAR char9870
ENCODING 9870
SWIDTH 375 0
DWIDTH 6 0
BBX 5 4 0 0
BITMAP
F8
00
00
D8
ENDCHAR
STARTCHAR char9871
ENCODING 9871
SWIDTH 375 0
DWIDTH 6 0
BBX 5 4 0 0
BITMAP
D8
00
00
D8
ENDCHAR
STARTCHAR char9872
ENCODING 9872
SWIDTH 375 0
DWIDTH 6 0
BBX 5 7 0 0
BITMAP
80
E0
98
88
E8
98
80
ENDCHAR
STARTCHAR char9873
ENCODING 9873
SWIDTH 375 0
DWIDTH 6 0
BBX 5 7 0 0
BITMAP
80
E0
F8
F8
F8
98
80
ENDCHAR
STARTCHAR char9874
ENCODING 9874
SWIDTH 375 0
DWIDTH 6 0
BBX 7 6 -1 0
BITMAP
6C
EE
EE
12
28
44
ENDCHAR
STARTCHAR char9875
ENCODING 9875
SWIDTH 375 0
DWIDTH 6 0
BBX 7 10 -1 -1
BITMAP
38
28
38
7C
10
54
D6
54
7C
10
ENDCHAR
STARTCHAR char9876
ENCODING 9876
SWIDTH 375 0
DWIDTH 6 0
BBX 7 7 -1 -1
BITMAP
82
44
28
10
6C
6C
82
ENDCHAR
STARTCHAR char9877
ENCODING 9877
SWIDTH 375 0
DWIDTH 6 0
BBX 7 10 -1 -2
BITMAP
C0
90
F0
1E
70
1C
30
18
10
10
ENDCHAR
STARTCHAR char9878
ENCODING 9878
SWIDTH 375 0
DWIDTH 6 0
BBX 7 8 -1 0
BITMAP
10
10
FE
44
44
EE
AA
EE
ENDCHAR
STARTCHAR char9879
ENCODING 9879
SWIDTH 375 0
DWIDTH 6 0
BBX 6 7 -1 -2
BITMAP
F8
B8
B8
00
7C
54
54
ENDCHAR
STARTCHAR char9880
ENCODING 9880
SWIDTH 375 0
DWIDTH 6 0
BBX 5 8 0 0
BITMAP
20
50
20
00
A8
F8
70
20
ENDCHAR
STARTCHAR char9881
ENCODING 9881
SWIDTH 375 0
DWIDTH 6 0
BBX 7 7 -1 0
BITMAP
54
FE
44
D6
44
FE
54
ENDCHAR
STARTCHAR char9882
ENCODING 9882
SWIDTH 375 0
DWIDTH 6 0
BBX 7 9 -1 0
BITMAP
10
54
FE
AA
38
10
10
10
10
ENDCHAR
STARTCHAR char9883
ENCODING 9883
SWIDTH 375 0
DWIDTH 6 0
BBX 7 9 -1 -2
BITMAP
10
6C
92
AA
44
AA
92
6C
10
ENDCHAR
STARTCHAR char9884
ENCODING 9884
SWIDTH 375 0
DWIDTH 6 0
BBX 7 9 -1 0
BITMAP
10
38
38
FE
FE
BA
38
10
38
ENDCHAR
STARTCHAR char9885
ENCODING 9885
SWIDTH 375 0
DWIDTH 6 0
BBX 7 7 -1 0
BITMAP
10
28
FE
AA
44
BA
EE
ENDCHAR
STARTCHAR char9886
ENCODING 9886
SWIDTH 375 0
DWIDTH 6 0
BBX 5 11 0 -2
BITMAP
40
20
10
08
00
F8
00
08
10
20
40
ENDCHAR
STARTCHAR char9886
ENCODING 9887
SWIDTH 375 0
DWIDTH 6 0
BBX 5 11 0 -2
BITMAP
10
20
40
80
00
F8
00
80
40
20
10
ENDCHAR
STARTCHAR char9888
ENCODING 9888
SWIDTH 375 0
DWIDTH 6 0
BBX 7 10 -1 -1
BITMAP
10
38
28
6C
54
54
C6
92
82
FE
ENDCHAR
STARTCHAR char9889
ENCODING 9889
SWIDTH 375 0
DWIDTH 6 0
BBX 5 9 0 -1
BITMAP
30
20
E0
80
F8
08
38
20
60
ENDCHAR
STARTCHAR char9890
ENCODING 9890
SWIDTH 375 0
DWIDTH 6 0
BBX 5 6 0 -2
BITMAP
F8
A8
F8
50
F8
50
ENDCHAR
STARTCHAR char9891
ENCODING 9891
SWIDTH 375 0
DWIDTH 6 0
BBX 6 8 0 0
BITMAP
0C
0C
10
EC
AC
F0
A0
E0
ENDCHAR
STARTCHAR char9892
ENCODING 9892
SWIDTH 375 0
DWIDTH 6 0
BBX 6 9 0 -2
BITMAP
0C
0C
08
F8
A8
F8
40
E0
40
ENDCHAR
STARTCHAR char9893
ENCODING 9893
SWIDTH 375 0
DWIDTH 6 0
BBX 6 9 0 -2
BITMAP
0C
0C
10
E0
A0
E0
40
E0
40
ENDCHAR
STARTCHAR char9894
ENCODING 9894
SWIDTH 375 0
DWIDTH 6 0
BBX 6 6 0 0
BITMAP
0C
2C
10
E8
A0
E0
ENDCHAR
STARTCHAR char9895
ENCODING 9895
SWIDTH 375 0
DWIDTH 6 0
BBX 7 10 -1 -2
BITMAP
C6
D6
64
68
B8
28
38
10
38
10
ENDCHAR
STARTCHAR char9896
ENCODING 9896
SWIDTH 375 0
DWIDTH 6 0
BBX 5 9 0 0
BITMAP
20
70
A8
20
F8
20
70
50
70
ENDCHAR
STARTCHAR char9897
ENCODING 9897
SWIDTH 375 0
DWIDTH 6 0
BBX 7 3 -1 0
BITMAP
D4
BE
D4
ENDCHAR
STARTCHAR char9898
ENCODING 9898
SWIDTH 375 0
DWIDTH 6 0
BBX 4 4 0 2
BITMAP
F0
90
90
F0
ENDCHAR
STARTCHAR char9899
ENCODING 9899
SWIDTH 375 0
DWIDTH 6 0
BBX 4 4 0 2
BITMAP
F0
F0
F0
F0
ENDCHAR
STARTCHAR char9900
ENCODING 9900
SWIDTH 375 0
DWIDTH 6 0
BBX 3 3 1 2
BITMAP
E0
A0
E0
ENDCHAR
STARTCHAR char9901
ENCODING 9901
SWIDTH 375 0
DWIDTH 6 0
BBX 5 3 0 2
BITMAP
F8
A8
F8
ENDCHAR
STARTCHAR char9902
ENCODING 9902
SWIDTH 375 0
DWIDTH 6 0
BBX 5 5 0 1
BITMAP
20
F8
A8
F8
20
ENDCHAR
STARTCHAR char9903
ENCODING 9903
SWIDTH 375 0
DWIDTH 6 0
BBX 7 3 -1 2
BITMAP
EE
BA
EE
ENDCHAR
STARTCHAR char9904
ENCODING 9904
SWIDTH 375 0
DWIDTH 6 0
BBX 5 8 0 0
BITMAP
70
D8
88
88
88
D8
50
70
ENDCHAR
STARTCHAR char9905
ENCODING 9905
SWIDTH 375 0
DWIDTH 6 0
BBX 5 8 0 0
BITMAP
F8
70
F8
F8
F8
70
20
70
ENDCHAR
STARTCHAR char9906
ENCODING 9906
SWIDTH 375 0
DWIDTH 6 0
BBX 3 6 1 -2
BITMAP
E0
A0
E0
40
40
40
ENDCHAR
STARTCHAR char9907
ENCODING 9907
SWIDTH 375 0
DWIDTH 6 0
BBX 3 6 1 -2
BITMAP
E0
20
60
40
E0
40
ENDCHAR
STARTCHAR char9908
ENCODING 9908
SWIDTH 375 0
DWIDTH 6 0
BBX 5 8 0 -2
BITMAP
20
50
88
50
20
20
70
20
ENDCHAR
STARTCHAR char9909
ENCODING 9909
SWIDTH 375 0
DWIDTH 6 0
BBX 5 8 0 -2
BITMAP
A8
70
F8
70
A8
20
70
20
ENDCHAR
STARTCHAR char9910
ENCODING 9910
SWIDTH 375 0
DWIDTH 6 0
BBX 7 8 -1 0
BITMAP
10
10
00
6C
38
D6
44
7C
ENDCHAR
STARTCHAR char9911
ENCODING 9911
SWIDTH 375 0
DWIDTH 6 0
BBX 4 8 1 0
BITMAP
50
60
60
50
40
E0
A0
E0
ENDCHAR
STARTCHAR char9912
ENCODING 9912
SWIDTH 375 0
DWIDTH 6 0
BBX 5 8 0 -2
BITMAP
F8
F8
C0
F8
F8
20
70
20
ENDCHAR
STARTCHAR char9913
ENCODING 9913
SWIDTH 375 0
DWIDTH 6 0
BBX 5 5 0 0
BITMAP
88
50
F8
50
88
ENDCHAR
STARTCHAR char9914
ENCODING 9914
SWIDTH 375 0
DWIDTH 6 0
BBX 5 7 0 0
BITMAP
88
88
D8
50
70
20
F8
ENDCHAR
STARTCHAR char9914
ENCODING 9915
SWIDTH 375 0
DWIDTH 6 0
BBX 5 7 0 0
BITMAP
F8
20
70
50
D8
88
88
ENDCHAR
STARTCHAR char9916
ENCODING 9916
SWIDTH 375 0
DWIDTH 6 0
BBX 5 7 0 -2
BITMAP
F8
88
A8
A8
F8
20
38
ENDCHAR
STARTCHAR char9917
ENCODING 9917
SWIDTH 375 0
DWIDTH 6 0
BBX 5 6 0 0
BITMAP
70
D8
A8
F8
A8
70
ENDCHAR
STARTCHAR char9918
ENCODING 9918
SWIDTH 375 0
DWIDTH 6 0
BBX 6 7 -1 -1
BITMAP
78
CC
B4
84
B4
CC
78
ENDCHAR
STARTCHAR char9919
ENCODING 9919
SWIDTH 375 0
DWIDTH 6 0
BBX 5 8 0 0
BITMAP
F8
88
A8
88
D8
C8
D8
F8
ENDCHAR
STARTCHAR char9920
ENCODING 9920
SWIDTH 375 0
DWIDTH 6 0
BBX 5 5 0 0
BITMAP
70
88
F8
88
70
ENDCHAR
STARTCHAR char9921
ENCODING 9921
SWIDTH 375 0
DWIDTH 6 0
BBX 5 7 0 0
BITMAP
70
88
F8
88
F8
88
70
ENDCHAR
STARTCHAR char9922
ENCODING 9922
SWIDTH 375 0
DWIDTH 6 0
BBX 5 5 0 0
BITMAP
70
F8
70
88
70
ENDCHAR
STARTCHAR char9923
ENCODING 9923
SWIDTH 375 0
DWIDTH 6 0
BBX 5 7 0 0
BITMAP
70
F8
70
88
70
88
70
ENDCHAR
STARTCHAR char9924
ENCODING 9924
SWIDTH 375 0
DWIDTH 6 0
BBX 5 8 0 0
BITMAP
20
70
50
F8
88
A8
88
F8
ENDCHAR
STARTCHAR char9925
ENCODING 9925
SWIDTH 375 0
DWIDTH 6 0
BBX 7 7 -1 2
BITMAP
48
30
CC
58
FC
7E
7C
ENDCHAR
STARTCHAR char9926
ENCODING 9926
SWIDTH 375 0
DWIDTH 6 0
BBX 5 11 0 -2
BITMAP
28
A0
80
10
50
40
20
A8
88
10
50
ENDCHAR
STARTCHAR char9927
ENCODING 9927
SWIDTH 375 0
DWIDTH 6 0
BBX 5 10 0 -1
BITMAP
48
20
88
20
70
70
F8
D8
F8
F8
ENDCHAR
STARTCHAR uni2601
ENCODING 9928
SWIDTH 375 0
DWIDTH 6 0
BBX 6 10 0 -2
BITMAP
18
78
DC
DC
48
A8
28
94
20
88
ENDCHAR
STARTCHAR char9750
ENCODING 9929
SWIDTH 375 0
DWIDTH 6 0
BBX 5 7 0 0
BITMAP
F8
88
88
88
D8
70
20
ENDCHAR
STARTCHAR char9750
ENCODING 9930
SWIDTH 375 0
DWIDTH 6 0
BBX 5 6 0 0
BITMAP
F8
F8
F8
F8
70
20
ENDCHAR
STARTCHAR char9931
ENCODING 9931
SWIDTH 375 0
DWIDTH 6 0
BBX 5 5 0 0
BITMAP
F8
D8
88
D8
F8
ENDCHAR
STARTCHAR char9932
ENCODING 9932
SWIDTH 375 0
DWIDTH 6 0
BBX 5 9 0 -2
BITMAP
20
28
28
08
F8
80
A0
20
20
ENDCHAR
STARTCHAR char9933
ENCODING 9933
SWIDTH 375 0
DWIDTH 6 0
BBX 6 9 -1 -2
BITMAP
78
84
FC
B4
48
00
08
14
1C
ENDCHAR
STARTCHAR char9934
ENCODING 9934
SWIDTH 375 0
DWIDTH 6 0
BBX 7 7 -1 0
BITMAP
28
2A
FE
A8
28
28
3C
ENDCHAR
STARTCHAR char9935
ENCODING 9935
SWIDTH 375 0
DWIDTH 6 0
BBX 6 6 0 0
BITMAP
98
70
60
D0
88
04
ENDCHAR
STARTCHAR char9933
ENCODING 9936
SWIDTH 375 0
DWIDTH 6 0
BBX 7 10 -1 -2
BITMAP
78
84
FC
B4
48
00
48
6A
0A
78
ENDCHAR
STARTCHAR char9937
ENCODING 9937
SWIDTH 375 0
DWIDTH 6 0
BBX 5 9 0 -1
BITMAP
F8
D8
88
D8
F8
88
D8
88
F8
ENDCHAR
STARTCHAR char9938
ENCODING 9938
SWIDTH 375 0
DWIDTH 6 0
BBX 5 9 0 -1
BITMAP
F8
D8
D8
F8
88
F8
D8
D8
F8
ENDCHAR
STARTCHAR char9939
ENCODING 9939
SWIDTH 375 0
DWIDTH 6 0
BBX 6 10 -1 -2
BITMAP
AC
EC
4C
E4
AC
EC
4C
E4
AC
EC
ENDCHAR
STARTCHAR char9940
ENCODING 9940
SWIDTH 375 0
DWIDTH 6 0
BBX 5 5 0 1
BITMAP
F8
F8
88
F8
F8
ENDCHAR
STARTCHAR char9941
ENCODING 9941
SWIDTH 375 0
DWIDTH 6 0
BBX 5 11 0 -2
BITMAP
40
C8
48
48
08
F8
80
F0
10
58
50
ENDCHAR
STARTCHAR char9942
ENCODING 9942
SWIDTH 375 0
DWIDTH 6 0
BBX 6 11 -1 -2
BITMAP
30
78
FC
BC
14
B4
A0
F4
FC
78
30
ENDCHAR
STARTCHAR char9943
ENCODING 9943
SWIDTH 375 0
DWIDTH 6 0
BBX 6 11 -1 -2
BITMAP
78
84
20
70
20
28
08
1C
08
84
78
ENDCHAR
STARTCHAR char9944
ENCODING 9944
SWIDTH 375 0
DWIDTH 6 0
BBX 5 9 0 -1
BITMAP
78
58
58
78
58
D8
F8
D8
D8
ENDCHAR
STARTCHAR char9945
ENCODING 9945
SWIDTH 375 0
DWIDTH 6 0
BBX 6 9 -1 -1
BITMAP
54
54
44
54
D4
84
94
94
84
ENDCHAR
STARTCHAR char9946
ENCODING 9946
SWIDTH 375 0
DWIDTH 6 0
BBX 5 8 0 -1
BITMAP
D8
D8
88
00
00
88
D8
D8
ENDCHAR
STARTCHAR char9947
ENCODING 9947
SWIDTH 375 0
DWIDTH 6 0
BBX 5 6 0 1
BITMAP
F8
88
D8
50
70
20
ENDCHAR
STARTCHAR char9948
ENCODING 9948
SWIDTH 375 0
DWIDTH 6 0
BBX 5 9 0 0
BITMAP
28
28
38
28
68
F8
E8
A8
B8
ENDCHAR
STARTCHAR char9949
ENCODING 9949
SWIDTH 375 0
DWIDTH 6 0
BBX 5 5 0 0
BITMAP
F8
D8
A8
D8
F8
ENDCHAR
STARTCHAR char9950
ENCODING 9950
SWIDTH 375 0
DWIDTH 6 0
BBX 5 5 0 0
BITMAP
F8
C8
A8
98
F8
ENDCHAR
STARTCHAR char9951
ENCODING 9951
SWIDTH 375 0
DWIDTH 6 0
BBX 5 4 0 0
BITMAP
F0
E8
F8
90
ENDCHAR
STARTCHAR char9954
ENCODING 9954
SWIDTH 375 0
DWIDTH 6 0
BBX 5 9 0 0
BITMAP
20
70
A8
20
F8
88
A8
88
F8
ENDCHAR
STARTCHAR char9955
ENCODING 9955
SWIDTH 375 0
DWIDTH 6 0
BBX 5 6 0 0
BITMAP
20
A8
20
70
50
70
ENDCHAR
STARTCHAR char9885
ENCODING 9956
SWIDTH 375 0
DWIDTH 6 0
BBX 7 7 -1 0
BITMAP
10
28
FE
AA
44
BA
EE
ENDCHAR
STARTCHAR char9885
ENCODING 9959
SWIDTH 375 0
DWIDTH 6 0
BBX 7 7 -1 0
BITMAP
EE
BA
44
AA
FE
28
10
ENDCHAR
STARTCHAR char9960
ENCODING 9960
SWIDTH 375 0
DWIDTH 6 0
BBX 5 9 0 -2
BITMAP
F8
88
A8
F8
A8
88
D8
70
20
ENDCHAR
STARTCHAR char9961
ENCODING 9961
SWIDTH 375 0
DWIDTH 6 0
BBX 7 9 -1 0
BITMAP
C6
7C
7C
54
FE
44
44
44
44
ENDCHAR
STARTCHAR char9962
ENCODING 9962
SWIDTH 375 0
DWIDTH 6 0
BBX 7 10 -1 -1
BITMAP
10
38
10
38
7C
FE
6C
54
54
7C
ENDCHAR
STARTCHAR char9963
ENCODING 9963
SWIDTH 375 0
DWIDTH 6 0
BBX 5 7 0 0
BITMAP
A0
E0
A8
F8
E8
B8
B8
ENDCHAR
STARTCHAR char9964
ENCODING 9964
SWIDTH 375 0
DWIDTH 6 0
BBX 5 4 0 0
BITMAP
20
00
00
88
ENDCHAR
STARTCHAR char9965
ENCODING 9965
SWIDTH 375 0
DWIDTH 6 0
BBX 5 5 0 1
BITMAP
A8
70
D8
70
A8
ENDCHAR
STARTCHAR char9965
ENCODING 9966
SWIDTH 375 0
DWIDTH 6 0
BBX 7 5 -1 1
BITMAP
54
3A
EE
B8
54
ENDCHAR
STARTCHAR char9881
ENCODING 9967
SWIDTH 375 0
DWIDTH 6 0
BBX 7 7 -1 0
BITMAP
54
FE
44
D6
44
FE
54
ENDCHAR
STARTCHAR char9968
ENCODING 9968
SWIDTH 375 0
DWIDTH 6 0
BBX 5 6 0 0
BITMAP
20
50
C8
B8
F8
F8
ENDCHAR
STARTCHAR char9969
ENCODING 9969
SWIDTH 375 0
DWIDTH 6 0
BBX 5 8 0 0
BITMAP
20
50
D8
88
F8
20
20
F8
ENDCHAR
STARTCHAR char9970
ENCODING 9970
SWIDTH 375 0
DWIDTH 6 0
BBX 7 9 -1 0
BITMAP
44
AA
10
BA
10
FE
7C
10
38
ENDCHAR
STARTCHAR char9971
ENCODING 9971
SWIDTH 375 0
DWIDTH 6 0
BBX 5 8 0 0
BITMAP
20
30
38
28
20
70
F8
70
ENDCHAR
STARTCHAR char9972
ENCODING 9972
SWIDTH 375 0
DWIDTH 6 0
BBX 6 9 -1 -1
BITMAP
14
20
00
20
7C
54
FC
FC
7C
ENDCHAR
STARTCHAR char9973
ENCODING 9973
SWIDTH 375 0
DWIDTH 6 0
BBX 7 9 -1 0
BITMAP
10
30
38
58
54
FE
10
FE
7C
ENDCHAR
STARTCHAR char9974
ENCODING 9974
SWIDTH 375 0
DWIDTH 6 0
BBX 5 5 0 0
BITMAP
D8
88
00
88
D8
ENDCHAR
STARTCHAR char9975
ENCODING 9975
SWIDTH 375 0
DWIDTH 6 0
BBX 7 9 -1 0
BITMAP
30
30
10
7E
30
40
20
90
7C
ENDCHAR
STARTCHAR char9976
ENCODING 9976
SWIDTH 375 0
DWIDTH 6 0
BBX 5 7 0 0
BITMAP
38
38
F8
F8
F8
50
F8
ENDCHAR
STARTCHAR char9977
ENCODING 9977
SWIDTH 375 0
DWIDTH 6 0
BBX 5 9 0 0
BITMAP
60
60
40
70
C0
58
D8
C0
A0
ENDCHAR
STARTCHAR char9978
ENCODING 9978
SWIDTH 375 0
DWIDTH 6 0
BBX 7 4 -1 0
BITMAP
38
74
52
FE
ENDCHAR
STARTCHAR char9979
ENCODING 9979
SWIDTH 375 0
DWIDTH 6 0
BBX 5 6 0 0
BITMAP
70
88
50
50
88
70
ENDCHAR
STARTCHAR char9980
ENCODING 9980
SWIDTH 375 0
DWIDTH 6 0
BBX 6 9 -1 -1
BITMAP
10
10
38
00
40
40
E8
08
1C
ENDCHAR
STARTCHAR char9981
ENCODING 9981
SWIDTH 375 0
DWIDTH 6 0
BBX 7 6 -1 0
BITMAP
1C
EE
A2
FA
EA
EE
ENDCHAR
STARTCHAR char9982
ENCODING 9982
SWIDTH 375 0
DWIDTH 6 0
BBX 6 9 -1 -1
BITMAP
FC
9C
84
94
84
9C
FC
9C
FC
ENDCHAR
STARTCHAR char9983
ENCODING 9983
SWIDTH 375 0
DWIDTH 6 0
BBX 5 8 0 0
BITMAP
80
E0
98
E8
98
E8
98
80
ENDCHAR
STARTCHAR char9987
ENCODING 9985
SWIDTH 375 0
DWIDTH 6 0
BBX 7 7 -1 0
BITMAP
70
50
70
10
FE
A8
E0
ENDCHAR
STARTCHAR char9986
ENCODING 9986
SWIDTH 375 0
DWIDTH 6 0
BBX 7 10 -1 -1
BITMAP
28
28
28
28
10
28
28
EE
AA
EE
ENDCHAR
STARTCHAR char9987
ENCODING 9987
SWIDTH 375 0
DWIDTH 6 0
BBX 7 7 -1 0
BITMAP
E0
A8
FE
10
70
50
70
ENDCHAR
STARTCHAR char9986
ENCODING 9988
SWIDTH 375 0
DWIDTH 6 0
BBX 7 10 -1 -1
BITMAP
28
28
28
28
10
28
28
EE
AA
EE
ENDCHAR
STARTCHAR char9992
ENCODING 9992
SWIDTH 375 0
DWIDTH 6 0
BBX 7 7 -1 0
BITMAP
10
18
58
FE
58
18
10
ENDCHAR
STARTCHAR char9993
ENCODING 9993
SWIDTH 375 0
DWIDTH 6 0
BBX 6 6 -1 0
BITMAP
FC
84
CC
B4
84
FC
ENDCHAR
STARTCHAR char9994
ENCODING 9994
SWIDTH 375 0
DWIDTH 6 0
BBX 6 8 0 -2
BITMAP
38
5C
A4
DC
AC
74
38
38
ENDCHAR
STARTCHAR char9995
ENCODING 9995
SWIDTH 375 0
DWIDTH 6 0
BBX 6 8 0 -1
BITMAP
70
F0
F4
F4
FC
FC
F8
70
ENDCHAR
STARTCHAR char9996
ENCODING 9996
SWIDTH 375 0
DWIDTH 6 0
BBX 4 7 0 0
BITMAP
90
50
70
F0
F0
F0
70
ENDCHAR
STARTCHAR char9997
ENCODING 9997
SWIDTH 375 0
DWIDTH 6 0
BBX 7 7 -1 -1
BITMAP
06
3A
74
6E
7E
BE
C0
ENDCHAR
STARTCHAR checkmark
ENCODING 10003
SWIDTH 375 0
DWIDTH 6 0
BBX 5 6 -1 0
BITMAP
08
08
10
90
60
20
ENDCHAR
STARTCHAR uni2714
ENCODING 10004
SWIDTH 375 0
DWIDTH 6 0
BBX 5 6 -1 0
BITMAP
08
18
90
F0
60
20
ENDCHAR
STARTCHAR char10005
ENCODING 10005
SWIDTH 375 0
DWIDTH 6 0
BBX 5 5 0 0
BITMAP
88
50
20
50
88
ENDCHAR
STARTCHAR char10006
ENCODING 10006
SWIDTH 375 0
DWIDTH 6 0
BBX 7 7 -1 0
BITMAP
44
EE
7C
38
7C
EE
44
ENDCHAR
STARTCHAR char10005
ENCODING 10007
SWIDTH 375 0
DWIDTH 6 0
BBX 5 6 0 -1
BITMAP
48
50
20
50
88
80
ENDCHAR
STARTCHAR char10006
ENCODING 10008
SWIDTH 375 0
DWIDTH 6 0
BBX 7 8 -1 -1
BITMAP
64
6E
7C
38
7C
EE
C4
C0
ENDCHAR
STARTCHAR uni272E
ENCODING 10030
SWIDTH 375 0
DWIDTH 6 0
BBX 5 7 0 -1
BITMAP
20
A8
F8
70
70
D8
88
ENDCHAR
STARTCHAR uni2744
ENCODING 10052
SWIDTH 375 0
DWIDTH 6 0
BBX 7 7 -1 0
BITMAP
92
6C
54
BA
54
6C
92
ENDCHAR
STARTCHAR char10061
ENCODING 10061
SWIDTH 375 0
DWIDTH 6 0
BBX 5 4 0 1
BITMAP
70
98
98
70
ENDCHAR
STARTCHAR char10062
ENCODING 10062
SWIDTH 375 0
DWIDTH 6 0
BBX 5 5 0 0
BITMAP
F8
A8
D8
A8
F8
ENDCHAR
STARTCHAR char10063
ENCODING 10063
SWIDTH 375 0
DWIDTH 6 0
BBX 5 5 0 0
BITMAP
F0
98
98
F8
78
ENDCHAR
STARTCHAR char10063
ENCODING 10064
SWIDTH 375 0
DWIDTH 6 0
BBX 5 5 0 1
BITMAP
78
F8
98
98
F0
ENDCHAR
STARTCHAR char10063
ENCODING 10065
SWIDTH 375 0
DWIDTH 6 0
BBX 5 5 0 0
BITMAP
F0
98
98
F8
78
ENDCHAR
STARTCHAR char10063
ENCODING 10066
SWIDTH 375 0
DWIDTH 6 0
BBX 5 5 0 1
BITMAP
78
F8
98
98
F0
ENDCHAR
STARTCHAR char10102
ENCODING 10102
SWIDTH 375 0
DWIDTH 6 0
BBX 5 7 0 0
BITMAP
F8
D8
98
D8
D8
D8
F8
ENDCHAR
STARTCHAR char10103
ENCODING 10103
SWIDTH 375 0
DWIDTH 6 0
BBX 5 7 0 0
BITMAP
F8
88
E8
88
B8
88
F8
ENDCHAR
STARTCHAR char10104
ENCODING 10104
SWIDTH 375 0
DWIDTH 6 0
BBX 5 7 0 0
BITMAP
F8
88
E8
88
E8
88
F8
ENDCHAR
STARTCHAR char10105
ENCODING 10105
SWIDTH 375 0
DWIDTH 6 0
BBX 5 7 0 0
BITMAP
F8
A8
A8
88
E8
E8
F8
ENDCHAR
STARTCHAR char10106
ENCODING 10106
SWIDTH 375 0
DWIDTH 6 0
BBX 5 7 0 0
BITMAP
F8
88
B8
88
E8
88
F8
ENDCHAR
STARTCHAR char10107
ENCODING 10107
SWIDTH 375 0
DWIDTH 6 0
BBX 5 7 0 0
BITMAP
F8
88
B8
88
A8
88
F8
ENDCHAR
STARTCHAR char10108
ENCODING 10108
SWIDTH 375 0
DWIDTH 6 0
BBX 5 7 0 0
BITMAP
F8
88
E8
C8
D8
D8
F8
ENDCHAR
STARTCHAR char10109
ENCODING 10109
SWIDTH 375 0
DWIDTH 6 0
BBX 5 7 0 0
BITMAP
F8
88
A8
88
A8
88
F8
ENDCHAR
STARTCHAR char10110
ENCODING 10110
SWIDTH 375 0
DWIDTH 6 0
BBX 5 7 0 0
BITMAP
F8
88
A8
88
E8
88
F8
ENDCHAR
STARTCHAR char10111
ENCODING 10111
SWIDTH 375 0
DWIDTH 6 0
BBX 6 8 -1 0
BITMAP
FC
BC
BC
BC
C4
D4
C4
FC
ENDCHAR
STARTCHAR char10102
ENCODING 10112
SWIDTH 375 0
DWIDTH 6 0
BBX 5 7 0 0
BITMAP
F8
D8
98
D8
D8
D8
F8
ENDCHAR
STARTCHAR char10103
ENCODING 10113
SWIDTH 375 0
DWIDTH 6 0
BBX 5 7 0 0
BITMAP
F8
88
E8
88
B8
88
F8
ENDCHAR
STARTCHAR char10104
ENCODING 10114
SWIDTH 375 0
DWIDTH 6 0
BBX 5 7 0 0
BITMAP
F8
88
E8
88
E8
88
F8
ENDCHAR
STARTCHAR char10105
ENCODING 10115
SWIDTH 375 0
DWIDTH 6 0
BBX 5 7 0 0
BITMAP
F8
A8
A8
88
E8
E8
F8
ENDCHAR
STARTCHAR char10106
ENCODING 10116
SWIDTH 375 0
DWIDTH 6 0
BBX 5 7 0 0
BITMAP
F8
88
B8
88
E8
88
F8
ENDCHAR
STARTCHAR char10107
ENCODING 10117
SWIDTH 375 0
DWIDTH 6 0
BBX 5 7 0 0
BITMAP
F8
88
B8
88
A8
88
F8
ENDCHAR
STARTCHAR char10108
ENCODING 10118
SWIDTH 375 0
DWIDTH 6 0
BBX 5 7 0 0
BITMAP
F8
88
E8
C8
D8
D8
F8
ENDCHAR
STARTCHAR char10109
ENCODING 10119
SWIDTH 375 0
DWIDTH 6 0
BBX 5 7 0 0
BITMAP
F8
88
A8
88
A8
88
F8
ENDCHAR
STARTCHAR char10110
ENCODING 10120
SWIDTH 375 0
DWIDTH 6 0
BBX 5 7 0 0
BITMAP
F8
88
A8
88
E8
88
F8
ENDCHAR
STARTCHAR char10111
ENCODING 10121
SWIDTH 375 0
DWIDTH 6 0
BBX 6 8 -1 0
BITMAP
FC
BC
BC
BC
C4
D4
C4
FC
ENDCHAR
STARTCHAR char10102
ENCODING 10122
SWIDTH 375 0
DWIDTH 6 0
BBX 5 7 0 0
BITMAP
F8
D8
98
D8
D8
88
F8
ENDCHAR
STARTCHAR char10103
ENCODING 10123
SWIDTH 375 0
DWIDTH 6 0
BBX 5 7 0 0
BITMAP
F8
88
E8
88
B8
88
F8
ENDCHAR
STARTCHAR char10104
ENCODING 10124
SWIDTH 375 0
DWIDTH 6 0
BBX 5 7 0 0
BITMAP
F8
88
E8
88
E8
88
F8
ENDCHAR
STARTCHAR char10105
ENCODING 10125
SWIDTH 375 0
DWIDTH 6 0
BBX 5 7 0 0
BITMAP
F8
A8
A8
88
E8
E8
F8
ENDCHAR
STARTCHAR char10106
ENCODING 10126
SWIDTH 375 0
DWIDTH 6 0
BBX 5 7 0 0
BITMAP
F8
88
B8
88
E8
88
F8
ENDCHAR
STARTCHAR char10107
ENCODING 10127
SWIDTH 375 0
DWIDTH 6 0
BBX 5 7 0 0
BITMAP
F8
88
B8
88
A8
88
F8
ENDCHAR
STARTCHAR char10108
ENCODING 10128
SWIDTH 375 0
DWIDTH 6 0
BBX 5 7 0 0
BITMAP
F8
88
E8
C8
D8
D8
F8
ENDCHAR
STARTCHAR char10109
ENCODING 10129
SWIDTH 375 0
DWIDTH 6 0
BBX 5 7 0 0
BITMAP
F8
88
A8
88
A8
88
F8
ENDCHAR
STARTCHAR char10110
ENCODING 10130
SWIDTH 375 0
DWIDTH 6 0
BBX 5 7 0 0
BITMAP
F8
88
A8
88
E8
88
F8
ENDCHAR
STARTCHAR char10111
ENCODING 10131
SWIDTH 375 0
DWIDTH 6 0
BBX 6 8 -1 0
BITMAP
FC
BC
BC
BC
C4
D4
C4
FC
ENDCHAR
STARTCHAR uni27C2
ENCODING 10178
SWIDTH 375 0
DWIDTH 6 0
BBX 3 5 1 0
BITMAP
40
40
40
40
E0
ENDCHAR
STARTCHAR uni27C3
ENCODING 10179
SWIDTH 375 0
DWIDTH 6 0
BBX 4 5 0 0
BITMAP
70
80
A0
80
70
ENDCHAR
STARTCHAR uni27C4
ENCODING 10180
SWIDTH 375 0
DWIDTH 6 0
BBX 4 5 0 0
BITMAP
E0
10
50
10
E0
ENDCHAR
STARTCHAR uni27D6
ENCODING 10198
SWIDTH 375 0
DWIDTH 6 0
BBX 5 6 0 0
BITMAP
20
20
20
20
20
F8
ENDCHAR
STARTCHAR uni27D7
ENCODING 10199
SWIDTH 375 0
DWIDTH 6 0
BBX 5 6 0 0
BITMAP
F8
20
20
20
20
20
ENDCHAR
STARTCHAR uni27DC
ENCODING 10204
SWIDTH 375 0
DWIDTH 6 0
BBX 6 3 0 1
BITMAP
E0
BC
E0
ENDCHAR
STARTCHAR uni27DD
ENCODING 10205
SWIDTH 375 0
DWIDTH 6 0
BBX 6 3 0 1
BITMAP
80
FC
80
ENDCHAR
STARTCHAR uni27DE
ENCODING 10206
SWIDTH 375 0
DWIDTH 6 0
BBX 5 3 -1 1
BITMAP
08
F8
08
ENDCHAR
STARTCHAR uni2800
ENCODING 10240
SWIDTH 375 0
DWIDTH 6 0
BBX 0 0 0 0
BITMAP
ENDCHAR
STARTCHAR uni2801
ENCODING 10241
SWIDTH 375 0
DWIDTH 6 0
BBX 1 1 0 4
BITMAP
80
ENDCHAR
STARTCHAR uni2802
ENCODING 10242
SWIDTH 375 0
DWIDTH 6 0
BBX 1 1 0 2
BITMAP
80
ENDCHAR
STARTCHAR uni2803
ENCODING 10243
SWIDTH 375 0
DWIDTH 6 0
BBX 1 3 0 2
BITMAP
80
00
80
ENDCHAR
STARTCHAR uni2804
ENCODING 10244
SWIDTH 375 0
DWIDTH 6 0
BBX 1 1 0 0
BITMAP
80
ENDCHAR
STARTCHAR uni2805
ENCODING 10245
SWIDTH 375 0
DWIDTH 6 0
BBX 3 5 0 0
BITMAP
80
00
00
00
80
ENDCHAR
STARTCHAR uni2806
ENCODING 10246
SWIDTH 375 0
DWIDTH 6 0
BBX 1 3 0 0
BITMAP
80
00
80
ENDCHAR
STARTCHAR uni2807
ENCODING 10247
SWIDTH 375 0
DWIDTH 6 0
BBX 3 5 0 0
BITMAP
80
00
80
00
80
ENDCHAR
STARTCHAR uni2808
ENCODING 10248
SWIDTH 375 0
DWIDTH 6 0
BBX 1 1 2 4
BITMAP
80
ENDCHAR
STARTCHAR uni2809
ENCODING 10249
SWIDTH 375 0
DWIDTH 6 0
BBX 3 1 0 4
BITMAP
A0
ENDCHAR
STARTCHAR uni280A
ENCODING 10250
SWIDTH 375 0
DWIDTH 6 0
BBX 3 3 0 2
BITMAP
20
00
80
ENDCHAR
STARTCHAR uni280B
ENCODING 10251
SWIDTH 375 0
DWIDTH 6 0
BBX 3 3 0 2
BITMAP
A0
00
80
ENDCHAR
STARTCHAR uni280C
ENCODING 10252
SWIDTH 375 0
DWIDTH 6 0
BBX 3 5 0 0
BITMAP
20
00
00
00
80
ENDCHAR
STARTCHAR uni280D
ENCODING 10253
SWIDTH 375 0
DWIDTH 6 0
BBX 3 5 0 0
BITMAP
A0
00
00
00
80
ENDCHAR
STARTCHAR uni280E
ENCODING 10254
SWIDTH 375 0
DWIDTH 6 0
BBX 3 5 0 0
BITMAP
20
00
80
00
80
ENDCHAR
STARTCHAR uni280F
ENCODING 10255
SWIDTH 375 0
DWIDTH 6 0
BBX 3 5 0 0
BITMAP
A0
00
80
00
80
ENDCHAR
STARTCHAR uni2810
ENCODING 10256
SWIDTH 375 0
DWIDTH 6 0
BBX 1 1 2 2
BITMAP
80
ENDCHAR
STARTCHAR uni2811
ENCODING 10257
SWIDTH 375 0
DWIDTH 6 0
BBX 3 3 0 2
BITMAP
80
00
20
ENDCHAR
STARTCHAR uni2812
ENCODING 10258
SWIDTH 375 0
DWIDTH 6 0
BBX 3 1 0 2
BITMAP
A0
ENDCHAR
STARTCHAR uni2813
ENCODING 10259
SWIDTH 375 0
DWIDTH 6 0
BBX 3 3 0 2
BITMAP
80
00
A0
ENDCHAR
STARTCHAR uni2814
ENCODING 10260
SWIDTH 375 0
DWIDTH 6 0
BBX 3 3 0 0
BITMAP
20
00
80
ENDCHAR
STARTCHAR uni2815
ENCODING 10261
SWIDTH 375 0
DWIDTH 6 0
BBX 3 5 0 0
BITMAP
80
00
20
00
80
ENDCHAR
STARTCHAR uni2816
ENCODING 10262
SWIDTH 375 0
DWIDTH 6 0
BBX 3 3 0 0
BITMAP
A0
00
80
ENDCHAR
STARTCHAR uni2817
ENCODING 10263
SWIDTH 375 0
DWIDTH 6 0
BBX 3 5 0 0
BITMAP
80
00
A0
00
80
ENDCHAR
STARTCHAR uni2818
ENCODING 10264
SWIDTH 375 0
DWIDTH 6 0
BBX 1 3 2 2
BITMAP
80
00
80
ENDCHAR
STARTCHAR uni2819
ENCODING 10265
SWIDTH 375 0
DWIDTH 6 0
BBX 3 3 0 2
BITMAP
A0
00
20
ENDCHAR
STARTCHAR uni281A
ENCODING 10266
SWIDTH 375 0
DWIDTH 6 0
BBX 3 3 0 2
BITMAP
20
00
A0
ENDCHAR
STARTCHAR uni281B
ENCODING 10267
SWIDTH 375 0
DWIDTH 6 0
BBX 3 3 0 2
BITMAP
A0
00
A0
ENDCHAR
STARTCHAR uni281C
ENCODING 10268
SWIDTH 375 0
DWIDTH 6 0
BBX 3 5 0 0
BITMAP
20
00
20
00
80
ENDCHAR
STARTCHAR uni281D
ENCODING 10269
SWIDTH 375 0
DWIDTH 6 0
BBX 3 5 0 0
BITMAP
A0
00
20
00
80
ENDCHAR
STARTCHAR uni281E
ENCODING 10270
SWIDTH 375 0
DWIDTH 6 0
BBX 3 5 0 0
BITMAP
20
00
A0
00
80
ENDCHAR
STARTCHAR uni281F
ENCODING 10271
SWIDTH 375 0
DWIDTH 6 0
BBX 3 5 0 0
BITMAP
A0
00
A0
00
80
ENDCHAR
STARTCHAR uni2820
ENCODING 10272
SWIDTH 375 0
DWIDTH 6 0
BBX 1 1 2 0
BITMAP
80
ENDCHAR
STARTCHAR uni2821
ENCODING 10273
SWIDTH 375 0
DWIDTH 6 0
BBX 3 5 0 0
BITMAP
80
00
00
00
20
ENDCHAR
STARTCHAR uni2822
ENCODING 10274
SWIDTH 375 0
DWIDTH 6 0
BBX 3 3 0 0
BITMAP
80
00
20
ENDCHAR
STARTCHAR uni2823
ENCODING 10275
SWIDTH 375 0
DWIDTH 6 0
BBX 3 5 0 0
BITMAP
80
00
80
00
20
ENDCHAR
STARTCHAR uni2824
ENCODING 10276
SWIDTH 375 0
DWIDTH 6 0
BBX 3 1 0 0
BITMAP
A0
ENDCHAR
STARTCHAR uni2825
ENCODING 10277
SWIDTH 375 0
DWIDTH 6 0
BBX 3 5 0 0
BITMAP
80
00
00
00
A0
ENDCHAR
STARTCHAR uni2826
ENCODING 10278
SWIDTH 375 0
DWIDTH 6 0
BBX 3 3 0 0
BITMAP
80
00
A0
ENDCHAR
STARTCHAR uni2827
ENCODING 10279
SWIDTH 375 0
DWIDTH 6 0
BBX 3 5 0 0
BITMAP
80
00
80
00
A0
ENDCHAR
STARTCHAR uni2828
ENCODING 10280
SWIDTH 375 0
DWIDTH 6 0
BBX 3 5 0 0
BITMAP
20
00
00
00
20
ENDCHAR
STARTCHAR uni2829
ENCODING 10281
SWIDTH 375 0
DWIDTH 6 0
BBX 3 5 0 0
BITMAP
A0
00
00
00
20
ENDCHAR
STARTCHAR uni282A
ENCODING 10282
SWIDTH 375 0
DWIDTH 6 0
BBX 3 5 0 0
BITMAP
20
00
80
00
20
ENDCHAR
STARTCHAR uni282B
ENCODING 10283
SWIDTH 375 0
DWIDTH 6 0
BBX 3 5 0 0
BITMAP
A0
00
80
00
20
ENDCHAR
STARTCHAR uni282C
ENCODING 10284
SWIDTH 375 0
DWIDTH 6 0
BBX 3 5 0 0
BITMAP
20
00
00
00
A0
ENDCHAR
STARTCHAR uni282D
ENCODING 10285
SWIDTH 375 0
DWIDTH 6 0
BBX 3 5 0 0
BITMAP
A0
00
00
00
A0
ENDCHAR
STARTCHAR uni282E
ENCODING 10286
SWIDTH 375 0
DWIDTH 6 0
BBX 3 5 0 0
BITMAP
20
00
80
00
A0
ENDCHAR
STARTCHAR uni282F
ENCODING 10287
SWIDTH 375 0
DWIDTH 6 0
BBX 3 5 0 0
BITMAP
A0
00
80
00
A0
ENDCHAR
STARTCHAR uni2830
ENCODING 10288
SWIDTH 375 0
DWIDTH 6 0
BBX 1 3 2 0
BITMAP
80
00
80
ENDCHAR
STARTCHAR uni2831
ENCODING 10289
SWIDTH 375 0
DWIDTH 6 0
BBX 3 5 0 0
BITMAP
80
00
20
00
20
ENDCHAR
STARTCHAR uni2832
ENCODING 10290
SWIDTH 375 0
DWIDTH 6 0
BBX 3 3 0 0
BITMAP
A0
00
20
ENDCHAR
STARTCHAR uni2833
ENCODING 10291
SWIDTH 375 0
DWIDTH 6 0
BBX 3 5 0 0
BITMAP
80
00
A0
00
20
ENDCHAR
STARTCHAR uni2834
ENCODING 10292
SWIDTH 375 0
DWIDTH 6 0
BBX 3 3 0 0
BITMAP
20
00
A0
ENDCHAR
STARTCHAR uni2835
ENCODING 10293
SWIDTH 375 0
DWIDTH 6 0
BBX 3 5 0 0
BITMAP
80
00
20
00
A0
ENDCHAR
STARTCHAR uni2836
ENCODING 10294
SWIDTH 375 0
DWIDTH 6 0
BBX 3 3 0 0
BITMAP
A0
00
A0
ENDCHAR
STARTCHAR uni2837
ENCODING 10295
SWIDTH 375 0
DWIDTH 6 0
BBX 3 5 0 0
BITMAP
80
00
A0
00
A0
ENDCHAR
STARTCHAR uni2838
ENCODING 10296
SWIDTH 375 0
DWIDTH 6 0
BBX 3 5 0 0
BITMAP
20
00
20
00
20
ENDCHAR
STARTCHAR uni2839
ENCODING 10297
SWIDTH 375 0
DWIDTH 6 0
BBX 3 5 0 0
BITMAP
A0
00
20
00
20
ENDCHAR
STARTCHAR uni283A
ENCODING 10298
SWIDTH 375 0
DWIDTH 6 0
BBX 3 5 0 0
BITMAP
20
00
A0
00
20
ENDCHAR
STARTCHAR uni283B
ENCODING 10299
SWIDTH 375 0
DWIDTH 6 0
BBX 3 5 0 0
BITMAP
A0
00
A0
00
20
ENDCHAR
STARTCHAR uni283C
ENCODING 10300
SWIDTH 375 0
DWIDTH 6 0
BBX 3 5 0 0
BITMAP
20
00
20
00
A0
ENDCHAR
STARTCHAR uni283D
ENCODING 10301
SWIDTH 375 0
DWIDTH 6 0
BBX 3 5 0 0
BITMAP
A0
00
20
00
A0
ENDCHAR
STARTCHAR uni283E
ENCODING 10302
SWIDTH 375 0
DWIDTH 6 0
BBX 3 5 0 0
BITMAP
20
00
A0
00
A0
ENDCHAR
STARTCHAR uni283F
ENCODING 10303
SWIDTH 375 0
DWIDTH 6 0
BBX 3 5 0 0
BITMAP
A0
00
A0
00
A0
ENDCHAR
STARTCHAR uni2840
ENCODING 10304
SWIDTH 375 0
DWIDTH 6 0
BBX 1 1 0 -2
BITMAP
80
ENDCHAR
STARTCHAR uni2841
ENCODING 10305
SWIDTH 375 0
DWIDTH 6 0
BBX 3 7 0 -2
BITMAP
80
00
00
00
00
00
80
ENDCHAR
STARTCHAR uni2842
ENCODING 10306
SWIDTH 375 0
DWIDTH 6 0
BBX 1 5 0 -2
BITMAP
80
00
00
00
80
ENDCHAR
STARTCHAR uni2843
ENCODING 10307
SWIDTH 375 0
DWIDTH 6 0
BBX 3 7 0 -2
BITMAP
80
00
80
00
00
00
80
ENDCHAR
STARTCHAR uni2844
ENCODING 10308
SWIDTH 375 0
DWIDTH 6 0
BBX 1 3 0 -2
BITMAP
80
00
80
ENDCHAR
STARTCHAR uni2845
ENCODING 10309
SWIDTH 375 0
DWIDTH 6 0
BBX 3 7 0 -2
BITMAP
80
00
00
00
80
00
80
ENDCHAR
STARTCHAR uni2846
ENCODING 10310
SWIDTH 375 0
DWIDTH 6 0
BBX 1 5 0 -2
BITMAP
80
00
80
00
80
ENDCHAR
STARTCHAR uni2847
ENCODING 10311
SWIDTH 375 0
DWIDTH 6 0
BBX 3 7 0 -2
BITMAP
80
00
80
00
80
00
80
ENDCHAR
STARTCHAR uni2848
ENCODING 10312
SWIDTH 375 0
DWIDTH 6 0
BBX 3 7 0 -2
BITMAP
20
00
00
00
00
00
80
ENDCHAR
STARTCHAR uni2849
ENCODING 10313
SWIDTH 375 0
DWIDTH 6 0
BBX 3 7 0 -2
BITMAP
A0
00
00
00
00
00
80
ENDCHAR
STARTCHAR uni284A
ENCODING 10314
SWIDTH 375 0
DWIDTH 6 0
BBX 3 7 0 -2
BITMAP
20
00
80
00
00
00
80
ENDCHAR
STARTCHAR uni284B
ENCODING 10315
SWIDTH 375 0
DWIDTH 6 0
BBX 3 7 0 -2
BITMAP
A0
00
80
00
00
00
80
ENDCHAR
STARTCHAR uni284C
ENCODING 10316
SWIDTH 375 0
DWIDTH 6 0
BBX 3 7 0 -2
BITMAP
20
00
00
00
80
00
80
ENDCHAR
STARTCHAR uni284D
ENCODING 10317
SWIDTH 375 0
DWIDTH 6 0
BBX 3 7 0 -2
BITMAP
A0
00
00
00
80
00
80
ENDCHAR
STARTCHAR uni284E
ENCODING 10318
SWIDTH 375 0
DWIDTH 6 0
BBX 3 7 0 -2
BITMAP
20
00
80
00
80
00
80
ENDCHAR
STARTCHAR uni284F
ENCODING 10319
SWIDTH 375 0
DWIDTH 6 0
BBX 3 7 0 -2
BITMAP
A0
00
80
00
80
00
80
ENDCHAR
STARTCHAR uni2850
ENCODING 10320
SWIDTH 375 0
DWIDTH 6 0
BBX 3 5 0 -2
BITMAP
20
00
00
00
80
ENDCHAR
STARTCHAR uni2851
ENCODING 10321
SWIDTH 375 0
DWIDTH 6 0
BBX 3 7 0 -2
BITMAP
80
00
20
00
00
00
80
ENDCHAR
STARTCHAR uni2852
ENCODING 10322
SWIDTH 375 0
DWIDTH 6 0
BBX 3 5 0 -2
BITMAP
A0
00
00
00
80
ENDCHAR
STARTCHAR uni2853
ENCODING 10323
SWIDTH 375 0
DWIDTH 6 0
BBX 3 7 0 -2
BITMAP
80
00
A0
00
00
00
80
ENDCHAR
STARTCHAR uni2854
ENCODING 10324
SWIDTH 375 0
DWIDTH 6 0
BBX 3 5 0 -2
BITMAP
20
00
80
00
80
ENDCHAR
STARTCHAR uni2855
ENCODING 10325
SWIDTH 375 0
DWIDTH 6 0
BBX 3 7 0 -2
BITMAP
80
00
20
00
80
00
80
ENDCHAR
STARTCHAR uni2856
ENCODING 10326
SWIDTH 375 0
DWIDTH 6 0
BBX 3 5 0 -2
BITMAP
A0
00
80
00
80
ENDCHAR
STARTCHAR uni2857
ENCODING 10327
SWIDTH 375 0
DWIDTH 6 0
BBX 3 7 0 -2
BITMAP
80
00
A0
00
80
00
80
ENDCHAR
STARTCHAR uni2858
ENCODING 10328
SWIDTH 375 0
DWIDTH 6 0
BBX 3 7 0 -2
BITMAP
20
00
20
00
00
00
80
ENDCHAR
STARTCHAR uni2859
ENCODING 10329
SWIDTH 375 0
DWIDTH 6 0
BBX 3 7 0 -2
BITMAP
A0
00
20
00
00
00
80
ENDCHAR
STARTCHAR uni285A
ENCODING 10330
SWIDTH 375 0
DWIDTH 6 0
BBX 3 7 0 -2
BITMAP
20
00
A0
00
00
00
80
ENDCHAR
STARTCHAR uni285B
ENCODING 10331
SWIDTH 375 0
DWIDTH 6 0
BBX 3 7 0 -2
BITMAP
A0
00
A0
00
00
00
80
ENDCHAR
STARTCHAR uni285C
ENCODING 10332
SWIDTH 375 0
DWIDTH 6 0
BBX 3 7 0 -2
BITMAP
20
00
20
00
80
00
80
ENDCHAR
STARTCHAR uni285D
ENCODING 10333
SWIDTH 375 0
DWIDTH 6 0
BBX 3 7 0 -2
BITMAP
A0
00
20
00
80
00
80
ENDCHAR
STARTCHAR uni285E
ENCODING 10334
SWIDTH 375 0
DWIDTH 6 0
BBX 3 7 0 -2
BITMAP
20
00
A0
00
80
00
80
ENDCHAR
STARTCHAR uni285F
ENCODING 10335
SWIDTH 375 0
DWIDTH 6 0
BBX 3 7 0 -2
BITMAP
A0
00
A0
00
80
00
80
ENDCHAR
STARTCHAR uni2860
ENCODING 10336
SWIDTH 375 0
DWIDTH 6 0
BBX 3 3 0 -2
BITMAP
20
00
80
ENDCHAR
STARTCHAR uni2861
ENCODING 10337
SWIDTH 375 0
DWIDTH 6 0
BBX 3 7 0 -2
BITMAP
80
00
00
00
20
00
80
ENDCHAR
STARTCHAR uni2862
ENCODING 10338
SWIDTH 375 0
DWIDTH 6 0
BBX 3 5 0 -2
BITMAP
80
00
20
00
80
ENDCHAR
STARTCHAR uni2863
ENCODING 10339
SWIDTH 375 0
DWIDTH 6 0
BBX 3 7 0 -2
BITMAP
80
00
80
00
20
00
80
ENDCHAR
STARTCHAR uni2864
ENCODING 10340
SWIDTH 375 0
DWIDTH 6 0
BBX 3 3 0 -2
BITMAP
A0
00
80
ENDCHAR
STARTCHAR uni2865
ENCODING 10341
SWIDTH 375 0
DWIDTH 6 0
BBX 3 7 0 -2
BITMAP
80
00
00
00
A0
00
80
ENDCHAR
STARTCHAR uni2866
ENCODING 10342
SWIDTH 375 0
DWIDTH 6 0
BBX 3 5 0 -2
BITMAP
80
00
A0
00
80
ENDCHAR
STARTCHAR uni2867
ENCODING 10343
SWIDTH 375 0
DWIDTH 6 0
BBX 3 7 0 -2
BITMAP
80
00
80
00
A0
00
80
ENDCHAR
STARTCHAR uni2868
ENCODING 10344
SWIDTH 375 0
DWIDTH 6 0
BBX 3 7 0 -2
BITMAP
20
00
00
00
20
00
80
ENDCHAR
STARTCHAR uni2869
ENCODING 10345
SWIDTH 375 0
DWIDTH 6 0
BBX 3 7 0 -2
BITMAP
A0
00
00
00
20
00
80
ENDCHAR
STARTCHAR uni286A
ENCODING 10346
SWIDTH 375 0
DWIDTH 6 0
BBX 3 7 0 -2
BITMAP
20
00
80
00
20
00
80
ENDCHAR
STARTCHAR uni286B
ENCODING 10347
SWIDTH 375 0
DWIDTH 6 0
BBX 3 7 0 -2
BITMAP
A0
00
80
00
20
00
80
ENDCHAR
STARTCHAR uni286C
ENCODING 10348
SWIDTH 375 0
DWIDTH 6 0
BBX 3 7 0 -2
BITMAP
20
00
00
00
A0
00
80
ENDCHAR
STARTCHAR uni286D
ENCODING 10349
SWIDTH 375 0
DWIDTH 6 0
BBX 3 7 0 -2
BITMAP
A0
00
00
00
A0
00
80
ENDCHAR
STARTCHAR uni286E
ENCODING 10350
SWIDTH 375 0
DWIDTH 6 0
BBX 3 7 0 -2
BITMAP
20
00
80
00
A0
00
80
ENDCHAR
STARTCHAR uni286F
ENCODING 10351
SWIDTH 375 0
DWIDTH 6 0
BBX 3 7 0 -2
BITMAP
A0
00
80
00
A0
00
80
ENDCHAR
STARTCHAR uni2870
ENCODING 10352
SWIDTH 375 0
DWIDTH 6 0
BBX 3 5 0 -2
BITMAP
20
00
20
00
80
ENDCHAR
STARTCHAR uni2871
ENCODING 10353
SWIDTH 375 0
DWIDTH 6 0
BBX 3 7 0 -2
BITMAP
80
00
20
00
20
00
80
ENDCHAR
STARTCHAR uni2872
ENCODING 10354
SWIDTH 375 0
DWIDTH 6 0
BBX 3 5 0 -2
BITMAP
A0
00
20
00
80
ENDCHAR
STARTCHAR uni2873
ENCODING 10355
SWIDTH 375 0
DWIDTH 6 0
BBX 3 7 0 -2
BITMAP
80
00
A0
00
20
00
80
ENDCHAR
STARTCHAR uni2874
ENCODING 10356
SWIDTH 375 0
DWIDTH 6 0
BBX 3 5 0 -2
BITMAP
20
00
A0
00
80
ENDCHAR
STARTCHAR uni2875
ENCODING 10357
SWIDTH 375 0
DWIDTH 6 0
BBX 3 7 0 -2
BITMAP
80
00
20
00
A0
00
80
ENDCHAR
STARTCHAR uni2876
ENCODING 10358
SWIDTH 375 0
DWIDTH 6 0
BBX 3 5 0 -2
BITMAP
A0
00
A0
00
80
ENDCHAR
STARTCHAR uni2877
ENCODING 10359
SWIDTH 375 0
DWIDTH 6 0
BBX 3 7 0 -2
BITMAP
80
00
A0
00
A0
00
80
ENDCHAR
STARTCHAR uni2878
ENCODING 10360
SWIDTH 375 0
DWIDTH 6 0
BBX 3 7 0 -2
BITMAP
20
00
20
00
20
00
80
ENDCHAR
STARTCHAR uni2879
ENCODING 10361
SWIDTH 375 0
DWIDTH 6 0
BBX 3 7 0 -2
BITMAP
A0
00
20
00
20
00
80
ENDCHAR
STARTCHAR uni287A
ENCODING 10362
SWIDTH 375 0
DWIDTH 6 0
BBX 3 7 0 -2
BITMAP
20
00
A0
00
20
00
80
ENDCHAR
STARTCHAR uni287B
ENCODING 10363
SWIDTH 375 0
DWIDTH 6 0
BBX 3 7 0 -2
BITMAP
A0
00
A0
00
20
00
80
ENDCHAR
STARTCHAR uni287C
ENCODING 10364
SWIDTH 375 0
DWIDTH 6 0
BBX 3 7 0 -2
BITMAP
20
00
20
00
A0
00
80
ENDCHAR
STARTCHAR uni287D
ENCODING 10365
SWIDTH 375 0
DWIDTH 6 0
BBX 3 7 0 -2
BITMAP
A0
00
20
00
A0
00
80
ENDCHAR
STARTCHAR uni287E
ENCODING 10366
SWIDTH 375 0
DWIDTH 6 0
BBX 3 7 0 -2
BITMAP
20
00
A0
00
A0
00
80
ENDCHAR
STARTCHAR uni287F
ENCODING 10367
SWIDTH 375 0
DWIDTH 6 0
BBX 3 7 0 -2
BITMAP
A0
00
A0
00
A0
00
80
ENDCHAR
STARTCHAR uni2880
ENCODING 10368
SWIDTH 375 0
DWIDTH 6 0
BBX 1 1 2 -2
BITMAP
80
ENDCHAR
STARTCHAR uni2881
ENCODING 10369
SWIDTH 375 0
DWIDTH 6 0
BBX 3 7 0 -2
BITMAP
80
00
00
00
00
00
20
ENDCHAR
STARTCHAR uni2882
ENCODING 10370
SWIDTH 375 0
DWIDTH 6 0
BBX 3 5 0 -2
BITMAP
80
00
00
00
20
ENDCHAR
STARTCHAR uni2883
ENCODING 10371
SWIDTH 375 0
DWIDTH 6 0
BBX 3 7 0 -2
BITMAP
80
00
80
00
00
00
20
ENDCHAR
STARTCHAR uni2884
ENCODING 10372
SWIDTH 375 0
DWIDTH 6 0
BBX 3 3 0 -2
BITMAP
80
00
20
ENDCHAR
STARTCHAR uni2885
ENCODING 10373
SWIDTH 375 0
DWIDTH 6 0
BBX 3 7 0 -2
BITMAP
80
00
00
00
80
00
20
ENDCHAR
STARTCHAR uni2886
ENCODING 10374
SWIDTH 375 0
DWIDTH 6 0
BBX 3 5 0 -2
BITMAP
80
00
80
00
20
ENDCHAR
STARTCHAR uni2887
ENCODING 10375
SWIDTH 375 0
DWIDTH 6 0
BBX 3 7 0 -2
BITMAP
80
00
80
00
80
00
20
ENDCHAR
STARTCHAR uni2888
ENCODING 10376
SWIDTH 375 0
DWIDTH 6 0
BBX 3 7 0 -2
BITMAP
20
00
00
00
00
00
20
ENDCHAR
STARTCHAR uni2889
ENCODING 10377
SWIDTH 375 0
DWIDTH 6 0
BBX 3 7 0 -2
BITMAP
A0
00
00
00
00
00
20
ENDCHAR
STARTCHAR uni288A
ENCODING 10378
SWIDTH 375 0
DWIDTH 6 0
BBX 3 7 0 -2
BITMAP
20
00
80
00
00
00
20
ENDCHAR
STARTCHAR uni288B
ENCODING 10379
SWIDTH 375 0
DWIDTH 6 0
BBX 3 7 0 -2
BITMAP
A0
00
80
00
00
00
20
ENDCHAR
STARTCHAR uni288C
ENCODING 10380
SWIDTH 375 0
DWIDTH 6 0
BBX 3 7 0 -2
BITMAP
20
00
00
00
80
00
20
ENDCHAR
STARTCHAR uni288D
ENCODING 10381
SWIDTH 375 0
DWIDTH 6 0
BBX 3 7 0 -2
BITMAP
A0
00
00
00
80
00
20
ENDCHAR
STARTCHAR uni288E
ENCODING 10382
SWIDTH 375 0
DWIDTH 6 0
BBX 3 7 0 -2
BITMAP
20
00
80
00
80
00
20
ENDCHAR
STARTCHAR uni288F
ENCODING 10383
SWIDTH 375 0
DWIDTH 6 0
BBX 3 7 0 -2
BITMAP
A0
00
80
00
80
00
20
ENDCHAR
STARTCHAR uni2890
ENCODING 10384
SWIDTH 375 0
DWIDTH 6 0
BBX 1 5 2 -2
BITMAP
80
00
00
00
80
ENDCHAR
STARTCHAR uni2891
ENCODING 10385
SWIDTH 375 0
DWIDTH 6 0
BBX 3 7 0 -2
BITMAP
80
00
20
00
00
00
20
ENDCHAR
STARTCHAR uni2892
ENCODING 10386
SWIDTH 375 0
DWIDTH 6 0
BBX 3 5 0 -2
BITMAP
A0
00
00
00
20
ENDCHAR
STARTCHAR uni2893
ENCODING 10387
SWIDTH 375 0
DWIDTH 6 0
BBX 3 7 0 -2
BITMAP
80
00
A0
00
00
00
20
ENDCHAR
STARTCHAR uni2894
ENCODING 10388
SWIDTH 375 0
DWIDTH 6 0
BBX 3 5 0 -2
BITMAP
20
00
80
00
20
ENDCHAR
STARTCHAR uni2895
ENCODING 10389
SWIDTH 375 0
DWIDTH 6 0
BBX 3 7 0 -2
BITMAP
80
00
20
00
80
00
20
ENDCHAR
STARTCHAR uni2896
ENCODING 10390
SWIDTH 375 0
DWIDTH 6 0
BBX 3 5 0 -2
BITMAP
A0
00
80
00
20
ENDCHAR
STARTCHAR uni2897
ENCODING 10391
SWIDTH 375 0
DWIDTH 6 0
BBX 3 7 0 -2
BITMAP
80
00
A0
00
80
00
20
ENDCHAR
STARTCHAR uni2898
ENCODING 10392
SWIDTH 375 0
DWIDTH 6 0
BBX 3 7 0 -2
BITMAP
20
00
20
00
00
00
20
ENDCHAR
STARTCHAR uni2899
ENCODING 10393
SWIDTH 375 0
DWIDTH 6 0
BBX 3 7 0 -2
BITMAP
A0
00
20
00
00
00
20
ENDCHAR
STARTCHAR uni289A
ENCODING 10394
SWIDTH 375 0
DWIDTH 6 0
BBX 3 7 0 -2
BITMAP
20
00
A0
00
00
00
20
ENDCHAR
STARTCHAR uni289B
ENCODING 10395
SWIDTH 375 0
DWIDTH 6 0
BBX 3 7 0 -2
BITMAP
A0
00
A0
00
00
00
20
ENDCHAR
STARTCHAR uni289C
ENCODING 10396
SWIDTH 375 0
DWIDTH 6 0
BBX 3 7 0 -2
BITMAP
20
00
20
00
80
00
20
ENDCHAR
STARTCHAR uni289D
ENCODING 10397
SWIDTH 375 0
DWIDTH 6 0
BBX 3 7 0 -2
BITMAP
A0
00
20
00
80
00
20
ENDCHAR
STARTCHAR uni289E
ENCODING 10398
SWIDTH 375 0
DWIDTH 6 0
BBX 3 7 0 -2
BITMAP
20
00
A0
00
80
00
20
ENDCHAR
STARTCHAR uni289F
ENCODING 10399
SWIDTH 375 0
DWIDTH 6 0
BBX 3 7 0 -2
BITMAP
A0
00
A0
00
80
00
20
ENDCHAR
STARTCHAR uni28A0
ENCODING 10400
SWIDTH 375 0
DWIDTH 6 0
BBX 1 3 2 -2
BITMAP
80
00
80
ENDCHAR
STARTCHAR uni28A1
ENCODING 10401
SWIDTH 375 0
DWIDTH 6 0
BBX 3 7 0 -2
BITMAP
80
00
00
00
20
00
20
ENDCHAR
STARTCHAR uni28A2
ENCODING 10402
SWIDTH 375 0
DWIDTH 6 0
BBX 3 5 0 -2
BITMAP
80
00
20
00
20
ENDCHAR
STARTCHAR uni28A3
ENCODING 10403
SWIDTH 375 0
DWIDTH 6 0
BBX 3 7 0 -2
BITMAP
80
00
80
00
20
00
20
ENDCHAR
STARTCHAR uni28A4
ENCODING 10404
SWIDTH 375 0
DWIDTH 6 0
BBX 3 3 0 -2
BITMAP
A0
00
20
ENDCHAR
STARTCHAR uni28A5
ENCODING 10405
SWIDTH 375 0
DWIDTH 6 0
BBX 3 7 0 -2
BITMAP
80
00
00
00
A0
00
20
ENDCHAR
STARTCHAR uni28A6
ENCODING 10406
SWIDTH 375 0
DWIDTH 6 0
BBX 3 5 0 -2
BITMAP
80
00
A0
00
20
ENDCHAR
STARTCHAR uni28A7
ENCODING 10407
SWIDTH 375 0
DWIDTH 6 0
BBX 3 7 0 -2
BITMAP
80
00
80
00
A0
00
20
ENDCHAR
STARTCHAR uni28A8
ENCODING 10408
SWIDTH 375 0
DWIDTH 6 0
BBX 3 7 0 -2
BITMAP
20
00
00
00
20
00
20
ENDCHAR
STARTCHAR uni28A9
ENCODING 10409
SWIDTH 375 0
DWIDTH 6 0
BBX 3 7 0 -2
BITMAP
A0
00
00
00
20
00
20
ENDCHAR
STARTCHAR uni28AA
ENCODING 10410
SWIDTH 375 0
DWIDTH 6 0
BBX 3 7 0 -2
BITMAP
20
00
80
00
20
00
20
ENDCHAR
STARTCHAR uni28AB
ENCODING 10411
SWIDTH 375 0
DWIDTH 6 0
BBX 3 7 0 -2
BITMAP
A0
00
80
00
20
00
20
ENDCHAR
STARTCHAR uni28AC
ENCODING 10412
SWIDTH 375 0
DWIDTH 6 0
BBX 3 7 0 -2
BITMAP
20
00
00
00
A0
00
20
ENDCHAR
STARTCHAR uni28AD
ENCODING 10413
SWIDTH 375 0
DWIDTH 6 0
BBX 3 7 0 -2
BITMAP
A0
00
00
00
A0
00
20
ENDCHAR
STARTCHAR uni28AE
ENCODING 10414
SWIDTH 375 0
DWIDTH 6 0
BBX 3 7 0 -2
BITMAP
20
00
80
00
A0
00
20
ENDCHAR
STARTCHAR uni28AF
ENCODING 10415
SWIDTH 375 0
DWIDTH 6 0
BBX 3 7 0 -2
BITMAP
A0
00
80
00
A0
00
20
ENDCHAR
STARTCHAR uni28B0
ENCODING 10416
SWIDTH 375 0
DWIDTH 6 0
BBX 1 5 2 -2
BITMAP
80
00
80
00
80
ENDCHAR
STARTCHAR uni28B1
ENCODING 10417
SWIDTH 375 0
DWIDTH 6 0
BBX 3 7 0 -2
BITMAP
80
00
20
00
20
00
20
ENDCHAR
STARTCHAR uni28B2
ENCODING 10418
SWIDTH 375 0
DWIDTH 6 0
BBX 3 5 0 -2
BITMAP
A0
00
20
00
20
ENDCHAR
STARTCHAR uni28B3
ENCODING 10419
SWIDTH 375 0
DWIDTH 6 0
BBX 3 7 0 -2
BITMAP
80
00
A0
00
20
00
20
ENDCHAR
STARTCHAR uni28B4
ENCODING 10420
SWIDTH 375 0
DWIDTH 6 0
BBX 3 5 0 -2
BITMAP
20
00
A0
00
20
ENDCHAR
STARTCHAR uni28B5
ENCODING 10421
SWIDTH 375 0
DWIDTH 6 0
BBX 3 7 0 -2
BITMAP
80
00
20
00
A0
00
20
ENDCHAR
STARTCHAR uni28B6
ENCODING 10422
SWIDTH 375 0
DWIDTH 6 0
BBX 3 5 0 -2
BITMAP
A0
00
A0
00
20
ENDCHAR
STARTCHAR uni28B7
ENCODING 10423
SWIDTH 375 0
DWIDTH 6 0
BBX 3 7 0 -2
BITMAP
80
00
A0
00
A0
00
20
ENDCHAR
STARTCHAR uni28B8
ENCODING 10424
SWIDTH 375 0
DWIDTH 6 0
BBX 3 7 0 -2
BITMAP
20
00
20
00
20
00
20
ENDCHAR
STARTCHAR uni28B9
ENCODING 10425
SWIDTH 375 0
DWIDTH 6 0
BBX 3 7 0 -2
BITMAP
A0
00
20
00
20
00
20
ENDCHAR
STARTCHAR uni28BA
ENCODING 10426
SWIDTH 375 0
DWIDTH 6 0
BBX 3 7 0 -2
BITMAP
20
00
A0
00
20
00
20
ENDCHAR
STARTCHAR uni28BB
ENCODING 10427
SWIDTH 375 0
DWIDTH 6 0
BBX 3 7 0 -2
BITMAP
A0
00
A0
00
20
00
20
ENDCHAR
STARTCHAR uni28BC
ENCODING 10428
SWIDTH 375 0
DWIDTH 6 0
BBX 3 7 0 -2
BITMAP
20
00
20
00
A0
00
20
ENDCHAR
STARTCHAR uni28BD
ENCODING 10429
SWIDTH 375 0
DWIDTH 6 0
BBX 3 7 0 -2
BITMAP
A0
00
20
00
A0
00
20
ENDCHAR
STARTCHAR uni28BE
ENCODING 10430
SWIDTH 375 0
DWIDTH 6 0
BBX 3 7 0 -2
BITMAP
20
00
A0
00
A0
00
20
ENDCHAR
STARTCHAR uni28BF
ENCODING 10431
SWIDTH 375 0
DWIDTH 6 0
BBX 3 7 0 -2
BITMAP
A0
00
A0
00
A0
00
20
ENDCHAR
STARTCHAR uni28C0
ENCODING 10432
SWIDTH 375 0
DWIDTH 6 0
BBX 3 1 0 -2
BITMAP
A0
ENDCHAR
STARTCHAR uni28C1
ENCODING 10433
SWIDTH 375 0
DWIDTH 6 0
BBX 3 7 0 -2
BITMAP
80
00
00
00
00
00
A0
ENDCHAR
STARTCHAR uni28C2
ENCODING 10434
SWIDTH 375 0
DWIDTH 6 0
BBX 3 5 0 -2
BITMAP
80
00
00
00
A0
ENDCHAR
STARTCHAR uni28C3
ENCODING 10435
SWIDTH 375 0
DWIDTH 6 0
BBX 3 7 0 -2
BITMAP
80
00
80
00
00
00
A0
ENDCHAR
STARTCHAR uni28C4
ENCODING 10436
SWIDTH 375 0
DWIDTH 6 0
BBX 3 3 0 -2
BITMAP
80
00
A0
ENDCHAR
STARTCHAR uni28C5
ENCODING 10437
SWIDTH 375 0
DWIDTH 6 0
BBX 3 7 0 -2
BITMAP
80
00
00
00
80
00
A0
ENDCHAR
STARTCHAR uni28C6
ENCODING 10438
SWIDTH 375 0
DWIDTH 6 0
BBX 3 5 0 -2
BITMAP
80
00
80
00
A0
ENDCHAR
STARTCHAR uni28C7
ENCODING 10439
SWIDTH 375 0
DWIDTH 6 0
BBX 3 7 0 -2
BITMAP
80
00
80
00
80
00
A0
ENDCHAR
STARTCHAR uni28C8
ENCODING 10440
SWIDTH 375 0
DWIDTH 6 0
BBX 3 7 0 -2
BITMAP
20
00
00
00
00
00
A0
ENDCHAR
STARTCHAR uni28C9
ENCODING 10441
SWIDTH 375 0
DWIDTH 6 0
BBX 3 7 0 -2
BITMAP
A0
00
00
00
00
00
A0
ENDCHAR
STARTCHAR uni28CA
ENCODING 10442
SWIDTH 375 0
DWIDTH 6 0
BBX 3 7 0 -2
BITMAP
20
00
80
00
00
00
A0
ENDCHAR
STARTCHAR uni28CB
ENCODING 10443
SWIDTH 375 0
DWIDTH 6 0
BBX 3 7 0 -2
BITMAP
A0
00
80
00
00
00
A0
ENDCHAR
STARTCHAR uni28CC
ENCODING 10444
SWIDTH 375 0
DWIDTH 6 0
BBX 3 7 0 -2
BITMAP
20
00
00
00
80
00
A0
ENDCHAR
STARTCHAR uni28CD
ENCODING 10445
SWIDTH 375 0
DWIDTH 6 0
BBX 3 7 0 -2
BITMAP
A0
00
00
00
80
00
A0
ENDCHAR
STARTCHAR uni28CE
ENCODING 10446
SWIDTH 375 0
DWIDTH 6 0
BBX 3 7 0 -2
BITMAP
20
00
80
00
80
00
A0
ENDCHAR
STARTCHAR uni28CF
ENCODING 10447
SWIDTH 375 0
DWIDTH 6 0
BBX 3 7 0 -2
BITMAP
A0
00
80
00
80
00
A0
ENDCHAR
STARTCHAR uni28D0
ENCODING 10448
SWIDTH 375 0
DWIDTH 6 0
BBX 3 5 0 -2
BITMAP
20
00
00
00
A0
ENDCHAR
STARTCHAR uni28D1
ENCODING 10449
SWIDTH 375 0
DWIDTH 6 0
BBX 3 7 0 -2
BITMAP
80
00
20
00
00
00
A0
ENDCHAR
STARTCHAR uni28D2
ENCODING 10450
SWIDTH 375 0
DWIDTH 6 0
BBX 3 5 0 -2
BITMAP
A0
00
00
00
A0
ENDCHAR
STARTCHAR uni28D3
ENCODING 10451
SWIDTH 375 0
DWIDTH 6 0
BBX 3 7 0 -2
BITMAP
80
00
A0
00
00
00
A0
ENDCHAR
STARTCHAR uni28D4
ENCODING 10452
SWIDTH 375 0
DWIDTH 6 0
BBX 3 5 0 -2
BITMAP
20
00
80
00
A0
ENDCHAR
STARTCHAR uni28D5
ENCODING 10453
SWIDTH 375 0
DWIDTH 6 0
BBX 3 7 0 -2
BITMAP
80
00
20
00
80
00
A0
ENDCHAR
STARTCHAR uni28D6
ENCODING 10454
SWIDTH 375 0
DWIDTH 6 0
BBX 3 5 0 -2
BITMAP
A0
00
80
00
A0
ENDCHAR
STARTCHAR uni28D7
ENCODING 10455
SWIDTH 375 0
DWIDTH 6 0
BBX 3 7 0 -2
BITMAP
80
00
A0
00
80
00
A0
ENDCHAR
STARTCHAR uni28D8
ENCODING 10456
SWIDTH 375 0
DWIDTH 6 0
BBX 3 7 0 -2
BITMAP
20
00
20
00
00
00
A0
ENDCHAR
STARTCHAR uni28D9
ENCODING 10457
SWIDTH 375 0
DWIDTH 6 0
BBX 3 7 0 -2
BITMAP
A0
00
20
00
00
00
A0
ENDCHAR
STARTCHAR uni28DA
ENCODING 10458
SWIDTH 375 0
DWIDTH 6 0
BBX 3 7 0 -2
BITMAP
20
00
A0
00
00
00
A0
ENDCHAR
STARTCHAR uni28DB
ENCODING 10459
SWIDTH 375 0
DWIDTH 6 0
BBX 3 7 0 -2
BITMAP
A0
00
A0
00
00
00
A0
ENDCHAR
STARTCHAR uni28DC
ENCODING 10460
SWIDTH 375 0
DWIDTH 6 0
BBX 3 7 0 -2
BITMAP
20
00
20
00
80
00
A0
ENDCHAR
STARTCHAR uni28DD
ENCODING 10461
SWIDTH 375 0
DWIDTH 6 0
BBX 3 7 0 -2
BITMAP
A0
00
20
00
80
00
A0
ENDCHAR
STARTCHAR uni28DE
ENCODING 10462
SWIDTH 375 0
DWIDTH 6 0
BBX 3 7 0 -2
BITMAP
20
00
A0
00
80
00
A0
ENDCHAR
STARTCHAR uni28DF
ENCODING 10463
SWIDTH 375 0
DWIDTH 6 0
BBX 3 7 0 -2
BITMAP
A0
00
A0
00
80
00
A0
ENDCHAR
STARTCHAR uni28E0
ENCODING 10464
SWIDTH 375 0
DWIDTH 6 0
BBX 3 3 0 -2
BITMAP
20
00
A0
ENDCHAR
STARTCHAR uni28E1
ENCODING 10465
SWIDTH 375 0
DWIDTH 6 0
BBX 3 7 0 -2
BITMAP
80
00
00
00
20
00
A0
ENDCHAR
STARTCHAR uni28E2
ENCODING 10466
SWIDTH 375 0
DWIDTH 6 0
BBX 3 5 0 -2
BITMAP
80
00
20
00
A0
ENDCHAR
STARTCHAR uni28E3
ENCODING 10467
SWIDTH 375 0
DWIDTH 6 0
BBX 3 7 0 -2
BITMAP
80
00
80
00
20
00
A0
ENDCHAR
STARTCHAR uni28E4
ENCODING 10468
SWIDTH 375 0
DWIDTH 6 0
BBX 3 3 0 -2
BITMAP
A0
00
A0
ENDCHAR
STARTCHAR uni28E5
ENCODING 10469
SWIDTH 375 0
DWIDTH 6 0
BBX 3 7 0 -2
BITMAP
80
00
00
00
A0
00
A0
ENDCHAR
STARTCHAR uni28E6
ENCODING 10470
SWIDTH 375 0
DWIDTH 6 0
BBX 3 5 0 -2
BITMAP
80
00
A0
00
A0
ENDCHAR
STARTCHAR uni28E7
ENCODING 10471
SWIDTH 375 0
DWIDTH 6 0
BBX 3 7 0 -2
BITMAP
80
00
80
00
A0
00
A0
ENDCHAR
STARTCHAR uni28E8
ENCODING 10472
SWIDTH 375 0
DWIDTH 6 0
BBX 3 7 0 -2
BITMAP
20
00
00
00
20
00
A0
ENDCHAR
STARTCHAR uni28E9
ENCODING 10473
SWIDTH 375 0
DWIDTH 6 0
BBX 3 7 0 -2
BITMAP
A0
00
00
00
20
00
A0
ENDCHAR
STARTCHAR uni28EA
ENCODING 10474
SWIDTH 375 0
DWIDTH 6 0
BBX 3 7 0 -2
BITMAP
20
00
80
00
20
00
A0
ENDCHAR
STARTCHAR uni28EB
ENCODING 10475
SWIDTH 375 0
DWIDTH 6 0
BBX 3 7 0 -2
BITMAP
A0
00
80
00
20
00
A0
ENDCHAR
STARTCHAR uni28EC
ENCODING 10476
SWIDTH 375 0
DWIDTH 6 0
BBX 3 7 0 -2
BITMAP
20
00
00
00
A0
00
A0
ENDCHAR
STARTCHAR uni28ED
ENCODING 10477
SWIDTH 375 0
DWIDTH 6 0
BBX 3 7 0 -2
BITMAP
A0
00
00
00
A0
00
A0
ENDCHAR
STARTCHAR uni28EE
ENCODING 10478
SWIDTH 375 0
DWIDTH 6 0
BBX 3 7 0 -2
BITMAP
20
00
80
00
A0
00
A0
ENDCHAR
STARTCHAR uni28EF
ENCODING 10479
SWIDTH 375 0
DWIDTH 6 0
BBX 3 7 0 -2
BITMAP
A0
00
80
00
A0
00
A0
ENDCHAR
STARTCHAR uni28F0
ENCODING 10480
SWIDTH 375 0
DWIDTH 6 0
BBX 3 5 0 -2
BITMAP
20
00
20
00
A0
ENDCHAR
STARTCHAR uni28F1
ENCODING 10481
SWIDTH 375 0
DWIDTH 6 0
BBX 3 7 0 -2
BITMAP
80
00
20
00
20
00
A0
ENDCHAR
STARTCHAR uni28F2
ENCODING 10482
SWIDTH 375 0
DWIDTH 6 0
BBX 3 5 0 -2
BITMAP
A0
00
20
00
A0
ENDCHAR
STARTCHAR uni28F3
ENCODING 10483
SWIDTH 375 0
DWIDTH 6 0
BBX 3 7 0 -2
BITMAP
80
00
A0
00
20
00
A0
ENDCHAR
STARTCHAR uni28F4
ENCODING 10484
SWIDTH 375 0
DWIDTH 6 0
BBX 3 5 0 -2
BITMAP
20
00
A0
00
A0
ENDCHAR
STARTCHAR uni28F5
ENCODING 10485
SWIDTH 375 0
DWIDTH 6 0
BBX 3 7 0 -2
BITMAP
80
00
20
00
A0
00
A0
ENDCHAR
STARTCHAR uni28F6
ENCODING 10486
SWIDTH 375 0
DWIDTH 6 0
BBX 3 5 0 -2
BITMAP
A0
00
A0
00
A0
ENDCHAR
STARTCHAR uni28F7
ENCODING 10487
SWIDTH 375 0
DWIDTH 6 0
BBX 3 7 0 -2
BITMAP
80
00
A0
00
A0
00
A0
ENDCHAR
STARTCHAR uni28F8
ENCODING 10488
SWIDTH 375 0
DWIDTH 6 0
BBX 3 7 0 -2
BITMAP
20
00
20
00
20
00
A0
ENDCHAR
STARTCHAR uni28F9
ENCODING 10489
SWIDTH 375 0
DWIDTH 6 0
BBX 3 7 0 -2
BITMAP
A0
00
20
00
20
00
A0
ENDCHAR
STARTCHAR uni28FA
ENCODING 10490
SWIDTH 375 0
DWIDTH 6 0
BBX 3 7 0 -2
BITMAP
20
00
A0
00
20
00
A0
ENDCHAR
STARTCHAR uni28FB
ENCODING 10491
SWIDTH 375 0
DWIDTH 6 0
BBX 3 7 0 -2
BITMAP
A0
00
A0
00
20
00
A0
ENDCHAR
STARTCHAR uni28FC
ENCODING 10492
SWIDTH 375 0
DWIDTH 6 0
BBX 3 7 0 -2
BITMAP
20
00
20
00
A0
00
A0
ENDCHAR
STARTCHAR uni28FD
ENCODING 10493
SWIDTH 375 0
DWIDTH 6 0
BBX 3 7 0 -2
BITMAP
A0
00
20
00
A0
00
A0
ENDCHAR
STARTCHAR uni28FE
ENCODING 10494
SWIDTH 375 0
DWIDTH 6 0
BBX 3 7 0 -2
BITMAP
20
00
A0
00
A0
00
A0
ENDCHAR
STARTCHAR uni28FF
ENCODING 10495
SWIDTH 375 0
DWIDTH 6 0
BBX 3 7 0 -2
BITMAP
A0
00
A0
00
A0
00
A0
ENDCHAR
STARTCHAR uni2919
ENCODING 10521
SWIDTH 375 0
DWIDTH 6 0
BBX 5 5 -1 0
BITMAP
08
10
E0
10
08
ENDCHAR
STARTCHAR uni291A
ENCODING 10522
SWIDTH 375 0
DWIDTH 6 0
BBX 6 5 -1 0
BITMAP
80
40
3C
40
80
ENDCHAR
STARTCHAR uni291B
ENCODING 10523
SWIDTH 375 0
DWIDTH 6 0
BBX 7 5 -1 0
BITMAP
0A
14
E8
14
0A
ENDCHAR
STARTCHAR uni291C
ENCODING 10524
SWIDTH 375 0
DWIDTH 6 0
BBX 7 5 -1 0
BITMAP
A0
50
2E
50
A0
ENDCHAR
STARTCHAR uni2B60
ENCODING 11104
SWIDTH 375 0
DWIDTH 6 0
BBX 4 8 0 0
BITMAP
80
A0
F0
A0
A0
C0
80
80
ENDCHAR
STARTCHAR uni2B61
ENCODING 11105
SWIDTH 375 0
DWIDTH 6 0
BBX 4 8 0 0
BITMAP
80
80
80
C0
60
50
50
50
ENDCHAR
STARTCHAR uni2B62
ENCODING 11106
SWIDTH 375 0
DWIDTH 6 0
BBX 5 8 -1 0
BITMAP
20
40
70
50
58
90
10
08
ENDCHAR
STARTCHAR uni2B64
ENCODING 11108
SWIDTH 375 0
DWIDTH 6 0
BBX 5 7 0 0
BITMAP
70
D8
88
F8
D8
D8
F8
ENDCHAR
STARTCHAR uni2B80
ENCODING 11136
SWIDTH 375 0
DWIDTH 6 0
BBX 5 9 0 0
BITMAP
80
C0
E0
F0
F8
F0
E0
C0
80
ENDCHAR
STARTCHAR uni2B81
ENCODING 11137
SWIDTH 375 0
DWIDTH 6 0
BBX 5 9 0 0
BITMAP
80
40
20
10
08
10
20
40
80
ENDCHAR
STARTCHAR uni2B82
ENCODING 11138
SWIDTH 375 0
DWIDTH 6 0
BBX 5 9 0 0
BITMAP
08
18
38
78
F8
78
38
18
08
ENDCHAR
STARTCHAR uni2B83
ENCODING 11139
SWIDTH 375 0
DWIDTH 6 0
BBX 5 9 0 0
BITMAP
08
10
20
40
80
40
20
10
08
ENDCHAR
STARTCHAR uniE0A0
ENCODING 57504
SWIDTH 375 0
DWIDTH 6 0
BBX 4 8 0 0
BITMAP
80
A0
F0
A0
A0
C0
80
80
ENDCHAR
STARTCHAR uniE0A1
ENCODING 57505
SWIDTH 375 0
DWIDTH 6 0
BBX 4 8 0 0
BITMAP
80
80
80
C0
60
50
50
50
ENDCHAR
STARTCHAR uniE0A2
ENCODING 57506
SWIDTH 375 0
DWIDTH 6 0
BBX 4 7 0 0
BITMAP
60
90
90
F0
D0
D0
F0
ENDCHAR
STARTCHAR uniE0B0
ENCODING 57520
SWIDTH 375 0
DWIDTH 6 0
BBX 5 10 0 -1
BITMAP
80
C0
E0
F0
F8
F8
F0
E0
C0
80
ENDCHAR
STARTCHAR uniE0B1
ENCODING 57521
SWIDTH 375 0
DWIDTH 6 0
BBX 5 10 0 -1
BITMAP
80
40
20
10
08
08
10
20
40
80
ENDCHAR
STARTCHAR uniE0B2
ENCODING 57522
SWIDTH 375 0
DWIDTH 6 0
BBX 5 10 0 -1
BITMAP
08
18
38
78
F8
F8
78
38
18
08
ENDCHAR
STARTCHAR uniE0B3
ENCODING 57523
SWIDTH 375 0
DWIDTH 6 0
BBX 5 10 0 -1
BITMAP
08
10
20
40
80
80
40
20
10
08
ENDCHAR
STARTCHAR uniE0C0
ENCODING 57536
SWIDTH 375 0
DWIDTH 6 0
BBX 7 5 -1 0
BITMAP
A0
50
28
54
A2
ENDCHAR
STARTCHAR uniE0C1
ENCODING 57537
SWIDTH 375 0
DWIDTH 6 0
BBX 3 5 2 0
BITMAP
80
40
20
40
80
ENDCHAR
STARTCHAR uniE0C2
ENCODING 57538
SWIDTH 375 0
DWIDTH 6 0
BBX 5 8 -1 -1
BITMAP
50
50
F8
70
70
20
20
20
ENDCHAR
STARTCHAR uniE0C3
ENCODING 57539
SWIDTH 375 0
DWIDTH 6 0
BBX 5 5 0 0
BITMAP
80
78
00
78
80
ENDCHAR
STARTCHAR uniE0C4
ENCODING 57540
SWIDTH 375 0
DWIDTH 6 0
BBX 6 5 0 0
BITMAP
A0
5C
20
5C
A0
ENDCHAR
STARTCHAR uniE0C5
ENCODING 57541
SWIDTH 375 0
DWIDTH 6 0
BBX 5 5 -1 0
BITMAP
08
F0
00
F0
08
ENDCHAR
STARTCHAR uniE0C6
ENCODING 57542
SWIDTH 375 0
DWIDTH 6 0
BBX 6 5 -1 0
BITMAP
14
E8
10
E8
14
ENDCHAR
STARTCHAR uniE0D1
ENCODING 57553
SWIDTH 375 0
DWIDTH 6 0
BBX 3 5 -1 0
BITMAP
20
40
80
40
20
ENDCHAR
STARTCHAR uniF031
ENCODING 61489
SWIDTH 375 0
DWIDTH 6 0
BBX 4 5 0 0
BITMAP
F0
F0
90
90
F0
ENDCHAR
STARTCHAR uniF033
ENCODING 61491
SWIDTH 375 0
DWIDTH 6 0
BBX 3 5 0 0
BITMAP
20
60
E0
60
20
ENDCHAR
STARTCHAR uniF034
ENCODING 61492
SWIDTH 375 0
DWIDTH 6 0
BBX 3 5 0 0
BITMAP
80
C0
E0
C0
80
ENDCHAR
STARTCHAR uniF035
ENCODING 61493
SWIDTH 375 0
DWIDTH 6 0
BBX 5 3 -1 1
BITMAP
20
70
F8
ENDCHAR
STARTCHAR uniF036
ENCODING 61494
SWIDTH 375 0
DWIDTH 6 0
BBX 5 3 -1 1
BITMAP
F8
70
20
ENDCHAR
STARTCHAR uniF037
ENCODING 61495
SWIDTH 375 0
DWIDTH 6 0
BBX 4 3 0 1
BITMAP
50
F0
50
ENDCHAR
STARTCHAR uniF038
ENCODING 61496
SWIDTH 375 0
DWIDTH 6 0
BBX 4 3 0 1
BITMAP
A0
F0
A0
ENDCHAR
STARTCHAR uniF039
ENCODING 61497
SWIDTH 375 0
DWIDTH 6 0
BBX 5 5 -1 0
BITMAP
80
A8
F8
A8
80
ENDCHAR
STARTCHAR uniF03A
ENCODING 61498
SWIDTH 375 0
DWIDTH 6 0
BBX 5 5 0 0
BITMAP
08
A8
F8
A8
08
ENDCHAR
STARTCHAR uniF03B
ENCODING 61499
SWIDTH 375 0
DWIDTH 6 0
BBX 3 4 0 0
BITMAP
A0
A0
A0
A0
ENDCHAR
STARTCHAR uniF03C
ENCODING 61500
SWIDTH 375 0
DWIDTH 6 0
BBX 4 4 0 0
BITMAP
F0
F0
F0
F0
ENDCHAR
STARTCHAR uniF03D
ENCODING 61501
SWIDTH 375 0
DWIDTH 6 0
BBX 4 4 0 0
BITMAP
60
F0
F0
60
ENDCHAR
STARTCHAR uniF057
ENCODING 61527
SWIDTH 375 0
DWIDTH 6 0
BBX 4 7 0 -1
BITMAP
80
C0
F0
F0
F0
C0
80
ENDCHAR
STARTCHAR uniF058
ENCODING 61528
SWIDTH 375 0
DWIDTH 6 0
BBX 4 7 0 -1
BITMAP
10
30
F0
F0
F0
30
10
ENDCHAR
STARTCHAR uniF059
ENCODING 61529
SWIDTH 375 0
DWIDTH 6 0
BBX 5 5 0 0
BITMAP
50
F8
F8
70
20
ENDCHAR
STARTCHAR uniF061
ENCODING 61537
SWIDTH 375 0
DWIDTH 6 0
BBX 6 4 0 0
BITMAP
0C
D8
70
20
ENDCHAR
STARTCHAR uniF073
ENCODING 61555
SWIDTH 375 0
DWIDTH 6 0
BBX 6 9 -1 -2
BITMAP
30
78
CC
CC
18
30
30
00
30
ENDCHAR
STARTCHAR uniF078
ENCODING 61560
SWIDTH 375 0
DWIDTH 6 0
BBX 5 5 0 0
BITMAP
70
C8
A8
98
70
ENDCHAR
STARTCHAR uniF079
ENCODING 61561
SWIDTH 375 0
DWIDTH 6 0
BBX 5 5 0 0
BITMAP
70
88
F8
88
70
ENDCHAR
STARTCHAR uniF07E
ENCODING 61566
SWIDTH 375 0
DWIDTH 6 0
BBX 4 6 0 0
BITMAP
10
20
70
E0
40
80
ENDCHAR
STARTCHAR uniF0CF
ENCODING 61647
SWIDTH 375 0
DWIDTH 6 0
BBX 4 7 0 0
BITMAP
60
90
90
F0
D0
D0
F0
ENDCHAR
STARTCHAR uniF0D0
ENCODING 61648
SWIDTH 375 0
DWIDTH 6 0
BBX 4 8 0 0
BITMAP
60
90
10
10
F0
D0
D0
F0
ENDCHAR
STARTCHAR uniF0D1
ENCODING 61649
SWIDTH 375 0
DWIDTH 6 0
BBX 3 7 0 -1
BITMAP
60
60
40
40
40
A0
40
ENDCHAR
STARTCHAR uniF0D5
ENCODING 61653
SWIDTH 375 0
DWIDTH 6 0
BBX 7 8 -1 -1
BITMAP
10
A4
78
4C
CA
78
94
20
ENDCHAR
STARTCHAR uniF0D6
ENCODING 61654
SWIDTH 375 0
DWIDTH 6 0
BBX 7 7 -1 0
BITMAP
10
A4
78
4C
DE
7E
FE
ENDCHAR
STARTCHAR uniF0D7
ENCODING 61655
SWIDTH 375 0
DWIDTH 6 0
BBX 7 4 -1 2
BITMAP
60
9C
BE
7E
ENDCHAR
STARTCHAR uniF0D8
ENCODING 61656
SWIDTH 375 0
DWIDTH 6 0
BBX 7 7 -1 -1
BITMAP
60
9C
BE
7E
00
14
28
ENDCHAR
STARTCHAR uniF0D9
ENCODING 61657
SWIDTH 375 0
DWIDTH 6 0
BBX 6 3 0 3
BITMAP
10
78
FC
ENDCHAR
STARTCHAR uniF0DA
ENCODING 61658
SWIDTH 375 0
DWIDTH 6 0
BBX 7 7 -1 -1
BITMAP
08
3C
7E
00
54
00
A8
ENDCHAR
STARTCHAR uniF0DB
ENCODING 61659
SWIDTH 375 0
DWIDTH 6 0
BBX 7 6 -1 0
BITMAP
08
3C
7E
00
54
A8
ENDCHAR
STARTCHAR uniF0DC
ENCODING 61660
SWIDTH 375 0
DWIDTH 6 0
BBX 6 7 0 -1
BITMAP
10
78
FC
10
30
20
40
ENDCHAR
STARTCHAR uniF0DE
ENCODING 61662
SWIDTH 375 0
DWIDTH 6 0
BBX 6 8 0 0
BITMAP
50
A0
00
14
28
00
50
A0
ENDCHAR
STARTCHAR uniF0DF
ENCODING 61663
SWIDTH 375 0
DWIDTH 6 0
BBX 5 5 0 0
BITMAP
A8
50
A8
50
A8
ENDCHAR
STARTCHAR uniF0E0
ENCODING 61664
SWIDTH 375 0
DWIDTH 6 0
BBX 5 5 0 0
BITMAP
70
B8
98
98
70
ENDCHAR
STARTCHAR uniF0ED
ENCODING 61677
SWIDTH 375 0
DWIDTH 6 0
BBX 7 3 -1 0
BITMAP
10
92
44
ENDCHAR
STARTCHAR uniF0EE
ENCODING 61678
SWIDTH 375 0
DWIDTH 6 0
BBX 7 3 -1 4
BITMAP
44
92
10
ENDCHAR
STARTCHAR uniF0EF
ENCODING 61679
SWIDTH 375 0
DWIDTH 6 0
BBX 3 7 1 -1
BITMAP
40
20
00
C0
00
20
40
ENDCHAR
STARTCHAR uniF0F0
ENCODING 61680
SWIDTH 375 0
DWIDTH 6 0
BBX 3 7 0 -1
BITMAP
40
80
00
60
00
80
40
ENDCHAR
ENDFONT
